<mxfile host="65bd71144e">
    <diagram id="-DgpbNRpGjrvi1qS48Ag" name="Page-1">
        <mxGraphModel dx="251" dy="143" grid="1" gridSize="10" guides="1" tooltips="1" connect="1" arrows="1" fold="1" page="1" pageScale="1" pageWidth="850" pageHeight="1100" math="0" shadow="0">
            <root>
                <mxCell id="0"/>
                <mxCell id="1" parent="0"/>
                <mxCell id="3" value="&lt;h1&gt;&lt;br&gt;&lt;/h1&gt;" style="text;html=1;strokeColor=none;fillColor=none;spacing=5;spacingTop=-20;whiteSpace=wrap;overflow=hidden;rounded=0;" parent="1" vertex="1">
                    <mxGeometry x="310" y="280" width="190" height="120" as="geometry"/>
                </mxCell>
                <mxCell id="5" value="" style="shape=image;verticalLabelPosition=bottom;labelBackgroundColor=default;verticalAlign=top;aspect=fixed;imageAspect=0;image=data:image/png,iVBORw0KGgoAAAANSUhEUgAAAg4AAAErCAYAAAC2MgshAAAAAXNSR0IArs4c6QAAAARnQU1BAACxjwv8YQUAAAAJcEhZcwAADsMAAA7DAcdvqGQAAP+lSURBVHhe7J0FgNzU1sf/s+5u9W7dvVQobSkuxd3d4T3cobjr48PdHYpDoe7U3WXr6+67851zbjLJ+KwUppBfm53k5ua6nOu2Q2/7zY4DgMzkKBw7rC3GD8xCeFgIqdjo8u90u92OzXvK8fOfu7FoQwHqGhq1N95hk7NSozHxoPYY3ScdEeFsnytst+4G/lU0Ntqxbmcpfl60C8s2F6GhIbDg7ZIVh2MPaodh3VPIvlBN1b8f68n8VduK8eui3VixrQhkPdi1gdnqm65t4vHoxYORnhipqQBv/7IZH07boj0FRnJcBCadNwD9s5M1FeDXJbvxxGertSdnJp0/EGP7pdOdCtc/Kd4e+mgFyqvr5dmM/xAy40+3ss9GegIzk3Wpb5jBXVPwzBVDtSdge24F7np7KfYUVWkqFhYWFgc+nmrEoMAojoF26TG488z+OHyILjQwgRXtIWRSt7bxuOLYbjh9bEdSMZvsmf7ZKbjnnP4YN8Cb0MDo5jibFxJiQ++OSbjmuJ44jgQdI4hd7aXqibxgs9lxUM9U3Hp6HxFS2H92h1b/fgwLtVGFlYzrTuiJIwa3AVkfYMgEOy7hZTM/G3Gi+5WC0Qvm7zxrcg5vukTBxX4nHLZqvz4IQIuFhYXFgUTQCg5cNHOZ279zEu49uz8ykiKpUmyGc7WCO5IEgONHtMcFh2cjJjJMKTqV6tTKpJp8SLcUXHVcNyRRK9nmVFkFDrdYoyNDceb4bJw4qh2ipAfBtdKyk3/sGNYjDZce3Q2JsRGiynZ6rwQ9w9pjo0NxzoRsTBiUhbCQoI3WVkLvNTICyu41rrwFpqGfw9spJUgEeP5OCRl6+HrXZ2FhYfFPJahqGNciODMpGhcc0RUJMeHy3LIiWlUNh1HFesywtprHNRPlx4YubeNxEdknQoO8aC7K3BD6PX1MRxw+pA1CPVTmw3qk4/KjuyM+WvmvZT60IyIshASjLiQ8ZDo30P+xOFX32i8TiOedw5qf9K+4J8gbNpEc9KEMvidBT1QsLCws/h0EleBgFPc2hIbacPNpfdAuNUpTax14KOCkgzuIkOCALE6iFv9Np/RGWiK3/Kka8Ntd7Qv1HbeCQ8gfJ41qjw7pMaKm0yYlEucc2glx0XrvB9Nc+xgVleGhIThxZHtkZ8bJ8z8VDqnQEJsIS5HhoYiiX36Wd/QTRuGgLooDTZ3fh8kVKu/0HqWw0FAyJ1TSBuvR9esYQxl0b2+U95GavXxxWnX+wsLCwuKfS2j2wedP0u6DBBIabHZMHNkBo3qnOtQU5nZh0zB/FUIVRv9OyZi3Lh/VtfXSGzBxZDsM6poicwTMulteJdipQgpFexIc5q7OQ6M0Z+04cVRHsi/ZbTikObbp3+i/PBQTTdfC9fmaSvNIiY/EYYPbIDbKEG6WbiqSSZhNIToiFOMHZCIzOVpTATbvKcMcCg9P8ATYThmx2hOwu6AKM1fmorZeDVFwCB7SLwNnHNIJ5x7WBRcc3hUTR7VD97YJEp5xUaG45vheGNc/g65MpMZFYu3OUpxG+vkaNyAD4/tnIbe4GsN7pOKSo7ri8mO64uSDO8pQFfc47SqoRE0t2SeBSsIE/WXhYnjPVJxK+i4+sisuPKKLDH/175QkQiLDPVo6JRV1+GPZXpRXuU/qtLCwsDhQCaoeB1VK25GaGIWRvfRZ9Xp1yNC9Wz+ynQr5CizaWIBV24tVYa+pmzGelHmpiRFUmWWIcTwUMrpPhggUdif7GP1L9cvzIHbkVmDJhkKs3VGCOqnM+J360vVrXaVn+wQShNhPkKGJQ6kiZfvM6E82GcNX9jU0NmLbvnLx3/odpZp9jO4u4878e1CPFPRqn6gUggzlTs+h5RsbYiNDcddZ/XD7GX1x9HAWFuKRFBuOjMRoHE5Czm2n98H5JEwc0i9dhAu+enSIF5t6d0hwqI2h95ce3VUmlfJKlmQSLlJJUDqoZxoJEd1w/Yk9Hc7jVMErXS4+qgvuOXsACX0d0DUrXuIxMymKzMrAzaf0xtEyGdYZI5YsLCws/hkEWY8DF7M29O2UKPMCXCtWQdR4IqMNG3eV4v++34BPpm/H3DX5mE2t0l8W7UYVCQ88NBBFLV1vyCRE+l26uRgDuyRJi9hRU3igoQEiKPxv8gZ8MTsHc9fmSSv4h4U7RfholxaNyHDzsIM78SSgzFuThxNGdsSAbGql8ocmP+p3LILUUSN1+eYivDh5Pb6ZswPz1uZjxsp9mLJkj3Snt01h+8h/dm4Vu7ubu9MT48IlXMxwt7t3XzrTqj0OAzNlzgrD9tsb7UhLiJBeF9eLl23yEk6VGuyOHgcOr/MP74oTqOLmIQozEpYE9wq0S3MeFtqytxyzV+dJ70NnxxCOHVnJMTJkwUh60MKRwzebBIO8khps3F0maieM5Im1XbQ0peLN3FvE7umYEU3uVWrsmpLyOky1ehwsLCz+YQRhjwMvh0yWwts7Nun2f+6btVhHrXApx7U3NfUN+GHBDqrg16GwrFZT9Uzb1BiqoMIxvn+GpuIZ3pth+op9ePrLNdLFrioprtKA+no7vpm7A2/9shnVtSRd+CA9IZIEmjgcOihDvnWt8FWfhR0NJAxMXbYHL32/HjvyKtRL9QUqquvx2Yxt+PCPrWggd5krL1d6tEuUVrQZm1bB/uVo1uq2d2+XIEMMnq7OmdowhRbOOl3bxsvEVrOPeeiHe2R4L4sqP+HvjDKlltILp6F1JBRyPJs5e3xnESzakyBy4RFdEaoJGQo7duVXYiXZW6vZy0KDLsBw6jDPjbCwsLD4pxBkgoOiV/sE7c4zO6nA/nzWNpRUuAgGUlBzbwSwNqccH0/b6ijIPcFj2dwK7t2JNybyXsrvLqzCtyQc1NQ1mnTZHYHHmzz9uaEQn03fRu+9m8MTIQd1TXKsEnGDBAYWHoqppfr5zO0ugogSVBje9GnmqlzMWpkn+r0RHmpzm5Tpy5/7F61lL3/9wB6ly1UmGksCHseZTmNjI/733Xpc+tx8/PfVJbju5T+lMg8UThvPfr1OvrvhlcX4as52p/SSKoJeNE4f20niTHdOfUMjXpq8Aec/Mxf/eXURznlyDtbtLKY3pMPhaF8pwcLCwuLAJfgEByq3ec8GX4Xumu3FKChlocFVFz/rao3YtLtMhAyFUjfrYHqIkKLVVF7g7vmCshoRSESnZoDrF/PXFyC3pFp7cic8TFXk/J0hBpjQKp1vZu/w2HrW3a3/fjB1Mwkz3lvZPFzhLKR4sPMvQ5+bEaArxJO6TxWH9ufhJAXHBQ9RTSaBjit7/rdtbzle/n6D7J4ZCL8s3o3f6OLv6xsaZDikssYIT+70Sk2IQr/OSZqKYtryXPz05y7u7hCHFJTW4LUfN8mvOEwjQGdYWFhYHFAEneDAS9t4FYK3QpcL+R25lVRmq9a/sz7nQruksg6FVJircX19IMD5m6wUXu7JrUPnSsrMhl2l8qs3Jj1t0MTm19Y1Yk+B9xavzRaC2Ai95erdvjXb2T5P75UaW893XMnx+L83WA9vRMUoJwdHdLO7FqzPx/XU0vd0rdjKrXd30pOMpbll1XWYsyZP6mlzdCzckI99xYFt8TyXvuev9V6GovJa1JukDl4pkZUchTjHHA87iT+N8l21JrCxbk4X63eWYlteBd1TStCMULFlYWFh8c8iqAQHKYTVrU9U4R6CRtLsTT+rcwHO4gVX9PwFt0oVxlc8AVP0qkeP8MoGf7BYwgMNPIzgGWWnbrMv+8pruDfFkw5dTfmEL32Joie4muMttxnlS932v5/iilqs3l7s8Sp2mUzIru7TIVF6UFQl34jcomoUldVKpa18xeo2mfexIy+w4QoecpCQYUMICV291ic43USGhclyXU1FNoDK554FsVXpZTdVkxBXWqHcrRlnYWFh8Y8kCAQHo5TlOynLjbLbDdaTHB8hBbynlr/6WJkZFR6CGK3FrVDq5mGCcmq5+iMtwWjpGq51vmfCQ0KRFOdl/oLYaUcdr4LwiR0d0zxv3sSVv24n128sFPCwjjd494Fap0O9/NkdHLhO4OSn8ioVT6pSDpF9KuTcEqcZiCqMI8NcY6b5cM+WGghRsJDBm0ipNKTiQwQP+s/7j1hYWFj80wkCwUEVwDpcRBeXU0tSe3aDCunu7eIR7bTjohnjy7TESLRJMTYd0lHFu6pEt+wpl54LXwztkexYtmeuGlyrifTEcHQ0bVzkBFWG3BuRX+JJUDGbZJPDvNzhDaz1CowqLHLzgOxEWbboDV5xoFe46vyFAwuzi3fkV2knm5LH6QWf2JkQE0ZPzv6KjghHt7att38FD0k0kL3mJNI+PVZslSDVrOeJlFmmDa4sLCws/qkEgeDAOBf+OfkVLioG3Mbr0zERw7ulaCpcKfIfda+wIyYqTDbq8byCgSsfm0wsZMGhoLjGqWJwpVubBBzUg3exNFtitP4ZrsB5yZ4uYLhBNX1lTT1WbSuU7nRRchinTNLNG9wtWY5odnaTc28BV1IXH9WN7ry7nO3JI795750Jbsw+42EXjiuBPKOfyxGvHQ7G8OFeJ4zsgJjI1kvWe4uqke+yrPfQgZnSCyXpji7uIBnZOx0dvAmNFhYWFv8ggkRwcGbFVl8bDNll46NzD8vGMcPbSkWtDh5S8HhzRmIUrj6uB4Z3N4QL12qIK/J9xdUorqjDgvUFTiKBK7wB0jkTOuOQvpkIMR1WpX/DvRpXHtcdPduZzr/wQHllvUy0XJtTIs9OveyEbh6fpnkhVYqDu6VpKspfOm1So2V3wwzTZEFPlJJ9O0gIk+4JwsW6Aw7e3EuFg/LJMBLm7j93AI4c0ka2gr6MwuSs8R3Ju63nU+5t+GPJHu2J48iOAZ2TcOdZfcVe3mny+hN64VIS4nijKwsLC4t/OkEhODhX2nZs2FmGUtc9GjSUXjsSosNx/mFdcffZ/XBI/3T06JCAfp2ScO6h2XjoogFUqZDQ4FSBqC9ZRVfdtqcSRWU1mLN6H2rr3Sfk6fA9b6R07cQeuPusPhjVJx3d28VhYJdknD+hKx69eDAGZCeTIGD+yp01JDDwzP1vF/Buk86+NsNvMpOjcNvpvXDraX2kNdurYyKGdE3BZVRBPXXpEPTplEgavZvB/L50t0ye1O06MGY4OIe9gQ0L1uZj2z59QyxKvBTeg7ol444z++KJS4bg9LEdHMeT+w6ZQFGmfD0nR5b1cjhyP1NYWIj0CN1xZj88fskgnDKmg2x77UbrOMLCwsIiqAgKwYErCqPj3yaFtOwIKU/OpS+3JrnHITYqlArrMIzulYZ7SXj4v2uG4bkrh+CiI7LRMS1GzhHgiZF8OqK5fuVbuUhx2oo90p2/r6gaK7aqXgDlFkZ9FGILQUS4TexLJPvGkNDw4Hn98fK1w6kCH4TzDuuINtTyT4gOkxan646XfJoiU1VTj5//3C33a7cVY/0OtZWxbo8Of849DrxZVEJMBA4fnImHzu+Pl64ehifIvjPGdiQhJkKWCPIEQeMkR90c9ct+mrp0L92p+RCMs8v+Wpx96RujJ4a/0i8gt7Qan0zfJhtx6eYprfrfEIlX3uJZN8L42sA0U0T+Or0nJcezGEJ/KACf/2attprC+F6h2wSUVdWJ/Sq98R8nky0sLCz+EQTNUIWjrCV4x8Rv5+2kO7WTokClMY9rJ1PlHa9V0rwzoowcqJJakFnvoSEys54PREqMCadKOMSx7FLnd6pUN+5SlTdvtjRtGfc6KPuUaero5MSYUMRzJU32sblGRa3sYnNDQ0HCTIicysjCTCxV6KyLL/pC9H4xezv2FKn9Bdi5vPlQNR9IIc9c2dhlFYhyb6jc81EUZjczZJ0IQ1EszETakBQTJmP6Rm+HWpL43fwdKJdNpNg3rqb89bi5wIgyd7R3Klr5S3XxltBTl+/FbW8tRl6xp422+MCzarz3xxbt2fjaAZmppwQWAPifI2WwffJee9AlGHLIss1FePjjVdJjJPpMcNztLazCp46dQ1mD9q2FhYXFPwzbobf95lIM/n1wOa3mKygnHTW0Lc4e3wlREarijopQFXXgsF41E59n5FdUN8ovb9bzyCcrtT0XjEL+3AmdcfSwdlRhq2Wc0VJzK7cYurzDFYjuPN4fqKK6QezjSufl79ejvFoJCiyeRIbxPIaumDCI502wEBAmwgDD5rA/lc2BYJdDscrJvvrGBizaUIg3ft5ELWC1u2YgbvdE1zbxMgzDKxh03v5lMz6cZlTMgcACHw/lqKWqyiW7CyuxZluJR4fxAWAZ2oFY7DfeJZTPhFD7Lig1Ps2SD+DiEy/5GPE68veGHeX4ngSmSEorbIbOnsJq2W20X+dkZCazX5SlyzYXOu3JEEVxPqJHmuzwyfD2HUso7niVj56OuJdnwsBMDCT/JMSGi7CZk1eJHxfslJ6QId14+3IFpze2o6rWeRjMwsLC4kAmqAQHhSrEuZXHO0ieMyEbpx7ckQQHDzWMg8CqRq4IeHe/p75YI9tRu8IV3PmHZePkgztIb4NqizYleJQ79FYst/y5Unnwo1XYyZMU5a3SRd6T5YRXHtsDh5LwEBFqdr9+78tu/Z3xHQtCfLT4E+S//BLVrd4SWktw8IweEt7w997Ak05nNe9mBeYKf7osLCws/j0EzVCFwlRAU4ubW+88CdJmavW7rkRQeFT0CG/eE61vISzGGt9SPU+VZJScVM0YQoP+6w8ZN6HvlJn8VST3lsgmVCqoWU31TJBgQb/cAuZnHb5TGyAZap5hO5z9zV/wUdiherdHUKL7y5///L03YEHNFUPFd1h4tkUPWxYeGW9u0d8bmJe9sgnevrSwsLA4UAkywcEoZrliPeXgjhjZO1UmnZVVN1CFThVugCWxa3VRU98oSy+5EueVF1zBmutXnnB5yVFdMaBLkgwpVNQ0SA+Ft45+k0u1X1bT9NJPdV2jLIfkeRjnTWD71Kx70U0W83yIK4/tjnZpseS/elRVN4rgwu/9rc4w287YSZrieRqlley/MFx5XA/lP+19cKFc1bpu82Uah5U5vAKxWf9GDU8wnr9y3hiKMQu2bEIgtllYWFgcSASV4KC6hBkbBnVNwXEj2okAwW94B7/iygb5NTXQVenMP06KDmXpvi+hipkrZ27hs9kd02NwFVWuyjqlc0SPVIzpm053aqihsqaOvqtDdS1XHs5mM0aFoMxk+C/PaSgmgYF3bNQ3eurWJg4njmov96JC7hjWM1X8qD2iorZeBI3aehaOzG1o445hf6pwUupsHx/mJYKOprVHu3iM7Zep6dD7P4ILZ1/9lTTVZqX/73OvhYWFRXARRIKDPp/AJhMTjxnWRpY2qiqS/tKrxsZGlFHlWlhRKydD1pFQwAde8fI77k0oLq+TEypZWKihCr+U1alS5XuRGRzY0a9zgqzFZ3hp47iBmbJqQsG2hkilXFpdjwIy12EfXWV86mZZLUrIzroGVm8gO1iwqSc1qvzJnYYQRCaRP3giX+dMPoOCT/8MwTFD28okTB0WCNh8OdGTripyMz/zJEsWKHg2Px+ixPbX1zeSQGMX+4pJjd0pQafB9h17UFs1zEMvrErPwsLCwqK1CM0++PxJ2v3fjF7R2tG9XQKOGd4OETK7nYUHXYCgKpBuWAjgCrSgrAaT5+/Ct3N34Pdl+zBjVS6WbymWVntiXISjBc5zJHQzFOqOezN4xUOXtgk4fkQ7tz0Y1BdU9ZI5XInnldSQXTvxDV1/kH2zVufR98XyPj4mQip//SuFsldUSTEqIgSLNhZieI8UHDGkjaixfsExPEG+pA94tv7Ogkp8NXsHviM/Tlu+D7NX52LFthIRcOJIKOCzKFi/s52KiHASSkhxJR9R7Xjpqss3PNzBAg/vnKmzdFMRucHXzp4WFhYWFv9kgkhwYKiitduk9T+oi+oN4KqOL64e9Sf+x63wBz9ehTlUme4urKJKvRq5xdXYtq8cc9fkyZyFXrwFNH3iac4AD0DwyomlJDgcTpVj1zaeT6Rk+Ot9ZMfd7y7H4k0F2FNYibzSGtmyeuu+UixYVyg7B2ZnuW45rdurfiOo/l1KgsalR3XRdjh0dxersQCyfW8F+W+FCEJ7i6qQS/7bW1SDzXvLMX9tPlISItHJ6WwEZRaPsfMdX+3TozFl6T4Ssti3TccSHCwsLCwsXAmKoQqj+qRKkx76dEjkdreo6G1qRtdXWlUn+yLsyNUOPXKB9X8yY7v0CkijXO96YDRD+EhqPtGQD6ca3IXX/Jv0uFBcUYs3f92M4kptiaNZELGHoLa+Ae//sRV/bizQFF1hs+2Ij4mUfQfUsdlOvqa/hv089PLOlM0oIeHIVR/Pf+ANsj6aulU79Infm/SQMerJjvCQEJnPYby1sLCwsLBoGUEhOEi1aVou0Z4qO0+wDq4EV28rwbodvHmQjyqRKtjfl+1BYWk1aTN15Ys16om7/LmnIVHOGfBu1iqxr4x0eDjEiD5jI/mkzc+mb0eFtsmTO7x5UAh6diShSLPKsFG/U7+zV+Vi0x62jzHCxbjjeQ91ePOXjSYzDFgfD5LwXIc0Xl4qqqzTk+6/DiOKDRcdmLi73HzQmmfMsWdhYWFx4BIUggNjLnh5/N4bXPxuppY2L6/0V1Tnk9Cwr0QdlsXfGVbwE/c5ANltEshy3yYt28JHYTfQV0aXv6oEVQ+JHojcM7EzzziEyRU+9yLNcRiS6mdg1K+4UO5mrs7T5kt4h13MBz7tKlTbWHuCBaa4yFDNLMP8vwOxXYKZ/6jw/vtc01KcXa785t03hr8tLCwsDnyCRnDQ4Q2a/MGrGhRmvfq9XiHbUFunuvV1nMt2NRgSaQzfe4Vb94zZNn3eBJupG9vYYJdtpj3DuuywOY7ldnIMYURFcVkt2eU7HPSvyyo9nyIqkBGyMkXc6tu8/Y2amcIY/vbsor/Xnd4x3MU+Mceev0wUIpr5+2D1m4WFhUXgBJ3goDZd8g2vGOBWtCq89SJce6KaXBXrdumq5wOhFLo+HaWn3tGJ4PregM+VMJ+hoeAP+dLdQe4mLbzU0jOqunGuchijF0MnOlLp1DGHh6PXhIzhMOBzGnxj+uBvxQgnHePZyYfab/CgBE5yP/3q6c7Zxb6zkfIRLwnW4jr4vGhhYWERMMEnOFCRbO4l8ETXrFipoFUlbC7C6V4KZfWbEh+BjKQoenbVZ8BHePuDd5NUHQVmM1iBL70lzUsyw9DBy/wMppFqfd6nQaHXHu5RMLpvJv3V3/Odce/oNSFLM5Oi0SbVu31cT/HGV8EBxZYMmZh9dmCghDUS5ejXZuP40n2g/7oLf+7YEB8bgbap0YiO8jBXxsLCwuIAwb3W+tuxY2eh78q8f3YS2qTopyc642jRUyE/vEcaMhJZcPAML7bgSZZ8qqGjDvAAn4TYLi2G24yaio7+TL/0n/eeSIrjZZae4N0vG7Fxd7n2lS5uKMxPhw3IRFay7j+jk98MD0HwFtm+hnZ4n4dCOdnx74UnoQ7pnoKjhrbBkUPa4KghbXGkdq9+s+R3woAsDOqS7LQx1t+NEbq8qVZ7PHPFELqGynXH6f20d/7JzozDfWf3l0PD7ji9L+J9zOOxsLCwCGaCbB8HRfvUWHTnPRg8IN3zUWHo1iZBjjyWSl+9UX+pWcjnQwzomozLju5KFazqFXCG9dpQUFqD35fsRWZylM+WO+9jkJIQgZVbS2RjJlciwkIxYXAWTh3bSbNJ/6vs0Skur8E3c3Jku2k+JtzdXQo+byIhJpyEmlLZYtsV3qPihJHtMX5gpky4NNupUGFRVdOAr2fv8GhGILTWPg4x1MK+5vgeOGNcNg7pl4ExfPU1fg+m30PodywJTEcNayunk/IE2V351aio1ntonPEcck3BPdT8Mb5/pmzcxUIrX+HhIbL5mC9Y6OMj0i8+spvEV0JsBDqREBFFcbhwPS/fbY5PVPx6/rblIeMJ7nXZPyZbWFgcaARdjwNXtqu2FcvyRvXM6AUlPWsT/bLbxOKus/pKa7UdVfpxURHS2u/fKQnnTsjGf0/spQkNnlCm7sivoBZ5DWYs5/0ejEreKCBZTdk9pFsqbj+jDyYMzELblBjEUuXOFWv/zkm46MiuOHt8Z6hTLRn1q+Yp6LMVbFIR5hbX4OeFu+XZFyN7peH6E3tiXD/ufYiRyjeVhJchXVNw6dHdcPxIdY6H88wB/Z7NtmHF1iJZ6aG7RmHW/9fizceu6rwF+FnjOuOhCwc4tgXXw1CnKb7wbK9zqLQ+ylaOH06yvEEYP+lu6dMpkf6y7YaaPwy38hfevmqpjzyZS+LP/gsoCwuLAwzbobf9FjRFAjuE2mdIjg/Dzaf2IeEgzlFg8cx0nvioJqJpilRRN9AtCxkNdMMVaTg1jrkHwFhJoOl1gc1767dNmLJ0r+zieMeZfV12YmT4W70gVfdsT0092ddILiE7ePIl9wAYKH3SQjMJI+zyJz5bTZV5sXTdv3DVUBF0lDu9w7s+sv94WIVHJcJDQ9V20k5uU3esotPQ2IgbX12E/BIlOLA13Pp1FjR807VNvHStpydGairA279sxofTtmhPgREXHYZ7z+kvQ0dNpbi8Fte//Cd251dqcw284Roe3vzKcUNpRRPyDH3qW7GDHj1ZdfnR3XH2oZ21JyAnrwIXPT1Xe9LhHqBGNJIBetrlOD7vsGxceHgXSTMspD791Vr8/OcupcFkvxnNKYL53gzbYYQLCyHsH1ecv1ZpU+7o0t85DBEcbxx6LSwsLBRB0uOgCi31txGFZXXSC2AzjQpwQexcLNIvFcLcq8ArC+JjwqWCiiTJwaiMXUo8rSJnM7bnV2DOmjxRLq2sxexVeWik2tn5C9IpRimbmVASFPgQLh6j5i58s9DAwoiuT63C0N0BLN1YREJDidyzMPDbkr1OG1p6g4WM2Khwzb5wTWhwx2wUV0xTl+Yiv7RWnKAHR1OEhtaHHWHYzxNgF28qxLy1edqViw07Sx1LX3USY8Nw7EHtEKLNe3D1AftVyQCmlMFqJp3qveOtVhGq+FGqRjzxO/ObpqN2+5AKXSnI4Wxfz87BB39sxcxVuXj5h434dRH3OjHKNgPjnr9XbtfuzdoEPX3qsKudNfGTa8Vv9r+6o++c9LCK9s7lWwsLC4sgERycSycu/vjAqvnreAzY+Z3xpBeQ3ks2XYcDqUHtKKqow0uTN8iJl4ydSt+ZK/dh465St288F5xuJouKcyFufLi3sAqfztiuPSlmrdqHrXs9b5ntDWdbXdxgetxdUIVfF+utWeOV95D6K3C2nU/7fOqL1bj73aV0LZNzQO55bxke+3SVnDvC8Bd2Wwh6dkgkoUkJaC6+FnTBSH8ngqPJOnn043lHBa3/erQpEMgAzQyze/iY9fembMakD5bjKxIi1AFljC746BgPLADpfmOMCl/H+VvWr743mcGXloi9CQGszG7kHqaD+6bj0IFZGN4zTYbinGG7mxsuFhYW/xSCZKiCCyPVRtSLJf6NDA/HXef0RTcq0MyFoUe4VHRvkjnBAgnvCP3+71swbdkeTVXBX/JyygfOHySTJdko14KWexQapSR3d4vq/na3n3e4fO/XzZhGgoJunu5UngT6wAX9EB0Z4Ax7Jz+yYe721TY04n+T12PxBvdzMzy73DutOVRxz7n9cVC3NIeT95AwdeNri+RgMld4EuF95/TXnmzIL63Bf15ZTN8Yu3LyyouOGbEykXJ0rzQkxYejthYycfPt3zbJkedHDGmLqAi2kK5GO77/czdS4sJx3fE9pVeAg3JPQQXe+XULendMwmljO6Bbu3g01tnk8LLPSNjjXil9Qqy/oYqs1BicMKI93XEoq/iprK6TE1xHUkXMQ2+6Oh9UxnNQrjq2BwZkJ6kvyD3LNhVg8rxdOIvsmTAgU5ZwllXUkjty8fG0bdhLQqHeoyHDIXxPaTI1PgLHDmuHI4ZmoW1yNKobGrBkUxHe+HkTYiJCMaZfOkJMm4+99uNm+o4FExt6tk/ATSf3Ir8naO8V3DPGp7J+8MeWgJYtW1hY/DsIqlUVXAiaqW9sxPbcCnTOjHFp/Rg6Pd25wiIJd73yTpJfz8nB1GV7ZVjCFV6hsWVvmVSYSS6nV/KdXmd7skmp6R28yuyKqnop7GeQ0KApKTQD+LAuXp7ZvU0CCS1qlYXxvdkW/dmsRmjNUV2VV4m889tm/Cmz9VtOa62q4OEVXpHQNs1YucIHeXF3fYXW62OGJ5DyZFP2H/uN4+qXRbscwxhs3sVHdsUNJ/VC305JiJJNsGwyjNSWKu8jyM28fPbwwVkY3DUV/Tonojfpm0eVLw9rnUlmpydGIS0hUlZv9OmYjNPHdUIa+ZdXqbA5qQlRsgIkmSrkFVtKUEeV6NDuqTIZVof35NBXVbBZt57WR1ZdsH2srwsJCnPXFmDN9mKcd1gXHHdQO3qXTFeSbBe+mtRPGt0Rg7ulKPeQgBYfHYHDBrXB6N7pJPSoXhb+5aPmeRnr3qJqEVg4+WrRjwnk39tO74NxAzKQEBMBWwivLApFx/RYcQ8LwkcObYv+2cniLnbD+79vlm+H9UjDnWf1EyFMYaQ93kCtC+WFEb3SKezyUO71HBYLC4t/E0EyVOEdPgHyqS/XYNlmqqz0GlJQD0Z9zM+6BkOV4eqHu4pf+3EDflq4C3UellQy3NW7cVc5nv9mHbZQhS7mcHexeu3AbLqjA0DTpY+tF5fX4ZUfN2Hasn2gOscrfHjW/75bh72F6uRN1d1MZundE4InF5CapoV/SqhV+tpPG7FgXb5SDDIM35j9xbj6jZejqsmt/IbDgyei2k2C3m2n98NpYzrI6gsnNC0R4aEYRRUvL2tVuNshkB1cYQ/pnkw6eOsxZ32819PRw9rikP7pSsHV6SbOOTQbg7qmiAnKHBt+XLAbP1N6CxT+qlNmrNYzoTC7KDY6RCZZyqZm/ILc07dTIm48qTc6kJDAimYn8j0LfSN6Z5AwpC/bNXSwQHLzKb2QKZukKVy9yN8kx4bL0JLrOwsLi38nQS046GO23O384uR1+GpmjnRt82Qz9yJO6VUYxW0ltZJWby/CU1+swbx1eVIJ+cZOrboqPPjxcnw/fyfyS2pkPNr4iu8MSUCv3/VCubyqAcu3FOPxT9dgyaYC1a0s7zzDfuRelbveWYZfF+/WNmwiQw2JxAPGuzISiLglfe97y7FqWxGFjfYiaHH1l3KwHr68sdVR1ErWVViAKKb4r6lX4/2HU+v60AGZCKMWtQ4nk3Jq/eeX1aCel9kQvHqBbVJpSMF3xpNCBBS6eFdPDvtK006bbAJPTj17fLam4gzHPfdOnDCiAyaObC9uZzi9LNyQj7enbJaeisBRez6wK6tq66UHyfw9ryjqmBGHAVqvBwsFd545ADGRRjaurW2QuToLKK3zZFM+8p2caAp1utMCgTfbynRsNEbfkkDNPQtPk6A+bcVexzDSsi28X0qDyQwLC4t/M0G5AZQOF+gCFcT1VOGvo4Jw5fYS7KOKnQv05LhwhMm4rV4d6Pq5274ac9fmYfK8nSQA7EKuTLjj996LP4d9BJfXa3NKsGZ7KX1bI93jbB93ZbMZWrUk91w57aNClic8fkf2/biQBQDVg+DLPjPsP+66Xk12FpB9kREhMlwiFZumR4db37sKqjBzxT58O2+HLClVW0tzJehwlfxtCa05VDGuf6bst6G7yhiqqHe4koeIDieh4ezxnWR1DNf5PA6/giquacv3kjlhOG9CZ61bXZnEgsLvS/fg3SlbxLz1O8vQp0OCNnzB3yvT2azfl+yRdHPY4Cx+I/ayKbzC47WfNuDL2TmYQ2mGN3dSW5UreO7LtGV70a1tAvplJzncW1qpKvcbTurptLpm5bZiPEmCaikJPAwLA+x/7k3QWbSxUOJ7wqA2ztuUk0NZ/eXvN+DnP/fI8epDu6WKgML2sne4Ep+1KlfmgvDum7rAwnMSvpi1HS+QkM1pcPbqPBJ8q2UvDHVmi5Yq6JYnavLwDQ/H6OzMqxR3L9lUiLlr8iWueWv35RT+6ynvWVhYWDBBtY+DNxytRirxVBHJhIDL6uysOGQmRiKVCnquAPJKa7FtXxkKqUB3fEa/PhvwGqxH9SCwZvdgiQgLQ9e2cTJZkM/BqKxuQCG1creSfQW89NELnk3zRQjpb0RMBNnXJg5ZqdGIiwoh++zSCtyyt1yWkOpw+CgBgyuGptnki79jHwfdLzrcQ/TSd+tJANyBDmlxsuUzzwXQYaHitreWUGuZn1TrnN394tXDEE3hpycYNue2NxdLBc9+4lCSeCH7Xvlhg1S4bC8/D+ySgkcuGiSbfOnf3/PuMvTtnIizx2U71Cqq66Vi5p0gGf6WV+rc98EyqXRFjS7eFvzecwZgbH+jkn71x434fOY2PHzhYIzuY4TLvqJq3PP+MmzeXaapAFdO7Ikzx3TUniA9VJc+Nw/XTuyBk0cb6ruo4r/ixfmoMp31wjLFbaf3xRFD2+rOFibc/ru4Z9J5A5Qj6SXnnxcnr8eUJbsD6JmzsLD4txLEQxVczKlLKkUnoYFplG7cDbtKMWtNHr6dmyMT6BZvyJcWO5XhDgIRGhh92EFKUu3eXHzW1tdhbU6xLN3kSXG/UQG7aGOBF6HBsNRshjPODjN/wffcXb2KWp/cUv5mzi6xb9mWQkNo0AzWK9rWFBr+KlxdzH7RO+c5DhduKMCUpXvkPjoyxOksEB4SeO2nzRQv7HP+SpmWk1tJLfI81+B1Qn/FQ1FLNhc6wpB/eTlobnGV0/fSo2Cn7OJQs8sSUV1oYHiLb54fYxYafDiBcH+7bV85ub9C9wphxzpKA2biyF7espx3MNVh7b9SOJmFBobrfx5qaHAbMuH5PKXqQDnNGTLn4dTeeOySITjuoPYy4VNhdqdvH1lYWPzzCWLBgYtC/QoELtBasVDTjHI2sSnmu7rb5VkelZrqQDbrcNFLaPWaM63o3b8Oza8myc58z3Ci5BbvDwt24vHPVsk8FfZ/56xYrctdmcITXtfvLFbBQH94OSwLf3UNDdhKFbCruZ7glQJc4Zvhzxp5raMbunn8y++d9fDwwPTle+lOqXsywRl393HFL5N3HR+rM1XM8Fc8PBFp2gyM09COPF6uym+dza2sqVdzP1zCY3dhFT6cukUEMB02d1j3FNnu/Jkrh+HY4e0cYa5wNsPCwuLfRxALDv8EzIWsczWSFB+B4T3S5QyM8LCwgHtFDnyUR7klzJMRC0tr5dRQV/733Xq89P16lFWqSXl8ydCDDlV2XBlypcenlurDUXo4suDBG3vtHzybO35gBhLj1ZkUzP60nW1wnrLLu6jyG/0yUOspnPujZN8R+vfl7B34ZPo2OdPEDM9taJ8WI0teZWmsA2ezLSws/n1YgkMAeCoqA6uTjDkH5kKb6dkuAfed21fW3/MBSMYwiX+DdR0HchFeVFaLp79YI7tFfkoVF0/sc0Bh0aNdvNbLog4z54tXuyjUPAjek4GXXDrCwRTIPIzAEyv3J8p0FlDUHS/tvPPM/nL2CbM/beehh6oas8Bll1USrnDYpCREkiDA4aHUGO6dYXfX1jXIng4PfLgS383bIct65b12RZAAwQeO9evEKzlYZf+GqYWFRfBjCQ4BYC4qHfcBTB7j+kSfmWEqswV3VT0qGk1ChDvSqtbvtd8DEZ6fwnt0rNtRjF8W7ZYNkRyQHw/pl44+HfkEScOfhaV1skmXHm6REaFyiqhCAlvgFRk92iaIcLE/YdPreZTDZM9gqryPH9FOW1a5P1ChUUlCA8/l0OF0dki/TG0/BwW7gPdvGNsvw9QboUEJSU+bPEdk+ZZCvDB5veyEySuDzHMieF+N/57Sm+4O5BRnYWHRWliCQwCoqYqKCF4WR5WC93pBL6DVqZm8g5+O8Qn3Q7gaoApqLsztXgxne6OpBWi8Ngr/AxPuOQiRyYjcXa7P5OeWMB/qdda4bNlaWnxIr8qqamUprkKF4KVHdUPP9okSNgxv/nT0sDYY3iNVnvcnvKT00U9XYaGcqaLczbstThzRXrau1joiWhk9vu1YnVMkW4yrJyAhJhz/OakXRvZOl5NeeXXIbWf2RX+3ngjSTdJpREQIHr5wEE4b00mWqbL7iyvVnimv/LBR9nXQ4aW0FhYWFowlOHiBx3jPPywb9507iFps6bIr4EMXDsRzVw7Dk5cNwUmjOrrvXCjYpVv39jP64NkrhuLZK4fgvyf3clrDrwp/Vauo3gXuNgYSYyJwxbHdcf+5A3DqmI5Saaq31Grsn4lJ5/UnM4fh6cuGSfdxeAgv21Tm8Iz4C4/oikn0LZ+LwPsQXHxkN5xycAeEyd4TOkp/S9CrrqbDdpvtN8Jh9qpcOReCUUKADUO7p+CEkR1EjbXy0lfeW4PRTeE9F+45uz9uOrkPTj2kEx44b5CEYRjFH6OHDz+ZbZYnZwUfuH0p8G6KvHcH72zKW5XrwguH/a2n9pGKnPWqy5NlAYak9qmrCXweyYYdan8FFWLAkG4puOusfrLk9H5KL4cNyPRgi1LhjbRG9EqjdNJFtp3m3gp+w/aYJ0wyDdqzu1kWFhb/NizBwQvctTuQWmrjB6TjuBHtpNI+uE+GnNQ4lISIG07sRQV0f2kZc0uNi1Wu508/pKPsNXDU0LakNwG9OiZK5ffqDSNx6EBjsx4dNVfCLjPXTx/bgb7vhD6dEmQTIO7O53H8/5zUQ9bbjyL721NLshe9v+KYbnjpumHI0jYq4u/ZvWOpMhjdNwOPXzxEBJ+ubRJgk04Ptoij23/R71pBOcPzNpoL2+3ZfvbrGz9vFOFAh8PqIqrUOqQpoYtbwD8t3i3LVPWeFq6r26VFUxy1xbXH96CKMEWWKuqwLnavMcChkP4KswLBj7ogZ8AKzhr1J4517iUpLKvGh39sRVWNsetk17bxuPyY7ojQekycTdAhsz2/cEbT46zVLpNKH/x4BXYVVKreDU0DC7RtkqPVXAsKIN5bwnVkjYWak0Z1kDDmNMZCxOv/GYknLx0ie1hceTy5XRO+mDXapl8uxlhYWPwLsQQHb1AJqc/KH9Y9TTZ7+vCPzWozovk7qNBuwMjeabiaCliRBajkHtA5WQ4z4t4K3rqXNxZ65fsNWL65SHoHWG9vbdzeXA3wqYVnjc/GaYd0lu2Vn/x8NdZpLUnepIcPKKqjSoJP9XzwoxV45os1WLalWA4+uuCILtLbYG4gjqdKoMHeiHenbMYfy/ZS5aZ3ObtWn54xhj/YUNeqojWrDmez+PjxHxfuIvdqCgSPr59Kwpi+9HDlliL8b/IGDwcuOfursqZO87fnwRxDTblB96kuyBl4+tqdhesLMH3lPqcvx/ZPxwhKIwqzOWZdvuBv6DJHrgMVHrwPxcMfr8S8tXlqyaUGCzW8rHM+qX9P6VVt0+7MzgLTvBKCw3hYj1SZNxIZZghfnCZfprRsYWFhwViCg0eosLbphwIBZZV1ePabtVQRb8XkeTkiPPBGP1yec6XeOZMn4oXg/MO7Sg/EwvX5eIAq+K/n7JDTOHkcfHdRFVLjIzGmb6aYycvhdPgUxwsmZKOBCv4XJ6/Fos2FjqrllNEdRDD4YvZ2fDxtCxZtKMDU5ftki+T6xgYZx+ZDing4Q4/M/NJqPPLJKjkOWc7LkDpDN9Gw1zu6Hqp0NeEpsO+aD5vOldsP83dTC955HsMRFD7dqAWv88vi3XiMwjTPZX8DHd7f4bMZOaggYY/hHiH51b3iAX7l2pciPUnyrfa98x+nSay8V8Kbv2ySeRgMf8cnVV51bHd64phhzXSJecoh8rnJDHdYP0WeDIGwRqPyN6ef9TtLRKC8+n8L8OqPG/DJtG14/edNuOqlhXjgwxXYtq/SzRo+afTJL9fgTdLH51l4gzcbe+Hbtc6TVy0sLP7VHBBbTv8dcGXNE8eGdEvG2pxS3PzGYtkoSBvGRnpSNJ65fIisdX+UKukZ1Nr8+ZHDpPfhhpcXYdX2Iqk89HHvS4/qinMndMHijQW49c0lGNEzHfec00+6g7n3ggWO6cv24Ikv18pZBAy/++mhCXJM8uKNRSTAcEWpKhGe/zC6b7r0RLB523IrZA7GwOxk2cr41R82UuXCre3mR2/XrAQ8eskg2XKaW7Bs89u/bMEHJMBowRAQPPGOT3FMll0flft5x8Klm4tkOaCrC/mobPM21wzvpshbbZvhOSEH981Ar44J0vVeS2GxdV8pflu8V+4HdEmmcFIuZfcv31wskxcHUBipipi3jW6Qw8HMOy5y3PPR13FRvCeDgo/GjosJQ0c5V0IJAiwscE+DDtvUMTMO2bKbJJuv/Mq7mybHRcpyTd3ezXvKZcOm/p2TkSo7NLK6HXkltTJMpb5U8JDDkK7J9KxUechmzpp8elJDXCw88lLV3XmVYiXrs5PAoadVPoTr+pN6IlSbE8Mnt5760Az1kjRlZ8TgqOHt0TkjVsKRvysu563by0VI286CBwkqZkHJwsLi34slOHjBEBxSsHJrEW58fTG1iI2g4vMSHr9kCLpkxanTBJfvxY9UyXOxfdHT85Aju/gZnHZIR1xzfE85Hvzm1xfhoJ5pJDj0dzpAiiuSSR+uxNa96pyC+OgwfHv/eBE+Zq3ORY1UbqryUH/poj8fT9uKgrIaEhwGyXAJD5F8OXu7Q29T4cqFm+d8mBTP0k+hSk+pA9/M2Y4fFuwmo5tmrnIJf8N3Zgw3sl/0ys7A1Q/8rIYgPJlmqLl+1zTU10rw8m6KJzuU7fyVGiRxfa+7kH+5ImdUfDqjmSPCp9y6wWdpXHZ0NznsigUR7nUorainTw07eQ7DpPMGynkYuhDLafWhj1fKPaNcY5O5ITFypLk6dVUtfdVRuiwsLCysoYoASKKKs21KtBTiOpnUemyTHCNq3NrjFuveInUC54SBWdKy1YkIC5WJlQzrNRe/bOSC9fnYtKMU7dNjcdWx3WSOBMMnXvL4MsNzJh77ZBUe/XSlDH088cUavP/7Vjz79Ro59EivaNSmR7oNZpsChys8rjxYkLnljcW45Lm5cl1K1w8Ld5GGppurvjDCxMAwy3MF6WoXP2t+lb/OGGpNd6MZ9bUvoYHx9JbVdEHA03vdhfzL+jwJDYxmjueX0tNw0VFdMHFUe+mRGEwC7qv/GYFB3ZIQT8IoCxVZlD5vOa2vOkRLM4gnob7/+zaH0zgq1a12lDcJoPmlNS5CA+PJLxYWFv9GgvpY7b8T7l6fMChLlvvx6Y4ZJChwRc4z1nlp5pXHdEdaUhR25Ffi3d82y8Q0nmHP+wfIBEgqp1ktLT4SJx/cEWP6pksX8xezcqQLmIc4eIkld3c/89VafLdgB4Z0TUX/7GSpCJZuKZZNeHicnE9l7NUhATvJLh6b5vcnje4gqzp4G2bu2mZBhd2blRyNPzcUYo22bNHinwlP3G2ki9MVC5osFsRFheNQElpHk5B6SP8MnH1oZxly4Z4Gfs9LLPl48B8XkfBHsJqveR8WFhYWnrAEBy+YBQc+yrp3h0SM6ZeBIwa3wTiq8NNIkODtee96Z7lsYMTsyKuU0xK7tImTcfRxAzJx+JAsGYPmsfYZK3Lx+aztImDoggOP9X8zJ0fGtncXVsoQBu+YyMeCr99dhl35FbIvRKeMOIzqnY5jhreTnQmH90yRDaZ4DHr9jlKpPHTBYdH6AqzZYQkO/0y45a/mMPAR3Ot3lWD8gCy1sofgdMvnoHA6MC9LZbburZBJvmWUbvVhCwsLC4umYgkOXjALDt8v2CUTJNMSooEQu4z/rqOKmVdXrDdV0HX1dizZVCgtOV5GGGILkYmOu/Kr8NWc7TLTXT+TgSfEdWsbJ0dyz1yVSwJEvVQEoSRg8PyJlPgoMYu7jZduLkB8bIQskYskd/EWwTxT/pXv18tyS65KZAIiCRzchb1oY6FsSGTxT4SEBhsPb6j5EbsLqrBhVxnapEbLBEye02Dj8S+TYMAbVf1JwuSjn63CPhKCnYUGS4CwsLBoGtbkSC+YJ0fyMrvPZmwjISIKMZHhIgxwAcy9BYxqAzrDgkESVfY8B6KwrBYllXVyr8O9BXy4Fc+35E2P9O2WI8JDkEoVAD9xgc928T23KDOSopEYEy7r83NLqlFRzfMflM18NkJSXISsxODloxWmzYgs/slw6rCRoBmJ3h3j0b9zCtIp7fFmodW1jTK8tWJrEQm45ahr8JYmOA2p9GdhYWHhD0tw8IKz4LARH0/bpr1hVGFthseKzXMGPRXFSo/6Vr1X97pprMpqPH7t62RH81fOjUtlCh807VCy+IfD6UBNplVLMFXMc1oLoVf8VqUUCwsLi9bBWlVhggtYcxGrnglTT4HCvRh2reddv2CUHq1gl7/qXjdNn8Pv7zho81dOvc7yvSU0/Lvg2OZ45xUYRsxzEtJTkZUeLCwsWhNLcDChClhV3Mr6ea1A1kteNdSgF8cWFhYWFhb/PqyhCi9w4403YOJjsStq6mS8WFpx0qrjINN/LSwsLCws/j1YPQ5e4M6F0kreEIcnQaqVEGrNuy4sWEKDhYWFhcW/D0tw8IISEhjHjYWFhYWFxb8eS3BwQe9HME9ktLCwsLCwsFD8wwQHvaJvfoXv/KU1HGFhYWFhYWHmHyI4OM87UKshfGH1JFhYWFhYWDSHoBYceDfEzKQo2UbXwFOl7ywquJ83aDyrO6snwcLCwsLCojkE9VkVkRGhuPyYHlizvdixvbMZ2WuBhItubeIxqk866uqB2KhQjBuQge7tE1FaUYeD+6QhOT5SBJBh3dPQNi1WzoTQz4ywsLCwsLCwCJyg7nGYMDAL/Tsny+l/5nMedPSd8np3SMDQbqk4c1wndEiPR9c2idiVX4nDB2ehbUosCQ2RaKDPjxzaFuWVfC6EJTRYWFhYWFg0h6ATHHT5IC0hEhNHdpD7o6jCz0yO9jhIocOHSkWFK++0T4tGh9QYOTWwXXoMcotrsSuvErX1jdi8t0J+LSwsLCwsLJpO0AkO3InAPQmHD26DmMhQkSSiI8Nx7EHtRN3YX8GMDfPX5aOoog79Oidj+eZC/LRoF5ZuKcR383bi0mO6ybHDotOzARYWFhYWFhYBEGSCg6rUM5KiMKhritwrpUYMIIGgfXqMtr+CC6TYtU2cbBFdWlmD7Kw4HEeCxtBuKRjeMwWFpTWoqdN6GTwaYGFhYWFhYREIQXlWRXhICGJICNCmMBAh4CODK6vrUedhUiMfgc0TKe2NjSQg2BEVGSY9FTyhMjoiBDwyUVlTj7ioMJRX1aPRw3wJCwsLCwsLC/8EjeDAjjAGEfhOOUvdGc8Gzl94xvydJzMsLCwsLCwsmkLQDFU4iwBGBa/EA6OXQenjv85fuGN+z6ZYQoOFhYWFhUVLCbrJkZ4wb+ikqv9AhACzsOBPyLCwsLCwsLAIhANCcLCwsLCwsLAIDizBwcLCwsLCwiJgLMHBwsLCwsLCImAswcHCwsLCwsIiYA44wYGnOfKpmXxipvliNQsLCwsLC4v9S1BuAGVGHGe3IzwsBJ0z42RL6d4dE5CRFIn4qDB6aUN5dR32FVdjbU4JVm8rwdZ95ajnU63ka+dlmbxCwxIxPMGh4ikpeFNvOq1nkitmk404N1RbbjOnGk49+hOb13JTveNuA//yc+uyP/3QuphdqsIhLBRIT4xCVnI0oiPDEEFlRG19AyqqG5BbXIN9RZUeN3vb/6F64GOEizm0WhM91HWbVO5qjbhQpnlzd2vZ4glvdrYcZ1frd652tcT+pn0bvIKDI6RYaAjFGWM7YUTPVCTGRrCihqaJt5G2q4K9tKIWC9YV4otZOaihQkQFse5F7mDRDdbVLMzwUR7Grtz/tHBqiX/0tPP3hAfbqtIy3TvFUUsxm3wgoOKwQ3ocThjZDtlt4qUBERYagtBQGxrrG1FLjYaK6nps2l2KyfN3YFd+lWkXWkaZof5a+GZ/hxWbzPv08O/+469I5XIMElkkP/Rn/51uEEJ2NLrEh2b5X0RQ9zhwUGQkR+G6iT3RMSPWoWbXBAUFO99oDerBt21fBV6avB75pTWizqjPlH4Ld/Z3yJjN/ytiQWXeltkkX5IRjuTmgBXY7NZHudi/u5vTf2b2j38bggl2qR0xkWGYMCgLpxzcASEhXIAy7kKdnTxoo7xeR4LEV7NzMH3lPlTV1NMbZY6FPzhM3bf333+0TmrUTbBiODA4vJojtgW14BAbFY7rTughQxNOBaQuOMgve1oVs2a4UF2XU4o3f92E/BJdeGAzgta7fzt2qmTDqNXGw0HZmfFUMCv1piYqZ2yorK7Dsq1F2FNYJc8cB+mJkRjcNQVx0eGarhZAHzfYG5GzrxKrt5egpq5BlHnuy7AeqchKiaJ7qmQctX/z00BZVb2cuppbXE3WKr90pVZvj/aJci5Ki/yhUUctZh5uW7WtSCpAtiMhJhzDuqUiMT5CinRGzwIB4/A+t1caUVBai0Ub8lFZw0VH8OeL6MhQXHh4NxzUM1XSps0ICbpUOBm/+p2NhIcGzF2bh/embEZDI7/T9Vn4Qg8lPgsohdKdzcbhrcLWHM7umN+Z7rWfgrIaOUfIDPcIpSVEISJcj1NSI/126Spqmj38XTWVAeZGo8KOxJhIxMXwEDfTNLO5EWLnNKdlugbKpwVltZK+zERSOZAWH6U+E5pmjyullXUoo0uh9HDZlhIfSeEVKs+CW4HgzWzjXoUxUFtPfimtRqPkD/8EreDAGf6qY7thdJ80emKP+sc13Diaf1+8Fx9O26qpWHhDT0oTR7bHDSf2kowcWKh7RqKB/shR6JTh9hVV45Ln50mBkRwTgTdvGomkWC6MRHurwBXu6z9uwtdzt9FTCO46sy/GD8ykSkZZ0hyr9OSkf8sdGKu2F+PBj1agkAqNYd1TMen8AYjiDEyaWsM7bCe3lJ/7eh1+W7KbBOgw3EF+GdUr3WSHw0Xab1NQPXTsl6Wbi3Dfe8ukoA1muKC89vieGEqCYKBwCOmhw78zV+7FW79uVmHYnGD7F3LcQe1x9cRuCA8NRQiFGZexzUWCnP5w2L/y8wZ8O2eHqGWmROOh8weiU0Y8lQct7eXgCl515G+lhsSdby9BUXmtzH+5+IiuOHlMR2jFQTOwk7kUDmw6Zx4qvLhCv+/dZVi9s0xy1ZBuKbjjjH5IjAt35NCWUktlwUd/bMUnM7hcsyOC4uLJy4agd6dEFztY6Gpm+JF3lmwuxMMfr0R5NffM+cYQ74KMwV1SMLqvN6GBk5s7emHAhSJ/x/+44uicFadeWHhFhRhwyZFdHatUuNJv7sXfc4VNP/LbJjUKJ49uL3YcO7yNSMvqvYpf1++bc3HhcPLodmwaOmZEY0j3FBn7FreQNZ6+8Xepb03PZFDfTkno1jZBwml0n3TpPmd1/2EWmBvYHPbLIX3TEU2tvTZUsA7snOJiB5vV3HCjOKE/7P7e7RPQt3OixEEwM5KEpr6dk7zkfIX5HXnRqQjl57H9szC6dzrd85OFP7IzY3HBYdmIiQgnwYHyUahN8lNzLzaDJ7mHhYfglIM7okNGrKTpE0e1l1678DCe8Boi6dL126ZcoWQHz4vr0SYOp5I9nNa70P3EUR0kXxl6dXsCtS+UKm3lRjaf/cPl2J3nDHBM1P/PSb2Qmhgh79y/93d5dgeXL5ce3Y38EC92XE8NuwFdksWOUCe9ym3NuihchvdMwzHDO0jc+yPoBAeW5DhxHdKPhAZNvPWa0UU6peLCRUpV+lUxwmadSVKmwlexY8EVivPk06biK3xtMvudSXCxgyszzxjm8V0gsZfMXYREdHioFEDSMhB822Ho8w+by70lXOjxbH5/GCZ7c4M7HCYx0eGSqbmA4O5PncBd6h+eUBgXqYaLghUeZuJ5DdxlbuBedJlDl8PILbRJcfyALMRFm7uqLbyRmhCFqEgjzL3nUzPuqdNZRT1xhRtP8cBpOysxWsoencDs8YbpW8qfWSkxlIdsyEiKpgo41CWf6/ctSwcJ5I/UhEipxNunxXgKggDx7g4ua3p0SJD73iRA67TM5c7wUEzfjoE1IoJOcOBEw5HQjiNAQ/Ug6PC9DSXltXjv16148ovVqKnzHlP8bdf28SQFcoXSmsH8z6PpoeMc7jy8FAiB22Po5LsmuU8rfPwXQvSeMoytsZ4HLTU1V595JxA3uekRwwO1QccwRe6a+rkPgrMFbniwQ3oUurWN52gyubTRKUR43Pze95bj3SlbtHkM7vAYfXZWHLKoEtGxhiw8wxUsZx3nlKE30HwFmmtaMscTf6meuOLhngBRcf2kFbGFaOZrEe1cHmjVn4t37HV1aCyvgL1Gn1fgBzKS6nUyzZMdrQe1gcWt/psqBr5iyg1yd1hIYEMdQSc4MAnU0kqMMY0RmXK3fldeU4+1O0tl9YT30FEvOIG2SVYtUQtfNC3BN+zai8aiYroLLHk6hH1/GauWMm5pOVDvPNZmr64h9VI0VlCca3izWWVe//6pXbgIZS+9hpIHnkDpQ0+i4p0P0bBtm0jf+wN7VTXsZWV0F0hYm93g4h76nM1qLCmBvZTMMwk9Amlv2LsPtavWonFfrtbS8uwn14VdwYFRNB06oI38Oicb04Roulm6qRC7CiowrEeK9AjpOIdyIyLDQ9BTa7nxhy0Zs/8nY+QfcwCFSH6vnf8naufMR8OOXZq6gpNYfc4OVH3/C6qnTEVjYSGpOlcxumkcd3w1RWjNycnBd999h2+++RpbtmzR0rRvlOlki68yx/Sqbs06lD34BEr+eztK7nkANbPmibp/mxT+hIZZs2Zh5syZdM3Qfo1r7ry5qK2t1XR6gsz2bbwL5GoqM2tmzJaywjuG7xpMeccXQSY48IQtu4zrRkWEGd4x5W49obVNjcaRQ6lAoVaE98zPunlcGGRmU+S0fyl+Er0rZW+9h9p5C+hOfde0r71TPX0m8o86ATVzFziEjYbiYhScdg7yj5gomVunuXbaKYOW3HoPCi+5BuXP/x8qP/wUle99hPJHnkb+OZei+pffNZ2tS9kzL6LghDOkVdMSGkj4KLn5TuSNPxYFZ16A+s1btDfkNwq0qu9/RP7JZ6Hw7IuQd9LZqP7+J8pPRmjpeYt/g7PyNAqzPh2TtTtXlMNrahuxbEuRFNrFZXWwm3ocjDuD9mlqabdF06n4+HMUXnotCq+4HtU//UoBTCGsZdK6VatQeNbFKL3lLpRcfxsKz70UjSIkm/EUI/6ZPn06jjnmKFx33TW44T834Pjjj8XkyZO1t95Rq5ICo37zVhSeczEqv/kODST0VP/6O4puuNkpb7WUiy66EBdeeD5dF2i/6rrggvPw4QfvIzzc/7Bh4F6yoW7xUhT/5zaUv/OBpuYJw0Bj5ZlvgkxwYOeQw/k/T+H1gN5yYoGAx67k3ltalBdqoCNAQcoiQBrz8lDz7Q/SQre79Ay0FOkqLC6RHgeWZRp27kLxdbdID0fcjdcjYvgQTWczoPRjr6pE2SNPoYoKiOgjJyDt64/QZssqZKycj8SXnkJoZgaKb7uHhIc/tI9ajp5E2e6G0lItHTcfe0GRJGpbXCwaS8tgN/U41M6aj9K7HkR4djbirrkc4Z06ouTO+1Hzm+EfPTvwb7B316ckmOfE6C5XeZvZV1qFLXvKZTLfZzO3YlVOKam6Z3g9yKNMS/50Myw8YYSxTlj79og99yxKx1WG8EuZtCFnJ4ouuhohyUlIeOYRxN19s/QOFp1/uaRPA/d48ddKX7Z8mVSuHTp0wHPPPYdXXnkFffr0xTXXXoUpU6ZourwRaPySsP3pV0BVDZKeeAhpX32E1A/fQkhMLEqffN6Dq5vHnXfeibvuuoeuu+X35ptvRXR0NFJSUvDAAw/6DIumlRl2NGzLQcld9yO8R3fEXX5xQEERqB1BJThw56PatIUuL/MWVLg2MRrJKF7eZuGPwBIN6yp9+gWq3ItRt2Q5ambMUi9aCU4DKjXQv9JylNz7MNmzDAn3UCY75QR604JsTAmodvlqEhp+QPRZpyL+wXsRPnCAvAqhSjjq6COQ+PQjCOtMle2kR1C3PYfeeEmL2m8gGHrVXQt8ILD7kl56FhFjRtGT4b7GsnKUPkbCT1YWEh6+F3FXX4aExyYhJC0VZS+9gcZCEjhcaKlb9ivkNee15e5xwTtE8hb0V0/sKfOjcnLVUJZbISj7EDibYO6FsfBP9InHIuqEY7UnDQrnivc/FqE47vqrEH3c0Yg55wxEn3kaaleuRs3UGZrG5vHd5Mmorq7GHXfchVNPPR3HHzcR999/PyIiIvHFF59T+8J/w8W/cGxTQyvhYQjr3UPSSGibTLnsu/YpLX7wJwAxl112OS6/nK8r5DcyMhKVFG7//e+NSE/P0HT5JhBBv4HyeSmVm43VNYi75XrYtOXiBgEY4oOgEhzYK5zXK6rrUFZdK/40/Krf+Y8cB1rY8E9huetmIBbNggKzYf0mVH31PcL79kYIZayK/70q8xICxV8G4+5F3qDIXlSCgvMvQ+2iJUh86mFEn3oSbBEtWfWhqJr8A69bQvydtyAk1piEq6et8K5dEHPaSdSqL0TdrLkOdYZXcms3QUndmjVo3L0H4SOHIqxLtlSeYZ07IXLcGCoAd6N+4yZNp0ETenP/esht+4p54zADFfSGo6MjQ1BZXY+amkb6bUBURAj5u1FLZ3w5f6F2kFQYpli4IYHjP4R4OKJuxRrYqHUeyYIshbstNBRRR06QYaO6xcspCpqfYUpKVA9d27Zt5Vm/5+WRZeVlfgQHf+433BU+dDDsVI5xo8LOQxVz5qFu/UZETjxK0+Gd5vhu48aNePLJxzFw4CAcd9zxmmpLIZdQmFd98hVq5i+gMnMiwnr1FDUDvm9Zyg8qwYHhzM47fuUV14r3DO+aPe6CVxFMBQ5v1LOrgAsfH2ZYBIS9oV5VvI2NiLvxWkROGI/6rTmUSBdqOloO779oq29A2ZPPo37tOiTcebMUQjqBdqd5xo765asQ3rOHEkK8CDHh/ftK979MADPZZwu+LEMoP3C4NO7Nlfkb4X16iZpUnvQ/YsggNFZWoiEvX9SdCPJssXyL3kui/GnEmLrr2zEZaYmReOjTFUiKC0efjolatOo69V8l9G3dWxH0wzPBQKBhZC+vQGNFOUKzMmToTCcsu7OEfENhgUxsbi5dSZDndPz555+hvLxcJhB+9dVX0gsxiCrdqCj/E9+9N1YM9ahjjyQ3d0T5K28g76iTUHrLPeSnTMRccE7r5hEyi93+1ltvoqqqCtdfdwNSU5uwsZlXvzA2aWhVvPO+lF9VH36BwlPPRdn/vQl7pT6p3Nf3gfG3l4KevFBBLYKV23i2vhl3nQf1TMOD5w9EBO984YNf/tyjDVW0PMD+yfhOkIrG3DxUT5uBiAH9EDX2EMRedI50j1f/Po3HgzRdLUNawFxp5+XRDVXVycmwhUdI3uXKkd2pZq40HZEBqKUC2apV+VcEEVfjwngyLaUZmTtghEvzbHUmUMGnqXZJuFCLyU5CHZWmmqoyhYdh0Eh+0VpnreGP/Y8K9+krcqXB5BxufK+e42PCce3EXnjogkG44aRe2n4h/K2hh+F0xSfpbtxVovWymM2zaDaU3mx8uVTgtshIdVNXq9Keiabk37PPPoeEh654/Y3XcOih4zB+/Dg89vhjiI6JwUUXXazp8kZg9rCuyk++QD01FKImjEPSs48i+qxT0LB7Dyrf/sBcBLQcMmv9+vX48ssvcMEFF5GfDtVetJxGEqyK/nsLlVuNiL/1v+SPJxBCQknFC/+Hinc/arUk/7cLDs7+0J7oZ9ryfdhTyEtIdB306yIC8za/aQmRFA/evbFpdzmmrdyjPVk0HecsXj1rDuo3bELksYejdsUqmcQYPrAvaqdMQ0NBgabLMwHWl4KNKu6Ys06HLT4OZZTo2U7Ju1w5kkHe5jkYlQv/ulvIlWtY186o37SVJPAq0cJqld9MRsFp56P8iedlUlftkmWUO0IR0jaLNGgfEy0tP9h5LZqj4YbmR6oJJVwiwmELCYG9xnw+C72mClPG+FloIlrTBfsP5bf8kiqs2FLIUe9QMxddrMzbcnNZEBdF/lca3eDiY+OuMuSVcLnCeg6MUAh6eCVAeJiaP8NCqwbPgeIgtsXF03svQ4wBREEyNRymTp2OSy+5DOnp6cjJ2S7DFK+/9gYyMzM1Xb7Q04x37CWU52fMhi0mComPP4BIahTF33yDzH+qfOk1Eshbb6i7rKwMd955O9q0bYtbb72VsqTvhm9TqJk1F/Z9BYi57CLEXnkJIg4bi8QXn6QMEoOaOQtUnLQCf7vg4IyRiniew+s/bURROY+de0hdTkKE54RRXFErJ+PZJS37TzwWnjCqOe5urHzlbbqxkwT7KgrPv4yuK1C/eq3sGVD16ZeazlaAMlPU4eOR9OTDaNyXh5K7JsGen6/c4qViCJSokyZSBipF2dMvOFaE8ISuyAljUf7uByi++S5UfvQ5bLGxiBw/Vipk59Zu82Gn25q6NJi969XLevyonphQKkhtEZGoW71GVBl2e+2fi2Q+R0hGeqv55a+C3Tt12T6UV3Fc6QFhVFDuGP4zBxs1wjBlMbUga7j1q+uxygVvqF4Z/4QkJSEkLU0mF9bn7CQVFaZ1y1fRX0qT7drAxvtJtwCeRHjfffdj4sQTEBERgYsvvgRjDxmnvW0JWvxzrwjP0yKzbfG8tTO5PDKKhJ4YNJDQ0Fjtax8EhTeB1Qyn5TfffAOrVq8WQSgxMfDt3gPJt9xDwmVneI9u0oCQMoHyfER2tqyEaa1e4SATHAw4jLbsLcOnM7ajuqaOEjEpcLjRC5WgtUjiH/OW06yPrkaSfD+fuQNrckr0F9qvRVPgxCoJlv5Xff41GvbsQez5ZyPhkfuQ+PD9SHzkXvq9F+GDB6D81bc8ztrXCbQgYnS9XJnHXnUp6lasQskt98BeyadSMpwY3PGs6kzkiGGIOmo8CQefoOTuSeJm3lUw9tKLEH3ycaj5YzrqN21B4v13IqwLj9PSP5dCQe+HCaCsUEgYUrrcsxe2hIQmfKjjXb+4hF5zPIX36yO9NHWLlqF+p9qgh4eXambOQUh6GiK6U4EidgcSUkECuXf51kJMX7HXscLCeyHKfjOKtUYt2Ljx8MnUzVi13Zw++aWmwcIN7z1jFJjm8I8IR8QR42GvqETVz7+KhMa9eVVffw9bWAgixh4scehOYGmQ45rT7NJlS/Ha66+gS5euuO666+VMCn8YNnjzi1Ln4dCQzh2pcVKEyk+/kkq2Zu581C1chPBBAxGa4L+Cd2rLemHt2jX4+OOP0KN7D5xxxhngo+Fbk7CuJCBQY4g3tuO5TjzUWrd5K2pWrkJoerrTHBTPBJYfglZw0NPZgnX5ePO3Ldiyu1xNDKUXEkGccNUN/efNPll4YIEB2Ex6X/huPeasziU1i5bAGZYvbk1UfPoFtR7aUQV7IaKp1R598vHq9/TTEHXqiTK2XvnxZypuWghHrZhCdsecdSqijjsK1fP/RPnrb9ILjmvPCdx5YMWzHlt0NOJvvxnRZ5+OmqkzkXfkiSg46wLkn3A6qr6YLBK6jVrndctWkb9Vd6uief6qXbsOFa+9g3LeMGvhEkQMG0qtgQBaYAFbpxwocUUFQ/yt/xEBpezxZ1H51WSUPfQkGvPzRTCypfBmSmyw57AJZr6ak4MfFu6UHgMl/OiYA4rvOX0oOB1Vkf6v5m3HlGUktGnfBRy0Fk6o/EVhaAp+DtLYEyeKgFD51vsovf8RFN9yJ2qmz0DsxRcgcuhgTacr5jj0DscZTyZ85umnEBYajpdeegkJLHy3EpIWqJUee83liDhoKMoefQq5ow9H8TU3IjS7M5KffsR/egmwzHv//fdllciTTz6FmBjziq7AcUr6LkSOHinlctUX38oGd9yrWnz1fxGSlChLZG0xxnbrngi06A5awUGHpc2F63Lx4uT1+HT6dpRW8dCFlni5WcqXjfdD59UYtaLnhW/XY/kmblkEGAoWgvf02CjSd+O2HEQdfxRC27fX1BVcmEQfMQEh1NKt5rkOe1lg8x72PtK9E7q+kMREJEy6W+ZSVL7xHiq/+UHUfcWuVBA+LOLZ0on334WU999A3GUXIqxbV4QPG4SExx9A6qfvIf62/6JhX65sreu2nXMT4THS0qeeR/ljzyK0a2fEXnI+OSDQUPCNauU4h0T08Ucj/t7bZGvg0rsmye6e8fffiaiTeP0961V2+wq/YIMLNO5t+G7eTrz1y2aUVZq7XHmyrDvsy9ySKrzy/XqZIG3mwAuB4IDLWVt0DML79RUB26FKFVLSU48g5szTUD1jLuo3bEbcrTci7qbrKQO3vJrhHuQGyocPPPAQevfuo6kGjtobxjN6Tgzr1gVJLz2DlHdfQ8JdtyD59f8hha7Q7E5aPmsZXJfl5uXh6quvxpAhLdjEzuFid3ilWOKD98jeDQ3rNqBq8o+y50vqR28g8hDe86V1sB16228HUO7hLqtQ9O6YgLYp0bIDHE+Tq65rwJ6CSpn4VEOJSyVT74Fr4Rk+qe7XRw/TngJD70YMhK/n5uAlEgCvPb4nTj1EP7HUH5w8tYl/TvYodVfKSLA8cdJ0SiOJePTiwXLmyf7gsU9XYcbKfbj51D44Yog6S8Eb3BPTsHU7bLV1COmpxh4DYcmmQjzw4Qq0T4/B81cNp/hpSpq2o4FaNo05OxHSoZ0IX57iqaq2AY9/tgqzVh0YvXN6rEdQ3j92WHsM7paExNhIksOo8gqxoZHSSX1Do8yH+HNDPqYs2YvqWl3I4C9VcWfjXkoZ4jTULJw5qEcq7jlngOk0UQ94zoZ+4XR325tLsHlPGe44ox/G9ve/+VF9fb107XM6DrTMmbp8L576YjUO7puBe87ur6m60Ew/6HCZ85+X/8Tewhr89IjvFRJ1dVQGkB+aMyHy6a9W46eFu/H+LWOoTPDdc9BcZq7Mw6QPl2lP3gn6HgcDjlmuQBqxZnsxpizdgx8W7sKPC3fiD7rnuQx1VGDwHgCsrwXpwKIJGBlYL3xdC+GWFsrKfGWN2azmxrBn97BgEgjOQyGBwYICjz2G9u4RsNDQdMhdDqfxjQ2hJCyE9euD0KSkgAvaYIZ9oPuC57F9Oy8HT36xBs99vVZ6JF+avA4vfrsWz9PzYyQMfT9/p0loMODQUUKDhU8CSTOixXOecFc1VOSuiUkyLCysWXMClK2e3Sh48IO9slK7awIB+IfPomjNVRR/FweQ4MColqe6o8j1Udj7SCYWzcIcoureXk+lN3fjy6Oea1xzTwC5yRcUx/YaPjGOzfFgVpMj2tkMXRCQrkiujfzgLJLyU+D+41UpvIFWc/BvC+mg/+wf3uhJx1Vg8BRcTQ7Cvwndnewju10NH1VU12PbvjJs2FWMdTtLsGl3GbbnVqDSg8Cgm+A/RCwYCSfnwDJwCjbPmsyqnkJep6lCbXOEYP/fmN5TmVP20GPaQ+AEV3PVJV37fmwyQSw4OHtNVlWQmjrDnfHdRW7o0mlJpLIpzf3e03euasGR5HxnLn6n4oCHh5iqz79F3Zq18so5tlqIybDqX6ag+sdftCcPuDpZ5r3wr3b5QUKeCora5StQ+flXcN6a1TvcJe6Kty91AZdnmVd99Z3cB4oR2gFSUYXiG27Tjjt3x5NZrTF++9egXM/ONdKqKgfMaZdvPfnJUDLpNaka6O8Nfe6Y3/nSd+AiIeMpHCU9Gy904dsXruEsIaYp+e/t4/d2meOwc+dOrFu/DhUVgfYIBGK2MzXzFqLql6mo+uZ7TcUPZITk0ib2Yi1atAhr11L5GSD6SZ++5msYb1zSpO9HB/7jQhHEgoOz19Rxnyr5qTfm9+7BoHtff8NfqnvDBN/oJuj69WfvKOHGHf+2OWc9LX0EIewwJeQ0lpSg/P9eR9WXqiJUTvYfRoJPAYWg12wSV34lDz9OgsOvLifsKbzaRt9L5eHHGs4kctU3oPThJ1FJBQXvvCbv5G/TMKxz/7ohNw8VH3+Gyg8/QyOfbOkJj5b68YQJ9kv1jNmonbsQlZ98pqkyzfFNsMHh4MkfgYcP61S6dXO4VFDdxqzimu8MXZ5sZhX9A/e3/1Q4jXGoyZ4uH3yC4pvvRNXHX8oyaQ4GzrN86mzlJ59rk6R1XEUHA3/5VIWzDe+++y7OOfdsnH/+ebj22qtRVOR96beBX8OdsNfUyfH6vCFUxdvvo2Hnbu1N68FhWFFRgTfeeB3XXXctKpszLOKNyipZFl98x32yE6baw4j9VUMNF4oXahw15PveqC8QDqChCk52Kuk5J0DP2ZoxJxn9ayU+eNZvxugDCDzheT7L3JM8rmLTm8nB3gK0V1Wj+MY75DAlrghr/lxMiuzowMLKVZeKFxP8UFuH8v+9iobd+1A9kypDOWxKR30ReMx4hlupvJ97xevvyCmffHHmYr80x2zDD85f81PVl9+gfv1Gujag6oefxA43XCz1oMMnfChXFR9zXl0ly0r5gB4upHSDm2peMOFe7ejPvn3lGo/uMWvkRc53yjT1V9mp8q/rV/ysv9Hzq7Me1y8OUFy8oXp2bCh7+CmU3PewtMpL739Ylho3UkVedOUNsoEaH+teeM5FsBfzEeeKloTIli1bcP+ke7F+3Tps374NP//8E26//TbtbUswuYoaEBXvf4DqKVMpVdhRt2Y9Kr/4miJapYPWgntOJk/+Fj/88D1WrVqJxx9/DDWOnV6bD5fLvC9N2RPPouqzr+n+AZQ/8TTqt25FwWEnoPiWu1Fyx/3IP+ks1G1wP+yuKRwAgoO/5KZHKOszIpcrfn5y/dp45vfuxZGOp+qelbzp94rTB5oBmoDh0Y4gh89CqHj3Q9TOmKNGBezUWqcChM/j91gZmlCVGOEiGXFomOOJza35fSqqvv2B1OlB6xGoW7de0+H6RRMxWV83709Uvv+xw03lTz2Pmjnz5N43nHX4G8MwlZrcuytrZs9DxVsfyDkR9joKv7fep8y8TXvrH5Nz3dDfcYui9IlnULN4qXiFd/CreONdLZSUrhaE2N+O7k93P+hpwbNP9e8MzCqUA/UmGWGYYsKRV53hZ/2N3tPorOdAzN3OuIWFBu9tIhWq1lXAPXac1kqffB51fy5RavSqfluOCBTOaGHVxMD56acfUKfNQdIbdT+SWmsgTmloRNXk71H+9P8k/4gNlDYq3/0IlV9PpgdvoWFgNDa9wwLC22+/hbvuutNxqudHH32IV159We5bQsPOXahdskLudZdUfTUZJbfei7rdu/Wgh33vPipfpzc9EkwEreBw11n98d2kQ/H9pPH48p5xsuwtPlotrYuOCMUFh3XB53cfgs/uGotLj+6Gkb1S8e7No/HGf0ehU2YcendKwMd3HoL3bjkYH98+Bp/eMQYnje5AX3OQ2vHclUNF7djhbY0KzURCdBQ+ou/YDfp11vguuPq4HvjkjkNwFf3qnD+hi7x/7OJB8nxwn3R6Ho+Xrz9IrMtMisYjFw7E1/eOxwe3HozDZfmeDU9cOgTf3j8eE0eofRHev3W0mNO3Y5I8ByN1VDGVv/a2FLh6/V+/fhOpvenYvtkv+oca6klXs6Nx23aUUItF3+uer4Z9+5Saj50pA6VRs5+PAy69/yE5TEvvLeId78ofe05OxXR2pRfUZxr84Jyl6tauQ9FVN0hrjF+z1Wx20UXXypkYTmkvIAudYRu516T8xddQ/TUXpFyR8U8jqknw4o2nWlA+BA2pCZGYeFA7nHJwR3RrE0/+Zk/yxbAHWQjQ+xO8e9g1r/OOoZ0yYjGwSyJiotSwRWxUOI5ju6i8yEhWBzexuXzq5oDOvEIlBEmxERiQnYSubXl7Yt0dznhW/QdAYSgTo3XIo/ayUlR++Y0uZwmc1hvzXLvFdQ1NS5Rdu3bX7gzatXPeT8YjAVjDLqrhPU8efUYEe4cf7CFSRpTcOQnVf1BF20I47X3xxRd49LFH5VRMHT7x86knn8Q999wlvRHNRYRgutjL0igm+xpIyKtdyssrSZUiRN7xzp4VFfwBf9YsglZwiI4IkfXDdY2NiOQ128Pb4bJjukkknzGuM849LBsp8ZF0ReDcQ7MxcWR7apjapRDoT5l7woAsZCVFISTEhqyUaCoAojGiJ29YQoFFKSM9IQqZVCjERIZSQWBK7Tq2Rjkwh93A63QLSmtQWVOHxNhwKUz0/QE46HlNOeuLiVLrncNCbfQcTn4IQ1hYKK45vgdG9s6Q92lJkbjkqK6inwWgOFIL07ZO5YN6WD2U3Px34NPWRjtqZs1B0bU3yfgfozIYJ1CS1r/4FhVvvm86XMkHLulV2Ut/Sb1u+UoUnHcZVaolUvCYqVuxEmXPvijjqwbOmlwrBk9waPOW0gWnnSetIgfsBLpq165F6dPPw+5hXkVgKDfUrd8gu7eBx3815A15rH7HDpTe+xDsxfqW6IQKCAPxi6oMXV/psH+rPv4ClR98LPHAcLjxZW9skPCq/u5HklZYqFPucoL1abfBgCd/plFefZKE7BtP7Y1rT+iJZ68cJnnw63vHYuoTRziua47vJSfm6s+/PnIYnie9PTuoXQbZ7LvPHoCfHmL1oQihfMpBfMHhXaghcRC6ZiWgS1YcXiGBnxsq153YC+/fMgqHDsySSdmTzuuPJy8bKgerDuyajGeuGIabT+mDu87u7+SOHx88FO1TeWtfb7F24ODuAztC0lIQOXyo9kxwpqHw4RMyjcREYRsRjpiTj9eefeE9Bc6dOxf33Xcfpk2fivgEdYaETscOHXHHHbfh408+lsrXK34SOHfbl9x2t9Eo0fXr+3xQg6jssWdQv9lLLyFp8WOFMGXKb7j//vtQ5WFOQz0JYu+88w5efuX/HD0RrriWh67whly82ZOqz7jcYIfRR/q+6wTfhcREI6xfb7ppfvUftIIDw37mw20mfbQCNXUNGNM3QwLleGoN8GY4fAjWe1M2kZRmR68OidhVUEWVLjC6dzrGDciUpVrllSQZkzlcpg7onEhCCOX6ACNa5/9+WI973luG6SvU7nPmaDDuDfR2D0MyBfqRvRyXk+fuxIMfrcQzX69BOQkj3rq2PM+V+AvwYW3dylUovechNBYbLX5VQakEyq3esudekmEMjjjnCtw1tA2LnHSRsFD64ONo2L3Xcybh7sQvJksmNmh6WDUWkT2PU0GwcbOmQna7GMMTMktvvRd2j8v6/EHhUVuDktvvk3FSKmpFjS/5q1lW/csfKH/lTZewaho1U6ai7JkX0VCmF5zOqYpbhqUUXrWr1tGTiyc1vKXDvwNzSChX2aQ3MZsqdD7p9vEvVuOLWdtRUFKDX5fsxp7CKiknVm0rxuocI23uK6rC6u0llPeScNmR3aTxwWb3z05EFDVK2qTGoA01JniGuu77UCpTjhrWFu3oXc6+CsxcmUuNgjApd6JIyGd093G6Z3t5N8ulGwvx5wbVss7JrcBPf+5CBZ+vY/bMgYjHZMHClh1xN10nh8BxgLA2VRYoHSqQ7HJIXfjwIfKsv/KM5/Q3b95cXHHl5XjttVfw3rvvosxFkJ81a6ZUtrfdegsJF/f6bq1LZeoZ3vXSlsjnx6hn1S7X0CIxJDXFabtmJ//Qg3fTFYWFhbjllptJwPHWGLGhjgSGD95/H3l5eZqaM7q7PDZ0Cd7kLfrUE7UngrV50MonfkaOGa09NY+gFhwYbu2v2lqM6toGOUa7f5cE6bYsKqvH5zO305WD0qp66TqcuyaXAt+OYT1SpDdiZ34lKqjg56Vz+0qqEE0t+r6dEp0jPQDG9c+Qyr+iyjVhOpukZxzKWuqXFBqoYMkvVS3k8QNVAbR6W4no4IsTwZi+6TIEwj0UjLfVGX8b5JzQzp0Qkt2JHvQkQ8mYEqXjECG6QhLiEKkdaOOcuF1Tr/Hs9CYmBuFDB8HOLUF6YRbABDY3NgZRp56gKRBeg8rVTgPeGjuCMg8f3e0NW2Qkok463v0kS80+f5U9n1AZddih6lRAG6cb1m+X8GK/yZ6ncbGUgUdpYeXbPG/w3vRhfPpgCIWNGGHYoQhBePfuCOvQTnt2pyWCy/5EuYp3glSVNFf2dbV2fDk7B/XUun3tx43YsofPsGmUY/i5omf97J8duZV46bt1KCqvlR7HFCoz2qZGIyMxSoR27u3TewV033PPX3ZmHCczfDZzG577Zg2e+Hw1nvpyDapqSICUdG2X8icuJkL01Tc24OdFu/DTQj4VEiKs/N/3G8Reyh2i9k+Cw5bTa/jgQYg581RKXmFSXkl+5TRHF/+EtslC7OWX0HsqLzQ1d3ynu3feeRt5uf53NOXdGH/48Qds3bZVU2kaoe3aIunpxxDWSe1m6yi77Ox2EvtTU+Wo7dA2xhHenv3jnQ0bNiC/IF978gybuX37duzapQ6nazLk7ugTj0f0GSfDZt5kylSfhCQnIfGJB6QM9ESgZUFQCw4cfwO7JOOOM/sikQSD7bnlyExSB4MUlVNlTH6srW9EMd2z3sS4CDkEJyyUtyUFVpLAERMZJjtKruLKmvQPyE6mCOJ/OsadN44Y3Baj+6Q7J3PzZ/yCLiUR8gulk9fdcqHHAk5hWQ3SqdC688x+uO+c/kglwYbhYmtw1xScPraTCBVOdgQF5CLyUghJ5MnPPYHIw8bRM1dSpEiXpEm6DefDYN58BeG9e6nPNJz8oz1w3HjCFh6OuGuvQszJJBiIuaav6ZYPakl46B6E9e+rKYoTmk5YKGKvuAgxl11IhlIGc3IkKSUkIOGe2xB19OGaigmzfR7tNgyLvfg8xJx9GikZ2Yw/YW81RpBf77gREaNHqBeeDfMLCx8JTz9KwkFXLSyUORJ0dIX37Y2E++9ASEqyqzcNmmf1fkF3o9mts9bkYfGmAhm+vPOsPrj3bMo/CRHaW4Y8QB7WvEzpy4aMlEiZD8FDf1yJl5TX4bCBWVKVz1+XL8OGnTJjnLweTpVcRpKa08A9GsO7p+HQgZm45+x+Inyw6RGUdnju002n9FZDiqa4ZczmOQvP/wx0P7FAHXfVpYgYPpCCXitP9cxIwnLcdVciYkA/9Ux4TXs+CDUJ9vr3mZmZiKU0z7tIKjT30BVia151JoJQ7x6UT+6kCjXe5Fg7Qjt0QMr7ryOMyjc9fXlCUp+P+E5OVvWOGfaf4Q9FZFSUHBvuC3++5DN4uAHnap+c+fPgPeSn9l79EShBLTgwg0hwGNc/E6VVtXjv980oqeQuwEbEx3BLjnWo+QQsKeUWVeOrOTtIUFA9A4s25qt5DhShEdSaYD39SXBwjn517z3KgTveWYJnvuKNOkwtCPrM0TPAH8vFf1hNdefxI/d2TF+xDze9vhhzqQDksmZk73QcOaQN6aTWIel+Z8oWnPXYLJRU1Pp0x9+DcpH4iivu++5E+IC+8qwTEhOL+Juup1a8UaE7h6u6V0W7Jwx1FlASH7iHWuvjNRWDuOuuQNRRh5s2AdPNbyqUpSIjEX/jdYg54yQxRFxAf/g3+vSTVZefX8NZg6sm49keF4P4W29E5MhhmoqCy9f4e29HzCkn+uz1CAROZ+G9eiDx4fu0VoYKS/4b2i4LyW/9nxzew5jlMDNelP8W9NBzhCI5rqKqDo99thpfzlJjzCN6peK8CV3lXkGatMpL/65DeiyOGd5WDkd69ccNqKypx/gBGaiuaZDTczkNdW0Th1Ae29TgsORGBv+GkDr3UPCcieE9UqUBwqZzQ+DDP7ZhBuVpe4Cbhf0zsSEkLRXJ/3uG0hmXZYz6G3frfxFz+imUmR2xaMRnE7jm6msRSfmU4e9jY2MxceKJyEjPMB0SpewcN248OnXiHlFnAo4hSg+R48bIIXd8UiZ/aIuh/Hvz9Qij/CVatKs5dOvWDeecc47c627q3LkzJhzmfDbQoeMnoEsXlV+9Yir/XJEyloQPHkoK4VN+SbDV833MuWci6khlX3P9oRPUggNn4F35lXKIVW2tnVoOdfiTWgullQ1IS4ikgiATRwzJQlJsuJyWt48Eh7p6zvgqWCJJ8o2PCScB2CaHqPBESW5RtE2NcUQe92TwM0+2MldIZgqpxVIqAovxPjYyFO1SYtE2JQq7CitlSCIjKRq9OyZhSLdUilsbFVBl8ntI3ww5dOmzmduxZa8ai05NpAyh2VdOQlFucbVpN8LgihZ2lbiU3Mtd3vFUMPCYIPeW8NkLMRecRa3zIxz+Ub4wh6X53hPO723RUYi/6xaqEHuqZ7bjzFMQc/H5La5ozagejisRPnSww39RY8cg/pYb5JS5liCVD5nKQyvJb7yoWl+cfsgv0aeehLizT3fuTvSAnhoEL0EoLUC6wocNQeJzj6txZ4IFMBbyjBMMCU9meDE3aCD3RVDr9qihbaiyzsO3c3lIwEZ5LEW9F5QnjHSnyo2q2kZU08VDllxedMxMkAnIVx7XXeKnS5t4mcisU095mBsfbMTQ7ilyDHdhqTGxleF8/uHUzZi+cp8I/aYiQXAeXnN5+Q+DwzskPQ0Jj96HkBSKDypfo086HrHnniG9ep5xStU+6d+/P7744iucdNJJOPLII/Hii/9Du3btJO7uv38STjn1VBxyyFjcdNPN+N//XvJ5BkRAMcH5/7BDyQ/HSZkTOWGMVLSuLffmwG578smn8dRTz+Dcc87FLbfciksvuQzHHzcRzzzzLC6++BJMmvQgnn/+ecTFeR5GCAxyLZcH/fog4YG7YUuguo6cH334BMRdfxVAZV5rEPQ9DvPW5WFnXpVUtGP7ZUiym7JkDyUe4NbT++K6E3pJ5l+yuVD2qJcXGjwvgYWFXxfvxf++XSct+vjoUGRpS6wYXq3x8IWDcMupfRCpTYByhSU2NlYKaS0RDaKC6+ELB+LhiwZLNygXVDx++uAFA3DMsHbSwpmzJk+6Ns+ZkI2bT+mNu8/qh86ZqmDfuJOECodTXRPm3zM26i176Or6b+ToEYi780ZKkDZEHDKKEuTVlDPU5DPGmzlNISy7k3R3yn2f3oi74Wot/M2wjY5AFHQVN60escv4ZuLtN/PSGIR27qgym9bK8Ykj8jz3ozi5NS4esex+qsx57Dfuiothp4IpEEzJ2QX3F1zI8Vn87HkW5CJJCPKLV/P/TsyRZ8fwrim49KhulLcGSi8CzzOYspRa/JoOgT7Rv+LKO7+kVk4XTY6PxJnjOqNnewp70pBfUoPfSSDghkaHtBhpOOjwsOfaHaUy4ZHteYTKhaQ457Rgdhnj/MwuMrsqKAM3YFx944ru94iRIxB95qlUSVE6v+pSaal7R/XG6riHlrONI0aMwGuvvYEPPvgI48ePx/QZ01BcXISqqmq88vKr+Oijj3Hbbbc7eibcUeY50ob3DCVwYyLmvLMQyg2kW/4DG7Xe3SLdZ6h4f8tlwgUXXIDnnnse//3vjdi6bQvefPMNnHXWWXj88SfkuG0e0vCGb1sVZqdGHTkBsddcjrCe3RH/2CQq1yLcvWKCzff13kzQCg7VdY1U+TaguKIO7/++mVoP9dTqaCtrrN+lZxYeuBtSChG6f/6btVJZc6u9srpeVlT0odY/3y/ekI9fFu/GvsJqibyUuCjRy+94wmUGCSUp8dzjoFnO2EMcethMvR6oqVNq3DvBggJfuwuq8PAnq6jQKUYESZb51Ep57adNMlmrrr4B38zdIb0lvJST/cRDE7+Sm7knpbK6AXwMMFNF79hsbtX8XQRkM/k97szTEX3MkVK5cw+BKMtf37AeQ2DyAmdusiPq2CO1ynAiQtt6OrpaTFO3Ovyp/GrCl0+71LfhwwYi/qrLEXMS2dO+rai542KQ6VHZ590ifh81/hBEjBqGmLNORVj3rpIOvcGFm24aa2OdTqbLg/v33EsSfd6ZCMnMkK5Ke1SAvSbenf634CyK2aTx8OmMbRIuXA68//tWfDRti4QAr7biPFNfr75poDKB8y1PgJy5IpcaC3UYRkL+yF5pqCD1hVQWPPHFahHqedhhSJdU1PAGRvSOV8HxabvcKxhGgh2vusgtqaZ3DVTWcP6kcqVG7V/AK7mqyF6etM3u4DzLebmWyq1/DFzuabe+sJHQHU/CcNwZpyC8R3e/6UnSvgc9yi7dRkOD5Ae6Nm3ajO7deuDEE0/Cjh05soqCBQZfecnVHl2vVyfS64hBA5D42AMI68T7/rhjhIrJFNOteus9HbBfVq1ahR9//BGbN2/CSy+95HUJphlzueAP0Ud+jT7+WCTc+h/wHCcHXgxhdwdqvu3Q234LVO/fADtNjyQz3EluR0I0tRKpti+u4BnMPvBmjE+a/hFHrCMR0z1HnG5MDAk8bZIjUVhWKxMleRMZ9TJ4YLd/cfchsiIlEHgPhJCUJJlM6BcKDxbuvluwi1qAnXDlscYGWu5QuHD/Gv1vyNnB0929CA7ubNpThiueX4AO6TF47oqhyi8iqWjx4oL+RjZjyi9ASJdsv7HOw2F3vrMUy7cU4Zrje+Kkgzv4/IbTKr+vW72W/NFWZjY70ocPpi3fKzP6eaz92SuGIUHbO8Qb4hcyt2bGLESOH6sU/VBWWYd731+OFVtbvrFW66Hyt6fQYVV+qzyrVLQbvzjr1J48fM4TKru2iRehYP1OY8tkV818xytYOMxVG4x/DTwYfcDA7h7QJQmTzhvo1CvjC3tZOWxeZuub4bgtrajHHW8vwVYS0njPDB5yDjS09HLWqbz1AIf/r3/uxrNfr8Gwnql45MLBYkWAtpD53O2vPTpQsWqOWxZOr3xxAYqoXJ88abw2yV2lVG+UlZU5hAU+KpyHJ/wdt33f+yswe/U+vHTtcGkUm/GU1qSIaWyQDZ9YuBM1ugx97k8/zN8lq4n8EcRDFewhbwGvCpXS6jqT0KDrZe+7oM229fDGK/7HtdxNc0rE+r32U0lu3bynXGZ4K31Ncc1fA2fE575dL70igcDLl0Icm7IY/mFzXFm+tRi/Lt1LwWHHTwt3UYFs2vjIDQofLdxCO3aQ7v1A4F6mT6fxBDo7dhVU4tt5OZo59MdDcLOSZo0IP6FdOsuzs1aXJ/LbwvX5cnwztzJ/XbxbhsB8w6baEN6ntxIaREm32R22kXuffqJCr4YqL+7Rmr0619UpboiJZG7kuEPk2YCLMfXrasiMlfuwdoevuPg7sCOEBUcPqCKbb3R/eA9Hh14NZ53ak/w46yuvqheh0FloYJxN4K+UM1jd2QzGWfeBBftm464yWe6q4ylfmwlEaGA4XDbtLpV0zUI4r3LhniN910N/6OWsL6GBsTfYMY/M5rkrm8gvnGcDjROp9j1q1uyWv4p5VJlzL3NtfQN+oIaRVNh+bIqPj5dhCb4SExO9Cg0c5nxt31eBxRvVXiFv/7ZJhtXMeLJN3E/mmpeUG3mCf52/qqI6asqSwA71CtoeB/aSd4f5fusNXjakVkLwxRGlAt+zaayiv3EOYMZQ1d+5m+CObh4LMj66skib3+78/YKSkrm1zmvm2bWSOek/D81wopNfSZFK2leX+o6VlX7Wp5bE8sdlVLFyQVxOFbvCjsjwcJKaExwbcnGI2EJ0c+RDzS65lXtlrv5e2c/SOocVFzlc0G/bRwWdagbKd7wTIE9aFWNYWcxn8/iZ3cjDXZS5OD5IkZwg75Q/+JdSitjHFy8DrsbSzSUyZMUZmnuOuCegZ4d4+i5Ec5/SzeHCEyTtbC49873c6OEoelizXezgvRiYmtpGrNxWhLwSfYdM9icwMDtZdik1zGcz2A2hZB7/sl5yg24H/5Cisos9xn7h8LZL1/tuEq5WbvN8/PbfB3uC407/ZdgnfK+ezW/ckUAgdP36s++vfKFCz9O3ynzv7w9wKH1HUP48fEgW5SOeIxKilZ++4TzEWdAb3DL/fsFOFMteFwpuQR/cLx0xXB5waHLeZEGCfptDPVWss6hC5yX5esynJ0biqCFtkJJobOTUHFRs018KHxauuPGgC1Vcnh3cNw39OiWTRh+BEChkLg9z8xBaIe8HpBnZvV08xvfPRDSv9mkFe3jYZ/aqPKzYVkhW+jcvyIcq3NETgYG7iiuGDle9KgGoYPJvjme8f+f5jSfV4Cl6VGXId/zHu9+cYC2ObwL1heMjj+hvfZroYoSWd0mJbrxmJi8milm+bNNiSMLHbCld3qzyii97vOOwys1OZZ7ZVH+VHYcVe0P/PZBRPnLFHBpmlG73t4HnQU/2eTP1n4MnX3um6aXZ3xVugfrJm/uM751Naqp/9C/9fCOZlW8Mm5S9Zvuc7Ta/V3+VSksJWsHBU6s7KTZSllUO7JIimynFRgH5pXWy1fTMFXuxanuJTDR0DjqDv68lf2ChJ63WCy9uNXjvYWk5uov/OjhcGqUhrIrJ1sVbCm4tXONjf9vXcpQL2Y2qd4jvJMaNPw5kMrN2r+AVP6pcMHCYYBEgnOYDaIya8BbG+7s8+OsxfNra6Yr7KRvI1OBKq0Hd48AO425WXsJ46IAsDO+ZJodS6XBBoqQpecCO/EpMX74XC9YXoKzK37izhX9aOxPsf3TXOre/m493U1rHfG8Yput2KPGE1Vtus2FSU9uGwQBvxsRdtXwORY/28bJKKiYqBA31jSipqsceakjwZM81OSXYW1hFgoT6TvnVuX1m4Q0jlPZ/KmG7mP1hhzm2Wy/m9bTkCpuuVFvLLt0cPRYMG/YHgbo6yAQHJYnqLV0WGsb0S8PJozrJXvMG3gOPl1jxZK/Xf9qE0krzKYoWgbP/EmegCbMp6GY6fumPa8uo6a2lpmA2uLV95wvdx/8eUhOicP5hndGrQ4KcN6Ewwl8vzrlXN6+kGj8v2oOpy/aql4QeYjxWrw4b4yfjewuFyi96+LQ2+7PHwd3NegwbMb2//GVgzKdrKYZbldtbz+V6PatQ9vCjbo8vgkxwoMC282Q11SoY3C0FVx7XE1F8sp34S0ldZrx5dHtuGZ79aq3sA+EcQBa+4LKCd9dTB27pgeYphAOnnk/OrNL3q1Axxpt2xUeH06/aCtxp3kATUWmDZwXXo7K2QSoNLpg4tcTFhMvJiCpFtRz2Qxm1avW9N9gqrsC4J0wdh95ye2Qvkpp6WVmhw2ZzeIVrR7A3Hy2wiNq6BtnC/UBAeh7bxOHaiT1kF0hH0vQGeZO1cL7nE3b5RM3KGo4zo8IyQsLCG7wlN++SKxNsm5y0jRCWyYNsAP3Kjp6U9szG8ZEAPPGXtbekLGC4+uPVGjUue2rwZoCcV9kvyl1NtMf0CfuHvcT+4NVV6hW/bKS8GkLh1jI/OCCDG6mA4zJURy8vuSxoYVA5/MTbp3ORJv5Sb3wSfEMVmkd4i+b/ntTbcZytI8Z8eIt1mN/ysrl3p2yRZXr6G1c9FgYcLrxRzqkHd0RaIm+swqp6uDcHNtGGyqo6zF6Th4+nbadHOxVEYbj8mK5yFHqU6+mTzcJYJfDR1K1YJ8vo7Dh8cFs5JjklPkIrLJqOa3rhCn3WSt76OEcKjfbpMbjw8C7omB4rM9BbA54RzsNu7/++RVaJcIF6/Ij2MlzHewy0BlzolVbUysZovy3eI8JKMMM7P15xbHclNDQxEzdQiTh9Za6Ep04TjfhXkhQXgTMO6ST5lIVvz3Ao6nnLfO8O9wXxpn28e+cn07dio7YlPx9kePSwNkjRd+n0boRfpKVP/3hDr/lr89VGgZS246gxdMoY8gulo7Cw5lmg9yKwMMo+ZYFhR14lPpi6RfZDYbKSo9G9bQKiTUPqLYEr8toGO7buLZMj2zlwuCjjYTpeJcJCimpMNzfQ1LccRrwfxaptRSTY+V+OH0SCA0e3CgQuHK8/oZckWGea1sVVRwH+xk8bsGA9n2/egtT4L4GXEn1+zxjEB7rjoB90yViXzq94cQG27CmTDaCuOKaHQ1rW9bUG89fl4a53lsn5I89dOYQyl770itNNC1rrprzJ+1zc/PpiKvhKZCOr06hAaiXnO/HDgp14cfJ6dMyIwdOXD0ViTHgrhJNzIcObkd325hLHGSrBCLcU7zqrHxXI+p4hOhynXED7L8K4YHzj501y0JzyP1djgXz572XiyPa4/sReCNOWCbcE1zzOlfpDn6wUsx+7eDD6dHIt65uPHqf1dY1yQOHSzUU4YWQ7/IcaosoNznmgJbC/WCh96KMVYvapYzrK7satYzq5kpzKS1sbGxuosbJDejt7tEvEqN7aGTT0rmV28ddcPnOYhFA5UIJZq/wfZd7Sfs9WhDt6VJRnZ8WjU6anzUSU0MC6lE7j1xPhoTZMGMSbB7E3Wysq/7mkJ0QgLrJ1DkFh9IKCf7nwH5idKAJEdkYcqckrwVygtJQulHaY1PgIRIWbW+ctTOomJ/KwRJuUKNlePJ1awK3ofCcyk6Okpcf2JcVGtFI4OZvBPXr6UdLBBq8n5/zNJ8m6Cw2M3pDgRgfptKl7T6UC9zhxzxCvxtLfu+uy0OHwap8aLed7tAbmtMvhnp4UKYIwnw/kuax3xTW2PMceq7JNfIWFhTjSDe+BYrhB/215CmAz2WwuaxKowRunCQ1ssm66wxYZU1U475Xg7A7zE2tjnaEhXOaoRlCH9Ggpc+QSFW84m+sZTQ8ZxvvOtKcGVyAEkeBgBMKAzkmmiU/u8J7wX8/egRe+XSsbC/kKHu424rMoAgvEfzecCVqncvIMb9Yk8bAf7WD3i/C8n5HxTPbGfvSLZst+s0K1MvZvnDcVs0u4IOMu5hNHtddU3OGdY3lXzTmr8zBnVQGWby2SnkZPsJDEQ3GMVRoEgr+04SEUAwhYNlGfM8H3gSU/V02eP3JV5R0ZOZlzw8WdgCz2C7ufT2fXN3DjIOA7N9O5+8CBagQrzLq9B6AqP0lnYAFG6PoC1U92sEcCIIgEB63VQPRs77wPtyszVu7B70t3yxjZ279ulD3lvcE7efbLZvO8R4iFgapMAqegoAC7d+9CXZ3/SXZ6d6WnZMzv6uv5oCG1I6MzqiuturoatbW+l9my2ZKvAs8rsmtaVVVVQH5wQOY3JaxYb01NjfiBx3kDRc8TvmDz9LDzdHmzL5gEBh1tv0sFeZ2HK2OivDUi7NhdWI2Ppm7HB79vwxs/b8T383b5PGiqW7t4ESDY501L6f8+fCYPSs/2iio0lpY5X2Xql8+toMSnafaNz1RIZtgrKtVVWWHcaxeqeeWc55jU82cg5cG+ffuoHNvt9eJ85BOT+XrPuY7ZanZTbW01qirLUVywF+XFBVQuUDjymRL83p9D/aJ/T+UslWshNdV01cDG4UiqWoiY7jU4Pp0UfBMUcxzYq8ojHGw2vHrDSJ89DptJYCitqpNJdk98uRpPXDxEJvN5g7fr/HzmdrrTbbLwRIf0WLx3y2jtKTAuv+IyzJ07F198/iX69OmjqXrmpe/W4es5O3Dnmf21Q20MpkyZgqlT/5D7M844A4MHD5F7Jj8/H19++QWWLV+K6KgYHHbYYTj66KNJKAzTCjcjs/HEqzMenYn+JCw+fMEgxPs5GGrNmjX4+uuvsG37NiQlJmHs2HE49thjERbmexLiQx+vxLy1ebjt9L4YPyBTU/UMFzqffPIxFi5cKPeDBw/GBRdc6DgK2FsF/ueGAhk7zW4ThxeuGq6puvPLL79gxowZdOeetrmVwqcJHnTQQZqKMzxf45FPlF+CAz0slF9OHt0BJx3cnh49hRFPgmvAzrxKbNhVislzd+Dgfhm46IguUo54YltuOV74Zj0Ky6rpybMeC9VCv4rn7xzSUVPR4Xihiqe8HGVPv4C6dRtJidQkKPkP3VNchWZlIP72G70eTseHW93z3jLw8vl3bx7tZTIhVbLzF6HirffUhETdePqRLEMKUccdieiTJpKCqNJlwM5685dNMhHz/vMGYFx/7/l01KgRUs7oiNCh+al3r15yfHdCgud5GHz+0AVPzUEEtdZPHO0aXgZs5s5t67B7+waUFuXBTgI913kxsYnIaNsJnbsPRHgUD0N4Tr08f2vdjhIcPrgN2qfFaqrOSB1KTo8oLULypjWIKCkU9bq4RBR36Ymq1Ewxn0OLcbWnrqGRBHFjErE3gqLHwfCEcg4fde2LLm3jMbhrihwaxTPm/VUO4SKEsC26TRbBRF5eHp577hm89dabePvtt7BhAxVGBGc0rmgfe+xRPPjQg1i4YCF+/vknXHvtNXjnnXdEj1thof0GArcyzjvvHLz8ysvYunUrfvr5R1x//bV45pmn/fcKcMHiA721w7+PPPIw7rzrDsyaPQuLlyzGAw8+gOvIHikgvAgNTeHPP/+kcFNh53p9+dWXyM7O1nR6gouaYIJdY7goOZ7ytkehgbFJ44E3gWpsVLPPB3VNJlXvYcrL/lS3dcvD/d+JFm58lkRiMkLSUxGano7QtHSEpKWgsbAEtQsXkcCQRcKD94o6sDRHMVlbS2YWo6GoWP0WFqExNxc1s+aiZt5cRIwigVic1LL4fOihh/H88y/Q9bz8vvDCCyQw9EZNdTWeffZ5xMf7OAFYkqwn+81qNqxbPhvrls2Rw7cGjDgcBx91Fg4afxKS0jKxY8saLJr1I6qreOUEIQEUWCg5Q0IBlV3JG1cjZk8OKjPaoCq9LaJzdyN19RKEV1VquloWYkEhOBhDPxIDqKx17RZy9+LanGJMnr8DY/pm+F3b3lDLlUBLgslif8InxH3wwUf47bff6YkrUxWfXKkuWDBfKr/rrr0eixYtwdSp09GhQwfS/4Gcyd9cGhobcNXVV0rFzr0lf/w+FTOmz8KwYcPx6aefYuXKlZpOz/jrUtQFAu7mfPW1V3Do+Alk/kxMI/efdOJJ+P7777Fs2TLR01JuuukmrFq1xum66aZbEBMTgxeefxHpVLAfmPBhYJwWTAUoB6se9FrBwev1N++pECGib0fvs/P5M1635XG426JJ2GJjEH/jNUj+3zNIeulpJNKVMOlu2CIjEN6zG2KvuYK7LZRmD3iKAtdqkvNm+NiDkfrVh44r7euPEH3GKWJ24qMP+hROAoXtOfzwI3DcccfTNVF+E0koWr58OS6++FJ07949AAHf2fWqJlOND77fs2Mjdm5Zh/Q2nTDkkKOR0bYzYuMSkJyaib5DxqF7v4NQWVGCreuWorGB6j+yz2nYLkBUGqerpgpFPfojv99w5PUbhsI+QxBZVozQaiU4cPnlGt5Noeku2w84C2s25BZzN6KrugG//2T6NiTEhFILI0ViRml1bz3x896S6hYFksX+hYcFUlNTkZJCcSkxZcTWs88+i44kKFxwwQXS7d62bVs89dQz2LR5Y4sq3sKCQixZvBgDBw7C8OFqGCAtLQ3XXnsd9u3bSxX+LlHzh7fiRO9x4F4N3lyFh3H4+NzY2Fj0699PJofl5eU69LUENpOFA3Y//5aWluL999/FCSeegKOOOkrTdSBi0/ZgMZDQ0oJM776uqKmT4csRPdO0RoTnMGXVemqNBfueFQcinA8q/u811OfsQPz9dyMkwCO2zbjmJXNlrcdY/YZNKH/2JUSOG4Ooo4/QVFuGq1DAefaBByehTZs2OO+88zRV/7inKlU5N9TVYd/OLXRvR7c+wxAREeXkVy7X2mf3QXpWR+Tt2Y7aGjVvo7lVu53Myxt8MEq69NJUyA0RkZRXKG9ofmWzXcO7KQSF4ODK2hzewIdano5wcw7AeWvysD23AvuKanDfe8uwt1AXDLg94QyXEcs2FZvMsvi78HXUrid4wuKsWTPRs2cvESr0SnbUqFEyH2HhwgXybCbQiphnW3OGrayskAmLOjxsEhYejnC6fBFIpma39OzZUyr22bNny3DIrl27MG3qNCo8ItC3bz+/LZmmJFs2q7a2FjfffCMiI6NwycWX+TU/GDH7eU8Rt5AMP5jzsbTIKIzXbCslAaMOY/plqHLRh5f5aHd9R8EDL2SCBfdUWT1/ISre+wTRRx+OiCEDlKKPxNuUdM16Oa7sNbUofeJZUYs9/2zp3fBnkl4eBJoNWP8333yNtWvW4JJLL0WPHj0c6n4x2cG3+lVXVyO9CfFJ6YhLSObXbnB51KFLX9RWV6KyvCgw+7xBnq2PjkNjWDjCqiqRyD0dKxagNjGZ1Ft2pLhO8AkOFF6rthehqqaeAt0c/Ape/5qdGYfjDmrvuOJi9IlszoHNT2tyilFcQRWDw4gWRIhFq8DL7AKhoqKC9NoQFxcnFbm5EuQeCm5ZNxcWRCaecAIWL16MF198AXPnzsFnn32Kxx9/DN26dqUCo6em0zN6N6I3n7Bb+WKh4fHHn8SyZUtxzDFH4cgjD8fMmTNw9933SovGVwGh958FWvnzvAwu9LgnhieY9u3bV3tz4KBaQoZ/1+WUOYWR8YbvlF7e3vfkMR3RIV3bj8JbVyWxM7+ChAe1eiawVGjhDIeac/g2FhSi8qXXEZKagpgLzqEKvYk7QPrRp7+u/mMaav9cgqgTjkXEQUM11QAtCTCyd+7aiXfefRujR4/GRRderKmSLQHmQY9Q+uW8GRXtvkeCOfuHUWOCHVpbU63s8+Jm327RPqIylvNGeFkxUjaukhUW1UmpaAz3s2dLgOEUJIKDybUUJlv3lGPLXiowRJ28b35NDwO7JuOMsZ0cV4JDcGDdhmZeljV9+T65N4K6BQnAImjgyoQzkLeKVyofP1H96COPYfz4Q/HKKy/j4osvwm233yZzEi6//HK0b+997wDBHlirlbs9n3n2aRFUrr76Glxx5ZVIT8/A62+8htzc3JYVSC6UlZXhzTffQIeOHXH9DTf4XRkSjKjYNP7uK6rCkk1F8swYsW3cje6djhNHtpfNhNTBVV6gtLJkY7EWdfx964X9vwf3MKuZOkMq9LjrrkB4H6N7PFD8xQLncb4qXnsboempiL/1Pzy+qb01pwQfBBDVbMfdd92NivIKTJr0oGPVU0uxhYSQc8NRUVqsqagl4Du3rcWGlfNRlK8OYSsv4T2J7IiM1lZMuLjZW1nnjLm+tKMmNRM7xh6FyjYdEL9rG8LLfTe29MaKP4JEcHAOIT4P4Nt5O1FZxeOb5BWvLVT1nf41/+ojNxzGSzYXYeU2VegEFhz/bppaiXFC5q5x/iqQb22NgccCm81zAqJJSs/Lz5NhCz3j8H4Ie/ftRVZWmxZVvNyT8X//9zI+/PBjHH3MMWior8eZZ56Fs88+V4YxWoM//vgD27ZulbkTN9zwH9xwPV1Uqe/auRM//fSjpssLTUi03KJ55ZVXZDjkmaefRmxMbIAFTbBhxCffsQ8+nLZNNnpS6Dlc4SwneB9A4gJx0cZCOWrbCJcDMXz+OgLJWo2FRSh/6VVEDB8svQ0BfaQRaOjbKL4qXnwV9Zu3Iv7OWxASyxWr8XUgNkpDwgecJiZPnozfpvyK008/QyZENgV2jbsd/GxHeEQkYuOTUVlegoLcXWIXD03ExqfQcw5W/TkVubu3YeuGZYgjfbFxvMNu89KmfNdQL/s30APsZA8PW+zrPwwhtTWIKDGWnLaE4Buq0NiwswRv/spHY3OBoSKEw0QPTlVgqCeHmiPibFJAfD5jm9PmUK7RauGCHpA+4ITJFTcfHFRYWIidVAGyNM0rI/wRgPEOWCDg4Qner2HNmtWy0ZQegz/++CNqqmu87k3QFKKiotCuXTvMmjULI0aMwH333a+98Y05rfmCw4iFkKwsY98KnuDJ/ispUdK/vzIikHQ7Z84cvPbaKzj5lFMwcOBgUQtMqApEz99LUWk1fliwCzV1aqKkI7ikO9YIPF/ByJMn35myRdKvCpfg9/ffj+8wstfVoWzSI2isrELs1ZercG1KJtfwVqnrlWfN4qWoePVNRI4/BOEjVZ5vsjV+opt7Gl9//VW0oXx68cWX+J3j5Aq7x90Kpcr7zbTL7o2QsDBsWDEfhXm7RZ1XVAwccRQiomKwctE0VFWUoG2nXgiP5OEETtmefRnixfOiTHEQVZCLrMWzEVFWIupMGE+4pPDkiZO+8RNQGkErODCLNhfgPcrs3AMhkJ90b3nuhLCDjyBdvqUQL05eq23yYuAlvC10AkszshTyoIOG4oQTjsdaqtTHjRvnVDF6w1cvsjfuuONOFOQXyF4O9fV12LBhA266+Ub0698fffv213Q1H+7ev+OO21BWWoqbbroZaWmp2puWwwXfgAED1NyDb79BcXExCQsl+Oqrr0SNJ16pikz7wI3AAoznejz99FOIJCHoEir0mtbFSrkiyDMGO++PpXsxe3W+k1NFeLMbRZhzmaDCjv8WlNXggz+2obzqwDhCPHjwnTBqps5C9W/TEEX5P2LEMFEzV3a+vw4sdTdWVqLyzfdgr61D3JWXIDROdeP760FoKtz7t3TpUjz++OPo2NH7Jk7NgcMhOS0Lgw45loSDMiya9T0WzpgswxQb1yxEaUkBGqhsQ0goElLSqDwIkTLBqx/9eL0mMRmRxQXIWDIHkYV5iM7PRZt5U9FAAkqtTM703jMXWKwEseDAHuOC4M+N+bKz3cyV+1BUZt5u2NmDvD/95j2l+GTqFrzy4waf21BbNA+u5Orr66UFnZ3dBW2o5XzNNdfh0Ucf03S0Bs7xyns23H77nZg+fRqGDhuC4447Bhnp6bjxvzciMzND09V8uMBYvmIFbrzpJhx88MGaauvALTA2k+c2zJs7F2PHjSEh6xBMnzFddo48/PDDRY/esmouvPJk5aqVuPHGG9G7t+/dOw9UeAklH5n++Ywc5JZUiZoq/ryFnR219Q1YsqUIL01eJ8eTW7QWJB7U1qBmwQLYUpMQd/0VsGlzDsy9XIFVQT4gsxq25qB2+UrE3XwDwvvzZN+W5RVv8BDfueeei6OOOkZTaT0knVL6TU3JwrBxx6Njl76S53N5g6ayUlmG2WvAaCQlpWHHxlWoJOHCV8r2DTWeI6OQ33co1Z+NaDv3d7RdOBX2iHAU9uyHurgk0qHc05KQDKJjtb3Byc+O8NAQpCZEonu7BHRrE4foyAiEhdpRXdeAYu0c8d15lSjWzkVnoaM5Ldx/M50y4vDOzaO0J+/wxB5uqXO8xMXFBzwJ74Xv1mLynJ1yRDJvm+pKJbUueNliv379pDtfh+c3bNy4QVY+JCYmyYznjh35KGv3CM4trsFZj83EgC7JeOiCgYiP9t3luGXLZsyfvwCnn356k7onH/hwpRzXfvvp/TBugG8BhueB8IZSf/65EHV1tRg+fAQGDRokwyS+WLi+AA99vEIOanv2Sn0WuTt79uzBb7/9hrPPPluWeTYF7s17+ONVsp1t8KM2b+JTQycMysSYvpmIieS0Z2y0o1KEDTuoLPh+/k6s2FYsK7Qsmgbvrnn1cT1x6pgOmoqOFspU8TTm5qMhPx/hfXurV04YseEJnvx+z3vLqSyx4/1bDkZkhOc2rL2qGnXLVyF8yEDYOH96N9INciLe+GkjPp25DQ9QWXBIX+/5tLy8XHoBExJ87BDpBW7QnvfUHESHh+KEUa7hpTCHBu9yWlfLZ9Y0sGyEsPBIhIaFo66mmsKjDuERUfLMX5l7HeatzcX6naU4YkhbtPN6iqVmE/klrLoKtno1B60xLEItxbSFiA7GMNmgtt6Oj6dt1p68E9RDFarrUXmT99DeW1SJWav24Z0pm/F/36/Bi9SSeP2nTdQK2Y4124uV0ECpRQLKU6hY+Mbz+I8bPLEnKSmJruSmzdz3YzzvdHjkkUc6CQ1MNCX4AQMG4qqrrsFZZ53tVWgwE6BX0KVLV5xzzjlNHtNsClyZDx06lNx/Na677gaMHDnSr9CgCMwTvKzzwgsvbLLQcGDBLSQeirRjT2EVPpq6Dbe8sQT/+249Pp22HV/N3oEvZuTIPIb7P1iBu99dKoKdJTS0AI+ZSMt3lP9CMtO9CA2MnwI4wPxpi45CxEgSmvkYAjayvmnx6X1ivTM8Ubo5QkNAkBOM0LCLUBYZFY3omHhERcdRA1gdxR0RGSVq+rOnEPTvG+2rkBDUxcShLiEZtQlJqI+JpVf8jupHJ/e4EGC8BLXg4F75Gwp6xaGKE0Z1XErXrzxZBBuOmPJT6fuCv/X5PTczfMLvXfX4+8Ydwy/yEzAt8fu/G257mcPOLps+LdqQj58X78F383fixz93yfJrGZaQcLbCen/T0mG2wOA8r6qqqt/+gL26CTsB/xXO84dTMnROw4JrMnWUEa4vlH5vPen8VnQ4/KxKKcejZp763lA1o5dr/ggiwcHoQtE9pXlT/jpjqLEeJSqoe77z9IXCeGu3qe5Nb7T+MIdzULe68a0AS6JNKQiaXGhoE9n8NQKczW2U56ba5T3+VIpxxibDL83Dv7vMbufu0CbjJ6260iS/kNMCLSz+HsxxpbuTKhKnCHZ2Pz+pt979ZaRBTpOu6cGMexFpWK3fOH/ftLKDNesfKEeZP3f3mXf4O72FrfuvSU5xwV8+pYQtgrCevpuaRx34caRubkNpuezlUPXlt4H7S6uEA5XXOe/wqq23335b9mDR8eU3edMMv/NwhSdzefmpZ5To7G1VhY6jUSMPfG/2vC5+BxggXggiwaHR5CFnj7p7kp/NoaeLDgpX3QasT5lnM83G9oTfTOOCKapMmJ+dC3/DeP3O87fKvb7w975pBNoi5nH7hx95WLZQbm3MhdHu3Xvw+OOPyvyH/UVRUREuu+wyWZK1P9DDlHd1fP7555ohPAQex7w89vLLL2vRrpp/L7pf9V9zRjTUfFXOxiu9kGScPzC+57gw2+GK+3v3soEVdAO5bNFufaLrZ836B0pNPal7hzMFfnJWMcNlhS5Q6f4LyCnNwF7fgPpNm1E770805OyQNC35tq6OnneifnuObBHdGuj5p+bHn1G/cTPK33oP9Tt2kiMC910gcZKTkyO7u15yyUW4887bcfjhh2Hq1KnyLpBy0bMOs8V6/UMCCoUX79uwZd0SKevMurynbaXL22tWD2moR1RxASILchFaUyPuZr/zzpFh5WUIqSz3KKw0lSAQHNi75qBw9RS/8+RR52/MT87vdJSa+utunvkLT1/7gvWrgDTMVZK/uz3ugoC7bSrhqG+dRSJP+HvfBALIHDovvvg83njjNXz00YeaSuvCCb6OCqHbbrsVr7/xBmbOnKm9CYxAfVJfX4/nX3gOv/76Mz788ANZ8tk0ArNp06ZNePa5Z/HBB+/LltBNybyB+oXD67333sUv5JeX/u9/LehFCQZaI12bc09LzHONAd0sXYDhP4aaJ8yVgdKh6+MXzuarJ8Mc7xWJK2YzzTSvmPdVHFR89iWKLrsORdfeiKKr/4u6RVQBUmOi/PmXUXjpNSi+5BqUPv6M13Quqp5feVSuz8tD+UuvwV5Vg8adu1H50WfcfSfvvBjTZD799BM5EVMnN3cflW8faE/ekWDiwPIYYLqajftO5Y7/lhblYde2Ddi6fhny9uaYYsyTGQq/RQaVXSlrliLzz5l0zUDWwqkII0EhtLpCPS+YirbzpyF5/Uo3YaWpBIHgwM539QKfsx+ONinRaJsShcTYCDlHn2eStk+LQTu6+JdXWrRNoedU0kdXSnyUnDrI5nG9nZkUJfpiIkNFLTKc9JMZSXEREglREaHISlbfJsVHSGUVFmpDOn3H6kx6orpPiAlXdqfG0m+cuI3dxLBZ0ZFh8l6/0sgtKWQm64sMD5WI4pP72qUaZifGhouf4qJ4gqEdyeQudkvbpGhxG7d22L1sDiPvyb9sr2uItQp+U6bqyuMd1p559lnZhOnZ556hlvQ3UgEHSiDSO28y9cwzT2HKlCmorKjADTdcR5l6WRNa6579IhlG8yf/fv/9d/j4o4/EX6+99ipmzJgZkB26Gd7sMcMztp9+5mlsWL9eejX4PAzu5Wgt2C3s/ilTfpMtpzku3n/vPfz8809Ofj0wcHenUXEa7zxVpu5qzmZ5+sYX3rXrb/TeBf7juyg1t3idzHV8z6g3Jq3qgXdcbUJ6czJPbgPNM854SzINhUUoe+BxafU3Fhejft0GlD/2HKp++Anlr1D627wVdVu3ofK9D1Hz+3TDOV6d7v6CVfQ0y2dhFJ9/ORp275WAtFNar/zgE9nmmnV6CDUDTTmQuN+7d492p+BPCwoL1QPhLQ+JqhfrDdTpNrxEsqy4AMvm/oLamio0kl/Wr5iPksI81bdFdvgzj8tPfq1r0X8jS4oQt2OLHJ0dWlONiKICpC2bj+R1yxGduxsRFWUILy9B4tZ1iC7Y55wOm0ho9sHnT9Lu/0acvcAV5HUn9MQNJ/XGKaM7YFDXZOwpqsaL1wzDaWM64ZSDO+IkUv992V68esMInDmus+xVP6ZfOvJLapCzr0ISyjs3jca5E7JRVF6LtTklGN4jFc9dNUyEgAXrCnDtxJ74z8k9ccYhneVI3k17KGBJGHn4gkE4cXR7fDkrB09eNhRnju9Egkwo7jmnv9h98sEdcOjATCzbXIT8Uj5Ay4bxA7Pw7BVDcPJoft8RnTNjMbBLCq4+vgdW5xSL+7tkxeHl6w7C+AEZ+GrODnrXHbef0Q8FZbVU8DfiQbL3oiO64pjh7SQc1uSU4rO7DiFBIwazV+fi5lP6UJj0wvx1+SgobZ1uQDNJcZE40ctyIp0ffvge90+6TzZM0hM4H9rExznzoUq+tmpmd/NyonH9M5FNYeGNhoZ6vPTSS3iVKnIeEmF7WJDgpZq9evZCp06dlEYP8DHMX87OEeHsUIoTFtrMcKbjiyvaL7/8ApMemIQirXBgu3777VdkZmbJqZa8esQb01fsw+6CKlkS2Ini2hu8VPLOO+/A5O8mc6kgatu3b8OKFSswZMhQ7Shxz+wqqMTMlbmyDPmooc4rTcxwTwO3lrh3Rg3p2OTEz4ULF8qKCz6wy1u81NU3YuaqXOzK339DQU2Dw8goDzpnxuHMQzphaPdUxxUVEUZ5KxnjBmSSoB+CvJJqCR+O79KKOgzITsGRQ9pgSPcUDO6aImlhT2G1+JXLioP7pDvM6pAeh9joUEwc0d7Jju25lcbGcxqdMmJx/EHtMKJXGtISorC7sBL1DXaxY+LIdhimfTuQnnnlB5/EaaZDegyOJ3u4XCirqkMxlUvmoi8uOlzKDy7v+B2XV2PJj+3pO87vXPYN7paCnNwKOdyvf+dk7MirkNM+L6Ryox89r99ZIuf38Pkd7P++HZN4gj32UvnTFDiPHNQzFb07JmoqBg2btqDy48/pTnM8RVnDvlzUL1sBewWlIy585ZVNjteOOmy80qSpMVwmT1u+T7IEl6ccjzqsQy7Op8UlKJ30KGrnLtTUWAdBwnHtzHkIH9gfoe04b+gvnOFtxldvL8ahg7LQMd1zPq0ns9aTUM/H6fMOrDqh5KbRo0bJKi9e2eVtJVRVbQO+ofKcG4Y927uvzDCn6GISEFYtno6qyjIVJLYQ1NdWo6QoF/GJaYji1Q+k2+FPExzXXFd0a5sgaYXRtfFvZEkx4ndqSyk1A8KqK0RgsPFQEiuzIgV6TUo6apPcy54GElJ5awN/eC/l/1I4aA24gj2kXwa1/OwiHGzaXY6te8vx4R/bRCLjAvvNXzZpunkdbQ0+m5GDxOgIXHxUN0m3XbLiKXOrHfQmDFC7GnJvBLfWOZGOpsLjOMrs1bWN+GbuTsmc15/QS8I7LMxGAoRaZhgeyvccaZV48bv1sma3pq4Bb/68SQ7gMaKOscl6+Be+WYvv5u6Q3gtOTGyvanFwZ5Wpi0jEYHVdcWx3qUyXbCoUoYYrjYbGBnFvaAh9T7rY3WyeOl1SmeIccvuXX375Cdddfx32UKuZ40H3OY+n33nnnZg8+TtNpWU8/vgT0kIvl70i9BACtm3dgiuvvBybN/tfZ6y7zRPsdhYabqWKNi83V1NV8P4Ud999pwhILYV3ibzrrrvwHQkNdsq4eszzX9606T//+Y/PeRVcqAbCTz//hAcefEBOE2V0v3ML6j//uQGffvaJ+Nkrf2Ui8otzzLVPi8ZZ4zs7XUOpQjx0UCbOpvtBJEBwvhhPwujZJBSwwD6KKnbWx+/PoYbDjaf0wgWHZ4t5XPGbzTpiSBb6dk5yUuMrhRovBnbp6Xv2ymFSvpxzaDZuOa03rpvIBzqFUIVN35Pd+renk6CTkaQfX6zyLtODKpWLjuiCCw/vgv6dkrQ4MQI/ngSYM8Z2xHlk/qjeGbj19D4499DOVDHVIzk+EuceRt/SlRwfIfsrXHxkV6rc0+TbC0j9HLI7nMqKidSIYnew/y8kPY9eNBATBrrvm9JcQrM7cyFJZZrmdvGgHQ256hwEHqbVi6iwbl1FzVuOZFXPb5TZ5Q88jpqffqMn+kcajdCiSi5vH0ruexD1W7dpKt5R5a/z9wxvCX/uuWfj+OOPxf/+9z9NlVr0pLGRGnPffvstTj75JJx2+qmySZS3fOQve/F3tXU1WLnwDyrXisgGFg6456Be/FVeUojl83+WIQx3V7rjGm78RX1kBBrDKd2SXfo7Ph/IpvUG6+6gCgUNES07wCtIBAeFHlz15NkG8iBf89fm442fN5LEXYNZ1Priir2ovAa/LjYKXN604oeFO5BPlXpidBjSEiPlBM1KynBllXXoQIVJUqzzGvfDB2chjAz74I8teGfKJjzz1Ro88flqRGktVN5c6uC+GdQaCaNACkFucTW+n7dTpEvuyf6F7C/kFoMLlTUN4o7l24x9wtlnym8c3CpKjb8SndJqYFgo+Wr2dvErHyHOpJJ/WNDhlqdCqQum2/3JqlWrcMcdd6CGWrIMJ3ozNTXVuP6GazFtmppM5CmDect0Ovz+u+++w5tvvo56akW7Y5OuwxNOPF6EB492uPx6YsOG9TLEUl2ldiB0hYcWuJdg9erVYodPd/sI/3ffewe//vaL43tVhRgVyaJFC6nCnyS9H+7QN5pG17A2w+Fw7z13Sw+Qo3Q0wT0PfOgV+8UrPvzw98F+sVELugyPfLKK8praa//TGdvwyyI+KEjp8uRnVuH380kA/2T6NmlFSY+N+FPp/3zmNjz08Uq8/SsLoUqNe114wy2+9hQZPTARoaH478m9ZIhz855yTFm8h8qcRhw1rC0GdU3SdAEbd5eKmY99thLbc/WdKvW8D/RqlyhCDh8D3rVdgvRusqPEvdovF3C8zv+kUR2o0RCKFVuLsGhDobwVHeIHFWE89DqByjHuVeMkQp/J9zrfzNmJlfR9VEQ4ThjVToZGWwq7MSQuFnGXX0g35H7laP7jgJ+46Aptm4WYM09RioJZn7d7HRtqV69Fzdz5XIPTI+kRu8zY0LBjN2oX/Kk9e0DPe5oVZpt4SPLtd96Sc2rKKM/zRnMKCmtNI/d0skC+Yvly3HPPnaTuya2EKHseEuJY5l7UxbN/lJ4Gc5K1gU90VQpctm5e/SfqSMBoCmw1X/VxCahJIUFSc6P66xJo9K4uNh7VqemaQvMIIsGBClTNj7wOm4cBeOz/tjP64O6z+iE+Rk/0FBwuYcEZ+s4z+6FtahS251VKr8Co3mnS3ZeTWymt9g4Zzt1Uelf5tr3lSIgOx3kTumDSeQMc6twVxDsPtk2JFutUJLDVLpa7MGFQlnyXlRKpvhPtRmVhmKPdaca9N2Uz8oprMIaElYcuGITjR7STngamb8dEPHD+QPTtpHcbqo/4rYdys9nobnOFK76ff/lZlicp/3u2lCv7d999VyorX5WdN/g7lvC9raBgW9nU/Lx86THwiOY0X7Z/+dVX2OanlcJzEB599NFm+YNhP7z8f/8nJ2464xx233//vewq6U5g9j7x5OPYl8utFNKvCZoG6plXWnzmq9fBi/LfC7vdLsMQ01fsRRUJ5FzocUW4fleZQ3DolB6P8f0zkOIQqhUcbdy1+9ZPG5FbVEN5nFrI6o321ybd5Us38+FpCv6G45sbK2VVhjCXQWVA+/RYVFXX48Pft5BgsArzSA9nzxOoda8HH5vJZmzeXY4S7TRP4x3Qo0MCKmrqUUnmdMqIceRv+c4UCWFUXvHumCzw/LBgN8oqWIhWepWJht7BXdRwDKNUySS64bievy4Xb/+memY7UvmXHNfUVqZup4GuEn3B2Qgf0E97coHst0VGIe6KS2CL4R0ODfcaeFIzQa8j+vZGwqP3IyQ93YNLFDHnnYXoicfSHZvnx0wXWCjgeUcsuJvN5zTAm9G5MnPmLO2u6ZQU5aG8yJTWtF+FepI0mU9CaTWfBGxOETreQkHBvQjF3ShOtHTlCXtoGAr6DCW9gWxA550gEBzYk3xRMGn+LaGMMunD5fjg963Suh9JQgCPQTpwhIuqfsPDbNJdyGOST3y2Wrahzc6MQywJHjx+yUMGfTvy2JMRFUXlqkWb3SZOMlk86eUxyCht61PO3A+QG/YUqErMd5J0OAjTl++V7/YW1pAqRb680r/mateuhi5InZylK1NrpQw3v7kIf24okK7Is8dnO7pL1+6glsxHK7Bmu+rFaNS2DVWm+nZZ0zD8YYYl8717dsvQCbWHSMU92eiu2Je7r9lLAXmOQW6uOpveCc1ZZtdt20YtSY8tdf9s3mQMczngCHHhz0ULxe/ehAdR9RL8+fn5KCo2zt934GIWCxa8ysIT3up5M6tXrSJ3sEaTZg/uNc8WP7BQ/jKEnhCndDCqTxpuPq0PulA+NsP6oyNCMbpfBrKoEi7lI/pNgtXpYzvhnPGdpJLWUxZPRL7n7P7SEDGHJ89vYm1c6e8qpPKAtC/fXMiWyERoPaK6tY2X73lugY5uI/cidCU35hVXyxAnbyMe4Zh/w98b9vE3PBzJ0ZiRFOXYCM8u8WroY7hRxPOeDNR3eppduUWlwVgqE3mYs6m4C5vqOSwzE7HXXoGQWM3/ZqGV7I489BDEnH6SPOqNJGeTTPodmHRor6MmjEPs5RfDFkotc6Uk2nhuQPSxRyHh9ptgk2O2+a0nM73Du8VmZGQ4worhe57T0KNnD4S4zHHKzlbDXe5h4h2Z8EjuanRqQHh3J5dptdUV5A491AKH9VenZiC3/3D2iBaaJlNCwlDYexCq0rNcI6PJND0ltTrsA90XLC3bJeNeelQ32WJ66ZYiCXheOeGE9gn/FJbWSKUaF0UJgQoJLkR4VQJnlozEKPraRhk8ViskFNNXqLHtY4a1xYhe6cgjM8xwV+SMlbkor+bKSbNMiwP3KNXdTxVaboV8x7vaMSz88UQlnszJk1ryimuRmhCFs8d1Qh8SdniIIp/szs6Kx6kHd8Y0Ejy4soqNooyiSY7c6uJJcqyPCaEw4jfq7f6PQp5Y161bdwo/tX86X/w3KdnYcprdwmqdO3Xyv3WrKaOa4VMdu3Tp4paRk5OSxQ1mevXq5XPyoi+GDz/IyQ4miwpC1+2zx48b72avA63w8OwTtQ206yl73IpJ0Y4f1wufqOgoDBumThZsDuPIja7wwWB6PAnkSN7m2tXPwYi7C5WKvnMgL2oz6+KJb5/NzJF5T4LuZfIrT0Tk3j/Wbh7aZGas2Ic/lu2jgpryknxjR0FJDT6cuhXlImQog9gm7RahlBYiw1Sak1VPZAdPuORfhuclfUDfb9ylTRx2YJPJnNyg4SFPnigdTcJIf8r/BlxKiW3yxA0mbmD065SE2Ai16kp1aevp0SYH+W2n8iYjyXtPghKCqEJqpDyre6QJuKcZ9cwmRR06FrFXXSKVurnrM3LcwUh48G5O8PKs+8rVJHc86CD7Yy44CzE8NKLnd1KLGDMSCY9Okj3lmu4rBef3s88+F6NGjUYoxSsLEhMmHIaTTz4FPXv0xEUXXoQYEUog29zfe+99EoYe85GXsNVDKz45DRHRWu+LXS3M5OOzI2UypEF0XAJd7hNSm0JFh24o7dBFwsnAhtKOXVDWsau4yZMXmoKXUvHvgWUkjhSevcwTfP57cm+Z6CSTJJcaLVEjjpTveWbzT4t2U0YLweVHd5eZ2DxXgWeL3/XuUhKG7WhDgkeMLHFU/Lp4J3ZSRu/RPhHXTuxBrYF47Y2BVI9imS69Kbi9b86EjjtWM2lkPTymOXFkB1nB0adjIn76c5f0gFxyZDd0zoqRFRdLNhfg4iO74ISRbXHDiVwhhmDdzlJjVjdL81pEG/bqSzJNFu5HTjrpJAynCk6fd9GhQ3tceeWVGDt2rDyzK/r36yfHYAd2DoM7/N2ll16Otu3aOezhA60uueRSWbGhc/zxx8uZ+c2pCDn8Tj31FIwZM0ZyD7t70KAhOPzwI3DCCSeKsMZ6+FTLJ598Sn3kCy9O4ELogUkPIkmbucxC0SWXXIbjJ05EBxIo2O2xsfG4+657nfzWVO6++x4cdNBB2lMjuXsMDh49Bqeccir5RWVvFi7Y7gMB76nZnNoNXSu3FuPDP7ZIpS1IBabyZ2llrVTsvIJhxkp9mE3x+9I9+I2EiXpuF2hxmEsC+tu/bhT9esnKX/Azn74bHxOGrm3jSNGOoT3V8eurqcHCOtk+nkD9zq+bsG5HqbkeJew4pK+aoM3DCrxaghnVJ52NcsDu42eu5LnsYvp3SVJzm3R98is2iuDwM5V7NXVcTvALzc0mM4dr7uSjxV1XibQEsYnKqdgrL0P0aapngQkf0B8Jj9yL0DQ1aVNHucyM5kh+4f6SMDxhi4hA/I3XI+qYI0Q5JDkJcTdcjZD4ePpUiVsKk8cFc4x7pk+fPnj33fcwfdoMTJ8+A6+88qoIFLwiadKkB/DLz7/i66+/xfff/yBCRdMwbI+MisGQg49BUlpbEbTiElLQrnNP9Ow/EslpbcQPUTHx6DXwYCoHY/262yeU74t6DEBtrCGAVKdkoaDPEDRK46/lBJXgoAcWZ8aHP1mJWZR5pi3bi9veXIKlmwqRV1aFRz9fSQXFVll2V0iZ4dmv18ox2nNX5+GhT1bgqzk52Lq3DE9+uQpfzNqOFVSwPPHZKlkuszqnRMYnf1q4SzLdgx+uwM8LdlEBske+5UlNSzYVycFZL3y7TpLkO79vETu27q2QnoDXyK6nv15jqrRUwl29rQiPfb4as9fopwza8e3cHDJzNZ78Ql2cydlN/331TzxOz3e/s1z8Vk4FE7vrtZ82yomIX83OwVP0nls+rP7N3O1yuA//Pv75GlnqpTrBWhvPyZX92qZNW3z11Tf4448/MHny95g3dwG2bd2OBx54iDLZIsyeNQe//fY7OndW3XmeMIQe724fOHAgmTVbjrv+9dff8Pbb72Lr1i345NNPMXv2XCxY8CfefPNtR6+GYabCUVRw/HjwDvslIyMTH330sRQK33/3Az4ls3mPiOuuuw5z58zDnDlz8cknnyEx0bvkz0bz5VxBOHPcccfJxlVffPklpk6djh49uqOivBx//P6HPPPSr8svv9yUlppOLLWIPv/iSwqrKfiW4uWZZ57FnLmz8eCDD8upn1wYfvThx8jKyiL3egr35tsdnJDgp4XngnX5yMmrkFb3QT24IjP8yqsSbj+jLy48PFvSECcj3kPljjNI+CV1nmOgRy3nNx5CDCOh8rKjuuO5q4bjoO5pMo/h+4W8g6FKVwr+pcuwSuYyjB2QLnmYl3xv2FUqwsHovmnSsDCgsoTMqW9olB4RHhZJjAnH+P7pDmOV0VqPI+ldsaUQyzbxECarKBfrTrnoiG64/sSecs9zQ3jul2t+aTHUUo+94SqE8emVUZGIu/oyhLVVy8ndMdnt1xmaJzT4ZMzYi89DaEYaos86GRFDB1M8q+3oDZy/cXrjiB9nWJ3zOS9Z5l5VHipYunQpKiursGjRIlLvIY0Izj/cw6nMcXa8Z5MZQ6jh33gSFg4aNxFHnHwZRh1+KpkXhuL8PRg+7gQcceoVGHvM2UjP6iB2eDczgKAjGmJikTv8EDRERqM+Jg57D6KGEq+E0d57JcD0EVSCgw5nHJ6gxMLDY5+vwlIeTyQfV1Q14PfFe7FwQz5qqCXBwgN37bOAUUKti5nUquCJVCwsTFmyV/YMYPie90HgFsGUJXuwarsa99u0u0yEgGfo4sNxWN/O/ErMWZMrLRRm/to8saOglPcVt5E5eZhKwoyBCujdVLiw2VuoYFDYsFzcsVvU+eK9JBh2H7d4eF8DhpMJT/76fOZ2mdvxf9+vd6y75u+W83ANWbN8izKP54DsN7R04yn5sCTev39/6faeP38efvjhO/zyyy+yrwJnMP9DB36TrRBDiX7YsOEYNGgw3nnnLdlbYcXylejevTsJJp2dCgHjXrmY/8rFAWbS5+qjyMgoOdp6xIgR4oe169bK0dSdOnUme3pID4HZHnfUO8fQrrPxDjIzMzH2kHFIoxbYJ59+gnnz5iEnZ4e0dHg4w7cdmrF+9ERHRYtfRo4YRcLIbOTu24f3338XHTt0RK9efRwnf6r5KQZenByUGCHg3dX6GxbmOFz5uP1v5u6QLn8ekkyJ01tbdgzqmoojh/IwpZqFzvp5ozlW4yshJoLsNGx9+7fN0qvJc6B42IHnKfDpvDtyK0yOYxfol1LmZNghLUZWdfHkyue+WovHqTHBc6iSYiKld1Vh2MX2ck/J17N2yPNRw9qZ9iNRZhvYyB1r1eRRDd2kXh0SJCymLNuD96mxxSvC/KU3V1TF7GqnAZsX1rYN4i6+AJEjD0LkeKqgvGLY7TBRM95/3wAQ3q8vok8+AXFXXCrPnJ79+0ezwIFve3hokntN33nnXcmfnlBim0J3ty9TPbmwqqoc+3Zuwe6cjSgudN54yhnDZF0g9mqbSZlva+MSUNRrIEqze6hlmm6QLu0bQ14wGeID26G3/RaYTot/NJwkeeb4u7eMdjyrROSe7Hni3/PPP4vqmhoqlEOl1cyVOhcyvjLy4yQEcu/OHWf2wxGDs8ho35I1b8ryxpuvizPi4uJxww03+NwwidlJwuEFT89G/+xkPHThQCREe8owBnv37qVC4h0UFOYhOjoGV1x+pTZHwBNGeNz1zlIs21yC20/vjbEDM336g8NlxowZ+Pnnn6VFw8LXeedR68mPoDVvDQvPK9CtfQKeu3IoF5PaG88UFxfj5ZdfJr/kI57C67zzzqdWVDftrUL5gHselBDBmxRxz9uijcaM7wMFLux81xue02+g8Jf/z95VAEhxLO1vz92P4+Bwd/eQBOLu7hB/cXfi+pI/7p4QdxcIJITg7q7n7n77V1XP7Mz6nJAsL/fB3Pa0V3V3dXVPC8fAUHU7mBSKYHSndrJqZ4nHtM1hdBh2KoDdzofxkFl3UNZe4MODEwNUZN7boHK3Cl7MeeUx/XHyAWpRut9s0mCvfsMG6dwNeA+1jQZtd72zUg7FfPfmSbK11Cf0qDgA//oueAHz4uXvN+PTebtlrQtvrxd7enyF9ifHODxD98Ez3+c8Nh8xEcE4brzzuiZX6GGL87NQV1eD4KBQhIaHIS4+GUHa2UGu0PM7b30utmVW4IiRneTTu2ewT6XOyMxUQz09jWikwYUnisgH/WN5oFx5Jv6j33eI2RfaFYd2OMBTsQ9PG4HRsipcff/3VNm8wXuDU4d2Xf3SUjmsi7fK3nnWYESF+/7e5q8Bu4LXuvCszes/bZHR44xzh8gBQdZose5jV24l7iShx1PYx4/vLOtXnKec/cMfbQ1NTfLJjD+9pcVH4P7zh8riWgUrJaOUA3/prKUO8D5SHPgbeCCDKWCqfcGdK0YoZzfjzT2MN3iLyxW6i/LrgM9AZkdfHp3djDdlYjObDLjbWAWHOnpMZ1x7Qj/T7o+2gPos9NuqXPkEzAfs/ffiUejVOUajoO3Aszas4C/bWiQnhl5yZG9RiAwovrUWPNN9L7WhUBoInDgxA9ERJNe8RK1KQ3XXYvLTPpV/RcsPS/bKEQODuyVilLZORkk2ZdLBsau/eibMmdHfFcw+GNtzyjFPm233hXbFoR1O4Ps+jhrdEf26xMsUb+ugqmVeUS1+WpGFLXtKZWqfv/kO7ZEoh3DFUQff2lQYDdSweAfO7JXZalU8ISU2XFbW89kcQSSgWk0NNXI+0vz7xVnYnlsmK995ES4vcps4MBmRYb4VIauorm3Cgo15+Gt9vowAWLDwiYjHje0s96g0R5nyBv7GviO3At8tzEJBmeeDsAIfuthzBdtzZ+dpTUfggD8jqE9d/MeqGGYF1TtdRpytB+8c4YOo+NNNbCSPhs359JVn3Y0zQ+VgUytQWWGob7Bj9c5ivPHzFmlLvFtmVO9EOZqf67jnus3xkL0nJw/gdHj3yus/b5W1IvzpOz4qDNOO6IXDabQerm25bxmYLpURPqyPF7G++M0mlFapz8c8EzC6bwqSZTeLtQxzjAwvlKOC4l62tVDON2ILXlzPx5r37xyHYJI/apm8ObTruw62UwqFUi4Mn7wBgXcELt1cYGkRbbvi0A43cMPj9tvcEb9nKIGhjslW0ONvM4hQca3GnAA1EE9OLYKKzzt0gtokMYK/9FoGjlHPaTsYzeOz+KQKpV9f7R3szo/eyXvjvNmef8158RameWgzZcJHw1U59ZV/s7m58By7L7imZs46/3CptCQ3vnLiLC99K3hKLrnm0h0SJ8flKsToVcpU4mELftH9uKbNqgLnWtmpI8G1wGY62MhWFrB/KA4mguKiw+UwJz6vgb8pMTv4Oy0vVlq/u9Rl4aArJ5SmZZE3/0qYOca/za8c5lC6WY+Ruc9Vmsug+TH7hjkdBXcbPT8tgbewrYnzn8D+ll8d5nESUUAkeO7D2I9smHah1BFS+1XgN28dQeuxr+JtCVqSFz2M4pI1uKZjNV1r/qz4MnJrmFzh3aV5UPFYy3tbQklQnQrvae+rnO0XigNrXVERIXK861Fj1C2BzDgHU2Rbjk2mX39dloNvFu6ROyPa8W+DLgr8N6jmQ2nxfDmurrkz9k3DNGJVIxMxOuDJzho4Xkbb5/ifAJ+aOKRnIsb3T0GvjjFIjAlGYUWjLLzjbc18z4Mc0NSOFoPrWhCxUAao+wxcH/dpAho4Db3utyRNz2Fa3h7bBmaqWobmxxDQigOTwxfC8DW0vOikayqfvGUUnPP8gSKD7XbnVePrBXvlpklWOpSbUjWsaGntcObp/gFVrv90I25rGDV1X9RZ51H8/gDOa8ekSBw8NA2TBqUilq8XFgKIN+q/g1OllQ2Yvy5ftlarm2zbEWhQZaXXwLau3/sOeh0zaty+hf9UjBxZh3sYo4/0jeAek867VzMHHHhx3qTBqXINLd9/72Cd9AxEIr2yjVIelBtPUyZEh2JozwRZWLYjV101rKCFb4dHOH+jazteacWlYd+UgV4H1K+Cc7pti30XtaJDN4ni63lO3gQ9jKs//d1beDO3Aht6TvnK/UuO6i1XaxtnGxA0QgyKbbK4r0/nWPTLiJMzXPiGXVW/9xeq/1noXLJUBVsBR/xt2qhUZM6DS2d4d7EGI7u+02k93GN2ZZUMmDSzVTiHaR7zA3rGoXvHWNknz2e8WwLTrVHDBclXar/yw1bZctYOa+BLdXgkl5HMK5zdqic9+rsvM0NV9iZbE/bm1uKvDTTqK+FDrexyXfCQ7okY2TsRkY6ytRq3bmYY77UNjVixpRgrdxShlhRGPsiFbzZlWvgUQKPptSAdokEdim/Hnrwq/LE+TzohBl+kNq5fCvp14WuSOUwz4/bgVkb1dtHGfGzJrJBtmfxxJDEuDF1S4xARQjVbvPuLm80MfjebGRQHkZRfViNXSfO9LIEOLr/epATceEp/RMrdDQyDXgeVTuTr7jYUldfItfm5xTXKyRS2HZ7BSlYS1bvuHWKQHKvuw+DTL+UfVUI7n6lAPGySuxfU52JWAtiaFV5lx1uC2Z3t+FTMRhSW1iG3tAZ19epzMl9GxpeFdU2LlnYrYfU4xMAfBzkutuOIguSd0+WIdXt+lL8gkv11coR4CV/HTnlkxYTvLerTOQ5REcFoauIaRTmkQPywH4MeoVCLj+Ilv5IPemvkHwkH1PM9Q6W1yCmu1uJQ8oB3cXUi+WlHI4XTwvIvufPpw/yraGM3pkOCqjg0/+KHEmd6SirqZeu3vtuBvMiljHzbKX+uIxv6p+eRf8Wb2EpEyiRmSYLNbKcMkj6b+QTjCu2OJX8IWMUhPjoct585AOmJ6qIUK2CGcl+n2KiEAp/k+PDH61Evh9K3wxf4dLunLx2FrlTxFbhqtES4OofjSrlqexFueHUpvdlw8qSuuPyYvrKtqC1RTQ3r/77aKKdt8jXCD54/jDpbdTJfSylxgla3+Erlxz9dL+nxFi++abH1W1edwaeiPvjBGjk2me8qOGR4uqzzUeC0mKKWQA+nBNm2zDJS6vIdgi9Q0SkpCled0BedqIMRfVbABi98F2slHHUfrLj+97MNslWP4SN0O4g53UkO3H7GIOlsWw53LvMplx/9vlMeLp9zpvTAWVO6a51ga6HS4+2FG/aU4vFP1mNPQSV6d4rBjHOHy2WJrSl3c1iWBUVldXjj561ynQDb33HmEBw0tAMNItqCFoU66rsWrCuQ6xb4WpKE2DAcMrQjYqJCKU3OEaO5FClK9NAMljlLNhdgF2/79IO2o65NYcOUoWlIpxGjejP+6uBzyl2hCxRdaWDwtdlTh6Vpbwx2ay6T/x3g3SqG0sAw+GSuYP7hzF/uU3mdSmp8pHSwhwxPa3OlgcGzFxP7J0nq/TPikJZAQkLrEL2n1gzKKBIehQ0gPqXQSIw78iE9EsSuLcE54pHLyD6J4EshUxPCEUmjJAOuefaTPmvUDrBZvfNf7og5rUCF5Jb+TBiUIndJOIMFn/pngM30yA9LAgpMEfBxvVwf+MRSjk8GGU7h2uEE4s+wngno1cn98j/fcOUpReQCvhn0ECqHtIQIqXsHkXxuyZXfnqHS44OeBnaLw4HUiTOmDElz3LBszlFza4A5LNctVuovPKK3HGbH/RXLtpYpDd5zEhoSLKfTjuydSm9NGNQlHrGiNDD4rzlX/qD7NYfhgTbLnFCM7qVu7/WHgFMcWM7HRIZgUHfSch0Cj38VY5WQsCO3qBbbc8vlpKs9+eZ1DM7gkIdTJVUVU4XV42qHM/hWTm8wV7OWgIV1WCifLa8a9b4qg7DQUKlDMgPA//nXJ/y5u4NPiWQahBbq2Zsfg2/o8fFJdCycQoI4DV+p6K3CEyicrlF7YXlbKz5tCc4yr1U4YGCq4oCmCOpgvrAV347Jx2bzrbJ8j42CQbfOAj6KPJWv2pf3wKU7ECD1vNl1w5p/PmKaZTKLgjAaROyTkqD+I476Eh48RER4PnpepatVjhYinPIfFRaEyNAQkQkti807B9iFn8QYVvBtXmdmOF0jbWe1WJmVD1X3lY0eN4NDRIT7PqJfR8ApDsz4pNgwGtEZd8wrsajIkypG/79fnIlnv9yEZ7/ahLd/3S5uZiidQ4WMiwlDZxpZ6XG0wzP2dQciFZaLb1+nYzF61XSaD5e+62+BlSQ9k20K6dHDvi2LlsPI19g+yUgkmcDw1MXwLZUvfrMZr/2wFc99vRnLtxQpB5NX3cjrXfjafYVApT0w0JLu3GrT0OPWv8vvCyg5o8ftK2etS1+PWcmdfaQEEazFrOfGmV4VUv1VfaM5LrPZF58MBJjioDIdExkm26wcjJLPEiaCiPIRvZPkljr+LnPIcL4ymH0YfswjChqwISnamibVDu/QuWuvr0djfgHq165Hw7btaCorJ0tT+XgBXxIkZWIqG2/gRUTFxcVYu3atPIWFBWLnD/5zQdA8cQ7qt2xF6V33o/C401F81Q2oW7YS9gb9yFU/sZGzbyr4KOwGrF69CtOmXYTRo0fS74VYtGihgxZZCOWLdxq7fKZDcYXU1siFNuxXjy+ovg7BNdXyyw4+0wk4GHkd2z+Z6GcOOHNBCUDIzqm9hdW4+9zBstBu7U51C6140D5pCl/oH3/66ZuhT7/vT/wIbEjdorpe+8MvqPrgU83WP6Rz16eDLIAv2Hv55RelDfltOwRZ7dacgUpjI2oXLELN9z+h+vuf5an97Q/N0Q8sJsN5VnS8pD0vyrN161bNhzdotMqMrTvElup8/PYNiN+2EQn0KPMGZabfuB2bEFRH8sAbLNIQYIoDTzvaZXV6SIg6/U3AK9pdMKR7ArZlV8iWLD7rgadZPGlkbMe2HF87/MBrpVHlwM726mpUvv0BCk44HYUnnImCI09C8bQrUPvHfNj9dOxN0BaoWqicP/74A0455WQccsgUHHb4oTj+hOPwzjtvo4Y6SEvwlYbmVrt0BUouuRp1C5cgpFdPNO7NQtEFlxB97/OSacOjN/hxZuXg888/w4knnoBt27dh/PiJyMvLw/Tp08j+c/HDQs2bYBOu+5aL4h5RUohO835Cwpa1yoLiC6koR9qSP5Dxx4+IzMsmay4bPxkOKBiEGzMEztD7m46JEUikgcHPS7NQU9eArqn6WgjyoMsOIl1kAVnFRxl3ihiptKM14Dpsr6snpeETlD/7MvGVOWuRu7oGaAHZ2dmYMWMGZs2aJX2FP6XAcPWdFz23TeUVKL3uNpTceg/K7rhXnvInnhY/vmGdBs7zhx9+gPvvvw//ffIJPPnkk/Js3LhR8+EbvvUsGxI3r5GH5YFuTtywAsnrlyOMZEWTds1+axBwioNUQKoQvCrWE3RlghfXnTq5qyzgeeOnbSiqVFqUU9dFHFZbgiicT2a3g+G96hsudQuXoeLJZxA6fChSfv0WSR++jcacXJTe8yBQXKb58gyrRbBnzx5ce+21iIqKxNy5f2DWr7ORnJyChx95WK6ntgLpJDSzJ/CsQtktdwHUiBKefQKxj9+PpDdeQkj/fqh67yPUbfN/tawvcB1WV3a/idi4WHzwwYciHF577Q0MHDgIN918o4w6fENxzKdIYsFJSkFwAyk6TQ3i19bQhA4r/0J4cT7yho1FRacuatrNZ0SBBiOzsnjTk7TU7OKiQpAQE4IVW4tRTwKgY5K+E8uFYBtvhePtwDQo0Zz2K5bsR1Ctb99zl9uZL/Bw0irYZ/3S5bCXlCLpzZeROutbeRJmvq48+IRV6abw2Wef4oDJk/Hbb3Mxf/4CeQ499FC/9PhHE/ZMOQ57ph6HvVOOVWZ6GqKiUR8Vg9KeA4lQ6mObmV9XBJTiwORwAfDBTbwX3xP07qCiugFdUqNk1S/fflZYovbV8zyFAyQddP/VNBJpR+tR9fGnCOraBQlPP4bgnt0QNnoEEl54Ck25+aieO0fz5RlBVDRWmvEbb7xO/Xko7rrrHgwYMACDBg3Em2+8JdP+f5DiYKVxccPw5asxMxuNWTmkKPRF6IC+CAoLQ1ByIqLPOg32/ALYc/I1ny0DK8BFRUXIzMrE6aedjs6dOiM8PBzp6ekYO3YMamtqrI0wfA8vCJo7MZZ5G1xZifSFvyK0ogwFQ8ehKi2DHFQzt8L7QAS3dacOQOeJ9rNmZykqahvwyLQRGNU7CX+szXUvfX61q0WmdY0Um4tzO9zR0vribxaA4cT+VlRM/2n5ngXVc6LHUvnRZ7Cld4C9kescyazkJIQkJSnHNsKWLVuwcdNGdCJZUFlRgYiICHTo0EF+fZLjV0kiUASN4ZH0RKgnLAKReZkIqSpHeUYP1MfFi1+9X3SD7yQcCCjFQS/Ckso6FGszCJ5QTUrFe7N34JkvN+LnpTmy6rpjsqfzHlSMjcTwrEI+ctYiV9rhARov8/IRkpoKW3CIo+oFp6TAFhkBe2m5ZtM6ZGdnITo6CrGxxiK2FEojkhpWebm1NDhvvtqgLUJbfFtWAXtFlTITGrZsA6jB2SKNxbktASs3rPyEh4Vj3fr1jjUNdXV1yMrKFm4mJ6s79X3C6jQuRRhcW4sOaxYhsqwYBYNGoaJTN8WH/bza83XCTjQ4eKJ++QDJyppGLNlUiMyCSoRou1G8oahcDTLaERiwWMP3EYzUmwqKUDd/IZpo0FB6050oueI6VH/1nebqG1w9rdLx/fffO37PP/98XHvtNdiwYYPY+YrFXzPmkHpo9stPcE0V4nduQX10DEq796Wm4zuXVmciAuxThQIfqpFd5P1bdhQpCqP7JKO63o7wUBvuOHMo4hx70c2MYbMdW/aWa8LCN9Pa4QuKd+GDB6Fu+UrUb9iIJuqo+Kn+7EtZIBk6brT48QY1U+C/Yo4aNRrZOdlYsGABail+fr788ktZLDlgQH9LIxp/CE5LRfhBB6B24SJUvPomGgsLUfXZN6h870OEdO+KkB7dNJ+ewaRwLrzlhe0zMjIwePAQzPntNzz44IPYtm0bXnn1JXz+xacYOXKkzKZYm5r07kdfucB9aezenYgoyEXOiEmo6NITdupAxUfr2fWPYsGGQvrLPGCmu/NiUJdE9OkUKwcK8eV2h44wndtiOu9Fn4XatEc/4GY/Z8z+DEv1/u9F3aIlsMXFIeb6KxF90TloyMpCyR33on7NOs2HH1ioTvX19Vi4cAGOOeZYPPDAQzj44IPw66xfcPMtNzkGF62B4qq2RZx4HLt7C8LKi5A36mDYeUAk7q1HQCoOfMzu3NW5ctulJ7Dt2H7J+O/04bj//GHISKHRrnJyQ3WdHZ/+uZtM7ULCLyx0yBHnnomQbl1QePqFKL3mZpRMuxLlz72MiMOmIrRXT82XZ9i9rAZ2xTnnnIvJBxxIne0DuPjiabIj4cYbr0fPnj1x6KGHa75aCxsSHr0PEUcciuq3ZyJ/9MEovfkO2BqbEH3lxQjqwIettA7R0dG4/fY7cNhhh+P9me/hgMkT8eADDyI1NQ0vvvCS+GmtEsQNmOs+96dNIbwWIBjhxQX0on/q89/EA71lLN9ajOIKnoHkjt89t5E0aLj2xH54+MIRuO+8oXI/hU6VzbSwmmchcoprsbdAVxy8SY12CAK9YjQDVtpZcEZnpHwxEzGXTUf0xRci6bUXEEJyoOzO+9uspjQ2NuDmm2+RT69nnnkmHn/8v7jllluxYvlyzJs3T/PlGVYmH9mLrOuj38iiAiRs34Syrv1QF6s+UbRVoQak4sBYv6sEc1bmkolZoBWby2jDX2GymPltRQ525rCgaL02978OX1PaulNo7x6If/EpRJ15MpryC1G3fBWCEhIQc+UlsJFG6wtWF/5wh/vcc8/jhhtuQmVlJZYtWyq/t912B3r16qX58gItDSvNw5aYgPhH7kPKd58h5rorxC7mpmsQMfUgMbcGOq39+vXDiy++hJ9+/AlTDp6KyMhIXHftdejevbu4twV0WivSM1DZsTMSdqitWKo8lSjxBWul8nfByI2dCODc19bVY966AmrB1PVrzmYhysbgoCCkxIcjOjyE/Bg0u9K2clux456RdrTDjNBhgxHcOV3M3H55gBTcuxfq16+n7qNt+o+IiEiMGjVKe6O6SwrNuHHjERsbi3XrLM5sWABvwU5etxxNoeEo69YLTdRwuC2ov6pduLaN5iBgFQeebfhk3i7Zk82XgSj5pwkE7dUB1x5Pe9+wqxyzVuaI2SVEO5oDxXKFIBtCe5LycPdtCJs8gSU2dbZXIXToIEsasVWkpqbi6quvxuWXX0EdRy2uueYaHHfcceBLcNoK0rdHR6GxpBQVr72NiMOmIOrs04QmK1C6gUvd02Ae4URHx2DDho1YunQJjjjiSJx6CqXRRuDU9Rw0hoWjqN9Q1EfHInH7BkTlZpItu6q8eM5poEHnmw1BfLkQmXiN0p9rcuWCMXYWhcJEjMMouyac6TRXyZziKvy0JNPrTGY7Wgvia2Mjgryc0tgWqKmpoUK1SUfLbczqYMQnKAp7XR0aeCeVFp3EXVsHe0UlbDFxsPmdLbWWj9zcXNlSakZ5WTnqqKNnmnzBKqXcNmIydyKsohgl3fuhLi6ROnpuOMZ8Hf96psgfnQoBqzgwauvVIsh1u0qIacw2g3UsPIRDjm+Y2q/iD1ZsL8Tbs7a3L4RqCzjVJcXg6llzUPXuh4g++3REn3aK7tIm0IXB8uXLcN1114pGfuWV/xE7/2hGLshrU1YOyh96DLboaMRceyVsUeYTRo36ZobYkheTbuATBQX5eOK/j6NX7964//4HEBHJq6ctBNaTt5SQ8lMfHYe84RNhDwpG0oZlCCnXDkPa70AtXiObecUXVL1L7Tm/pJaavRd+yGcJZhoLSOWHdA+KwC4XHT371WYUy22J7WhLNBWX0FOMht17pPMNHT5Mc2k7rF69GlVVVfj5558QHh4mu5O4XlhqR/5A9aP2jz9RfPF/UPnBx6Qw1MJOCkrVJ1+ifj0p4JdeyJ6U31bivvvuw2WXXSKzC7ymgXdWPf/8c4ghZf+oo47SfHmG1RwE19UgfvtGVCeloqxHH0c4a7yylkpAKw6M7JJqPP7pOnw+bw8pEqwcEGEiGyjrLED0X7LnK0rrG5rw5fw9eP7rzcilEUY7rMPqjEHDrj0oueYmhPTuiWhuVMHBjs7eH3ytdtfBFZy3Mj700EMiLO684y4kJrbVligjn5yT6o8+Q+2ylUh4eAZCB/FiReWmYI0mf+DTIvNopPHfJ56QbVdtCb5wWJ+a5+2u/FuXkITcYWMRUlOFzn/NQhCP0gRtQ88/AS6XrVnl+O9n6+UaYwdMix9VzeK/PFOh0dpkR15xLV76frPcZ8F1i+uqqusqRDs8wx939NpU/tATyB01GQVHnwI7tdeo6eeTrfW65k8mbN++HYcffih69OiGZ597Fp3SO2Hy5AM1V9/wJ5dUPbEhtE9v2EghKbv7IeSOmIS8weNQ+cTTCB8zErFXXmKBHKbCf33ixZCr16zB1KkHo2N6Gg46aLKcLPvggw/JzrG2QPK6JXKSbMHAkSSbm3eBnVU5HvCKg0wqUHl8tygTD324Fj8sycLaXSXYnVeBLBIEmYXV2JVfgXW7SvHd4mzcP3MNvl6wFw3q4vR2NAPeq70zLxu370BI166IveFqBGmVvU00fxNKS0sQEhKCRx99HEOGDNFs2wLmfNoRfvRhiH/kXoQfcrCyciLDW/MgfjSjej322BNCR79+A1rIJ++J2e3BaAwNpdFFB9TxlCr9Y9+1yR1R0mcw6mITEJO9izpQTeneT8Fs49yz0sBXmv+0LAvZRdVEFpURCwmCg0tCph1Z5M532jxIciMz31A2uAyCNGWrHc2FwTNVm+wIHdgfkScdj8hTT0T8808idEAfh6tPWGQ/j8ynTZuOk08+Bf+58j+YOfNDdOzYUXNtHfRcBnfrioRXaeR/9WWIOPwQhJ9wDGLuuQ3xTz6iPPgjxyItTMM7b78j9Jx26qnyKfb992fimGOOsaDk+Aa7cxTVKZ1R1HcIGqJbcx26b9im3PKLRZL/aXDJsfALQnREsBw1rX924k+W/FmjqqaBzHaTcGbS/JV4O3RMHdYRd51toZOmhtyYnYPgTunEXjW6s6Jtn/3YPBSW1uG5/4xBXz93/PPsUUFBoZx10Jx1DfPX5ePud1fiqDGdcd2J/a1d18sVyOKOD0ZpVR1uenW5fAbjQ4f80dJSfDl/N174djMGdovH6D6eRyNSw6k8ghoaYCc+2XlnhVbtbY2NpOU1kCEITSHB8utKJW9f/GlpJsqIpkAG55vJUuA2HiQX4fXoGIMBXeJFJnBZ882Y5dX12Li7FDvzKlFcXkfVVQ/JdUGfodDNzjG3w8Dpk7vj8mNZCTCgVS2Bw8wGrn/0YuP6ZwG5pADe8dZKObPnhf+MQ8ck/wureSsjn43CsKqAf/z7TrzywxZce9IAnDA+Q7N1hk6HzD4ILfVSv2jkws5+UVJRh4v/b6Fcsf3KteM0W99gehqIZzw4Ylih59FP1uKXZdkkp9PRtUO0ZmuAs86QmEgmsDywxiUDPKv/4Vz3SyNdYV0iBwDskl27XGzFK6PzS2tQQL8swNlOKoBWAGoQ0ly2tcMjtPYkRlZpqUIGd+5Ebxqv9wGfueHyAkmrAsI6dEpMIKXBXlGBxqwszUKDB6+BBv48wQKiMSxMlAYWfmoanmQHKxJh4bCzsBWlYf9tD8ayLob63JBfUoPFmwrw9q9b8eJ3m/HMVxvxMv3OnL0Dy7YUkZJaK0qDUYxKaVDv+nbV/aCQAxDMNUeJsIGvlLbY0bYELAfCqI7zb1vLBD02bh8Sf0hoM2sFx9C8PHE6rAS1hB5v/pWt5tYCpaE5CAjFgQm0UlBmRjDvFAM9s0cXnu5oS0HhmohrfpzTaknKRmxeCdr3oKTVBDj9mistGVtPoXdw56Cnx/oKP62HZz5Wvvshqr/5STR1Bzx7JXh18AiVd5X5vDw+ytoaIVZ8sR/JjXgW0WfKnTKJE6Vv7kL3PyjVwUydbvQkSHUbxR/9Tf2a/zYPnvjnHE9LYg1YaJ+AzNCtrNKp13tXsK1ysRaTt3jaGpxOY0EBaudYvBFToFHTzMLnGZQ2p0sus7OC1qUbEIoDk+Cd57qLVjgCttOzbrazUnJW/XmGwW41++EMcx4ZzumYU/afA+XDiI1N/kPtC6jK7Tlt3Vblk97M5OvwZGcBPJX3wQcf4KWXXsSOHdtFWfTX0JrbDvmwlPptO1H+9Auo+fo7uR2PO1i1sc9qI/QNzjd3bitXrsRNN11PdHm+h8UNHjpEN4gXfTzuTLwRXDKgmfdfMHVcNjolZopci53fxV3+6K6uvqzyRA/H/l3DOMfJb94HLfsZXNklMCzd2qLjk5DhJkqdx3gIwidvjs7geBobG7Fp0ybZiaCfstjWHS+nUzd/EUpnPAR7TfN24FhtYpzn6uoqvPHm63I+jXVYSEAyESRy0Jv0Yo61lm0BoTh4gxIRnihkO1e2eLIzw8x0c5xOYxg3uKZu+DWnpdsaQk1BD61s+S/b6L8Krino8GTvzW/bwFPF1/Nbt2ARCs+ZjvxJh6Hk6pvQuHsvmqjSV334KYrOugjFZ1yAyrdnylYmA1p+zfGS2UMybuD9zueedw6uv/5a3HvvDBx40AH46KMP2lxQ2AtLUH7fI/KNtmHjZlQ++wqZG7XFc16aRwuykJubgzvvvB1/LfgL3377jTU6yIs/XyHVlUhZuQBdZ3+BTn/+jMicvRTIjoiCHHTga7Xn/oCUtUsRXFtjie+BDcUNfeaE/+o0OV1up0Hc3Xpx/Z1d3cN4rp1WOGf48TBQ3z/hoydszMyS66aLzr8EZQ89ITutmAf16zai4vlXUP7YU6iZPVd59haNzicLDCssLMR5552Lgw8+EFOmHIRzzz1Hrqj3NNvUfBjpNxUVo+r9j9GUnUt0vATUW1TymwHO86+//opHH30Ur732mihEbQJq95H5OUhd/gc6Lp4rp0baSK7x2RpRJBcS169A/OY1CC8p9Fm2VhDQioM+Pe6tWrnLXldm8LtuR+KG/LvHpexdXdSIk+AUpWdmsyBj33xQlTkW40IRZau7mTsNOdzKKZR685zSvoU7P1U+7NR4yh59kpSHhWjIzkb1dz+J8lD7468iNGoXLUHt4mWyLYvtDPq88cs/VqxYjvl//qm9Ufutq8dLL70swsIy/DGRMlL5zgeU/8XqlfzzXRU1X31PTlZyyfBfUiwYHnvscaxatUoOe3n44Yexnk+j8wuVB08psAs/yasXI273VgRXVSK8KF+UhNCSAqQtm4+Y7N0ILStC3I6NiNvGl+j4z2sgQz7DCEsMOqTtkR2r7IpbrlC2hptucueFsxzwXAN40e6/Bx44oMk0HpFXvvIWauctQNVb76H8/sfQmJ+H0utuRfn/PY/KV99C2Y13oPaP+eJfhyeeWsEzzzyN2b/NlpkGfn4j86uvvqq5tgacI0WTndpp2YOPoW7FKnmv/uQrMq/kQpf3tsKfJNfuuON2VFdV4eln/o8GRB+ZZKZ3+PPDN+KmrFmMmL07EZW7V06OTNi6TuRDh+XzybwWSRtXiTm0orTFZcEIKMVBJySIKievUE1PiqAnEp0SI+UGTF41nZqg7JJiwxCirYRPI7vU+AgE0zs/7M4rrkNCbEhLVP47amGC3eUFQoN5hbbyl8x+OB5bEJIoDk6b7fkxcqjAmiPHm05+wkODtDal/LAxMSqM0qe8hwfLcbhsZn/JlF/OM9PD8SbFqgOBoiNC0JH8xNBvIuUjPSla3Jk2zmNrCtoKNJngDmpQ9Ru2kEHzQD8Nq9dSI3sc9kp1Vga78FW0tX8tFFo8Qa/43pJh6H7KyyvkU4UZfGqcnBxnAb7SYNjrG1D91beoePE1/thINhSCFb+GOlQ89xIaLF5s4y8dnoq8++67MXPme3I6HGP37l04/vhjsXLlCmujDVd+ajwKbmhCRGEe1QtuxspPSFUF0hf/jqDaaqO+kP9oEiRkUO/7IWIjgxETGYKYqFAyhyKEGnJSbDg6JEQiMiyInmB0oHYSS+4h1K46iEwIl7bMO7DSyI3bUmJMmMgXhs4NXkYWFR6KOIk7hMy8Y0stLuM2yu0yMtxY/Z5AcbB84jbJ7jGUHw7H/oI0mfS/Ac+0NFVUoPa332U3D2tydvqt+W2unO1Sv22b1DdW8BrLSlHx+ttaKIbrjKx1/P77XIlXB8uJZcuWaG8+IAMzC2hoROUb76D6y++IQKUcNuYXoOLZl2Cv8b/jyGrL4tNjr73uGuTnq2v7a6qr8cAD9+Onn34SmlqD4OpKUR502OyNchBUwpa1sJHsEcWb7FlGRBTxxXEtR3CPSefdq5n/cehFzA34/vOG4vJj++GUA7rKsye/GuP7J+P2M4bg9AO74oBBaaioacC27HJ8fMdkTBzYAYs3FiKMOuZ3b5qI4b2TsCWzHE9fNgpnT+mBEyd2oTAdUFbdgO1yd4WBkyd1xS2nDcR5U3vgoGFpKCc/mQVVmHHOEFx1fH9HHt6Z5bxNJT0pCm/eMAGnHdgNu/MqsUPiNSrqTacOxJXH9qWGZcd1Jw3A4SPTsXJ7MR48fyhOndwdSzbl49XrJmDCgBS51OuECRm459yhKKloEBqvObG/5O2IUZ2QTIKPT9DkA672FXp2jMGBQ0w3CxJk3MWCgb//l1Cl1Mjj9ijfALV3+aE/4YcehPAJ5i1JemOw4fM/d6G6rglHj+ksgtcT+CZMHpnv2bOHGtliUhSMTx99+/XDwAEDEBUVLfdZeMLuvCrMWZ2DPp3jMJ74yh2HM4giEhLVX3yNsrvul08UDmhe7STw6jdvQdiEsQiK1y+HMVBT34hfl2fL9e6Hjkj3SktJSYnMLrz55uvybuTEJtdrz5//J4YOGyK3aJpddWzYU4olmwulE+xEdc0B6rzYN89oRefsQWhNtVPoIFLgXGOrTUxBZQbfj+HsUt9ol4OVeDtzoILL8LHpIzFlRJpsRZs6PE22WV50RG9cfGRvlFbVU92Nxd3UXlnxrqD3/7tsLNXlDtLeph3eG1ed0B9nHNQdEwekoqi8HrvyKogTapaCO/7LjuqFkyZ1o7g7imxhO27PR43tjPMO6YURvZIwb60S9o9cOBKnTO6KdTtLMLJ3Mi49ureEO3BwGjJSIrFhbzn1Q9xOOXb3ct1fMKhbAkb39XD1O9W7qndmwl7HCreBxizTUcqqgiJ0QH9EHnuksjPxoqKmEbNX5ki9O4Z4zPz2BJ5d4HbEB8ItWrRIs+Us2HDeeedh0KDBjt0WnrBuZymWbS0kWZCK/hnu26ZFlaFiqvllFiqeeg72qmqnImvcsxeNmZkImzgOtnDP7byG5MA3C/eK4njsOM9bPhkrVi7H9dddjx3bjX6Ea0gNtV+ehUhP74j+/b2f9fLnujxsz66Quh4f7c6v4OoqxGTtIoVBmy+nP2wOaqBy0nZVsT3Ljar0LnIUtWtKfBz72p3F2pt3BOanCiKMC7SOBPyn83bhua83oo6E4WmTu4lisHJbicwkXHBoT3RJ5Q5E2KQVOIU1M56cykiQfEbxJMWFUYfcjRQT4yz1vp3jcclRvRERFoLfVuXJzAN39lFUCbQI8fxXGyUPBruU4O7WMRohQTw6saF/F+5gjHT5SGweFUVQfo8Y3QmpCWH4nZSDbaTMhIYEIyyE4qDCDKMRS7e0GFE+goLt8s59nUYRvl6wB5W1DTh+fGdMGao69dZqps0CJWULDUHYkYeSQadPT59o0DR6XbGPOuFYZTD5MfNFmYx3M6pJ+7711ltwxhmn4b7770VZebkTrStXrJCbMg88aDJmz57lkQ/GBLO7m4INTbl5qHztLTmf3hO47tUvX4OyO+73mIYqfd/gcD/++CPee/9dzYbhzIsdO3bi6quudlKOmgWKqqj/UKHUOZfUBlzyXdbd4qE8AQgWpL06xWFwt0QM6R4vSmEsCc7swmrpcEb3TUJCTCjiqV2nk1zgK7ZjIoNJQajD0dQpscLObSq7sEr2v994Un9EyQyCGgHzzCXHP6RHAvpR5zKqT5LIhJE0+DiNBgyj6X3KsA6SBoNnA3l2g2cbWFEZ2iMRfSnc8J6JMkg5g9qywv7Jb98gnoWGIurE48ioD2KorhGp6uRSDWwmu5hLL1LvGgwvhslbe+LZuOuvvx6TJk3Au+++Q32f0V0FBQfh+RdewMSJ43HXXXdptu7Q5YHX+VqyrvtrIUpvvkcu7ZOskJ3IM+2p/uYHlD/1vMv6LXf46kwzSfk495xzsHET9yMGdMr5WPrbbrtNzaz4hWdaGmhAxUfOK45SzNyP6glQGF7yLaawcBpIeFAIm4HAVBwcsMnIYvm2IvkcwEJi5pwduOudlXJ7Jk9V9jVdoSsgnqoKrOyYcXyoxce/7xJBwtOQLFR0jB+QTB18EL76azce/mgNflicRe4hmED2evlkl9SQ1lpEJqOhsMjpRwKMgsqZEqP6cEFwABWIO1Q2BZOHzslRNEq1ixLEF/a4gn2eNqkruqTEaDYGflyShS/m75FRV29SclhJ8aaR7gtwWnZScKJOOh4hPVwEonxwpof+20jrj73lWgT37KGxwFMefed79uzZ+Pjjj1BOCgN//2uiUZuZVh6l89R/MY0+nn76GTkgyhXu3HUGd6hB6emIueoK2GI8z1rwNHXYqOGIf+bxFvOaw7311htokM8g3mDH7t275RtnS1HToTMqOnfnBIW7qtZxgdCbxoxKGl3UJKZ64Y3mP4DBo/eL/vuXzALy9do3vbpUDsLZnFVGI1I7eqTFifLNJMeRQjGitxKKLDvG9kmRNvfS91tw7uPz5YTZaPIzeYj56G9VxrW1jbjjrRV477cdovAfOaoTOiVFyCiMuTuGFBRveO2HLbh35mrUkayZMrSD4mpgs9UvPFd9ZRl18QUI6dZVzHrvJPeCaOBOnk9gDB2p3Vuh8cJjlB7AMw233XarLIjmhZElJaXySURHIw0qy0pLZc3T66+/ivtpoNGiekzKT9WPP9MgwjRrRwZnJagJDRs2yZ0cLQHLnA8/VHR4o597lBKi55NPPvH7OdZzuRBPSHGo6NqLPBiZZ6OSDPImgcu69dUUDA+wyMKAVhx49H3p0X1w/LjOSIxR00Qbdpegtq5BRhuhNKJXMwMmEG90LUvXNuOjQnHveUNlXQFfllNQWuvw0yUlkgRDEwrKakjANGH1DlYQbPItVMdDFw7H4aPUdasMLoyIsCB0TY2SQlyzs0SmKNX0kRaxCZyLMFIg+NOGJ3dWbPi77IQBqfRmlJxu2puv1hEkxYbKGgkFw1/bwT1vDKYxpG8vxN5xE2whzjffMR9FSBxzJKIvOJdtJBrPufMcP4Mb14IFC9xGynxIihyUYhptMDKz9qLI13c6L62LO3S+6S7iuCMRf//dlID79GMQ0Rr34AwEJSVoNs7Q65U/8CjDCrwtlLSWih3F/YZ4FgTEgqbwSBT1H4YmGmV44/5+0cFJ5lVG9babRTKgrLoeyXFh6JUeK8fMx0SEIiM1Wk6Q5U9J4dROy6vqsSOnnENi055SiWpA13h60wlXv7w+YXD3RJl14AQ7p0SRS5Acc81tdExf73cJdCfFhWdDeCBRXKkri/sDY1uGoE4dEX3ZdGo/JA9cKxYVUFDXToi5Rl1VL3Dx46/OFRcX448/3M9S4FNkPZ0k+8UXX7Ro5o7lSsIdtyD63LP4m5iylLwZGQ5O74S4e+9AcFrL7pnhmZM9e/e4yTYzuHPnFHkgwffztAw2lHbrjfKMntq7gjnVMnIr7TVQe3OHVdnmXgIBBP7+9eYv2/DT0lzUk4bJYMHAgj8yPFhGG40kLLg8yEpYr375W43c3i9mXiQ5uHuCrA948vP1qKNf7vxZAPE3d+ZCaHCw+E5NiJQdFXX15IEDE+6nkcRvK3IcBc/heDEWL3bkzylhocEyazHWRbAwczlMPcXFMwXHTehEHZdeMBy/KqbVpHjsyq3Upk+1RAls4v4vNV511qUV9ZJ3BcNfW8FrjJxVGoVHHHKwnOXOp5Lp9vwE9+iG6Bv+A1skLyBVsRhxWauK3KEPGDBAEwo8sahCjR8/HqkdUhEdpY6k1eNKTkpGTIz7DI1V2Ki8I088FrFXX0oEEN+FFhpZUgcbf9+dCO3Xm2jwzmN/NHG5Dx8+wswIOV62UyeuA4ZlMOVj4sSJ2lvzwVWyISZelAM7VX4eGzMHbeTQFBKK7PFT0BCb4IOS/QeKMqaN6CaCeADAbYIXP2YkRWJbdpksiuZFkLx0Zf0eNULktsefI0Rp1BlBEejx6YXEn0EvOrwXxvZLRmZRFapr1PqXrZllqKypR4+OsVobdcdx4zNw+oHdwc3z9Z94ITHFairn/zXYqM1EnXEKIg49mLhHdMrNpKpsaMSH2FtukDssWoqoqChERhrHUPNuFuZnt+7d0atXL6McNcTExiIiwvex1Z5BLYbkVszVVyBskrY2i4hokkpG7TMlGcmfz0Ro/75coMq9meB2n9YhzVlmUFwRlC7TpNvzL5+Wy2s2WgIObw8OReHQ8aiLT1SWBJYFLCjq4pNQ2m8o7Hz8fCuht5zAA9FKegFWbivClqxSbNxTRh2/HSdP6oLDRqTTiCEBlbWN2FtQiW1Z5eiYGEEdc2dZB8FrCxZvNkajFdUNWEudczh19vzZQAfXjYWbCsAqAy8K5EWKU4eloZHSWbXDmJbihYu8oFIKmUuHwKu31XnhNozomSj2Y/s7Kw7slUdBPy7dK+fnD8hIkIVuKgpubKpr4mmxJz9fJ4qSgl5B7XJ/BC+44RHUFqKTp02Vy98IU3uJOu8MUiCmkElZhvTsgfjn/ovQzp3pzVOuFI0MQ+P2nPsTTjgBp556OqKjIxEZEYkpU6bimmuuQ+9evXHueRcgLS1N4sro0gWXXnppqy+6YeUk6hyiZ8qBQo6NBE/cvbcjbOxozYd/mFjjBK4rt9xyKw6YNFnu22Cl6Prrb8A4UoSOOfZYdCEaeLHn1Vdfg+OOO04L1XzonRN/juCLbeykiLDi20gKUOGQMaiL4+n1v7W27DtIr6TAxoLSGuSX1RIPWAELks+R3E544FhPo7zV1Ib5cwXvwhjSI1EWXfNaJI5l6eYC+qvHp375k8jsldl48+fteIoGGFV11B4p7n4UhtdPJFB4s/wwY29BlcTCCybX7lSzGqLd/C+DlLGER+9D2LgxRtnExiD+7tsQceRh6r2FiKRO9ZZbbzPaOLFy8uTJGDZsGIbSM2bMWEfdZ7lwz90zxNx8UBz0PygxHnH33ImQvn2k3JgcXhgde+ctCEpLJT/+ylKvS55x1lln44ADJosSwQn26d0HJ554Ig0aJlF/RT0QDZiGDR2GadOmtXhAxDlkNYRlQNGAETLLyOA1f40RUSgYPAr1UaY1ga1A4CoOqjwd4M8Ba3cVY2C3BFx/0gDZarVkSwHW7y7Fs19vpEbegFMndcVJpFjw6P2nxXzvgIqhlgTAbJkxAM48qLvMEOhtesmmQizdUohB3eNx51lD0Cs9Bj8uy8LOXBIETvxVL6r+2NAvI1ZW0fIlKve8twq5JMQGdEmUbaNmcCg+T5+nO3lBJy+iMtPF4Lzw91peZSydK43uFWw4dXJXuURpwfoC/Ez50jvffb850xl6ajZuTDNuQ1ByImxRkYijhhU2oJ/OHfmro7k5jKVRw2OPPYa5v/+BefPmy+EoGzeuR25eDqZPuwQ//vgz/vzzL3z/3Q9yyxyP1lsGLWf0E5SYQMLhZiA8HOEHT0bk8ccoN1+Q4P6pGzp0KN588y38+ussfPbZ55g06QBs3bIVjzz8KL4jGr74/AvcdNPNraBDQeXEhrJeg1Ah05Q2VHXsiopOau3D/wKYRnXmiYF66uh5VxWjpp4HB2UoJEWBwTdn8ie+L//aiyAaSJx9cA+8cs04UgLi5GZdbpPclvT2xAKXd5j8sDgTH8zZjrySWnRIpBEhufFiao6D10ZkpHpWHH5YvFdmP4bRIKKfrLsimK78/l+Fjdps3D23yqwjczHypOMQefpJWqfuv434wlFHHoWvvvoGL774Mt5/7wO89PIr8gkjJzsHb7zxlqxzepTkxefUjg499FAtVMsR0qs7El54UpQIRsRRhyL86MMdCopPEKm+/PXo0QNvkSz47be5+Omnn/Hee+8jIjxCaJg16zf8+sssfPjhRyIjvMEYePlHdWo6CgdpAyBSSnLGHIjaZBp4SRRqq7EFqrwioLZjMvd5qpUZxBdYLd9SjE17S1FT14Tq+ias2lYsK5n5NrKflmXjpe82k1+gqLIOf67Jx6Y9Jfh9bT41/F0Snkcdu0l4LCblYMHGAmzLqsBGii+vhNwoPgZ/7pi/gUYf9MvfMX8lBeOjOTtR09Agl2fxokhdOPH3TmkOlCiPatbvLsNCipdHG3vzq7FqR6EILH3LJOdz1Y5iWZC1nh9Scnjb5ua9ZViyuYhoK5dtYUs3F8uaDd4+up3S4nUWrLis2FaIv9YVyDXhvCiUd3gZdbM1xe4ZPdJjceBgz9/x9NS4cQSRsJCpu4oKRF1wttxj7yk3yk5Vdv77+Z+7ZesS31zpbQsjr2eIJ+UkLi4OtbV1eOihB1FWVoZRo0dRRzxMRu+skXu7MZP5yzNEvJB0fP8U9enKrUGrd90+KCEeQUmJCBs9QtHlB2o7Zg6qSVk9bERn2a3D9LmlQvHz9CnT0kD16YEH7sO6dWvRr19/jBo1SujwpTTweh6eOeO1Obw+Rk1qcirm1NSMjtBCxNZHxcjpcfkjxsvqafbLbUr5VDCH5s6Xt2Man8ACE6yQj+mTiDrq3P9cly8LnfW6xbMJvA331xVZMqOXEB2GH5dkyvX7W6k9yTktNNCwUee/M6cCz3y1Gbkl1fIJgxgnnyh4uyXXKY6bZQfPYE4enEptuB5nPPKH7KRIiQ0nWVAhgxZOmesZn+nQJSVK5ADngRWL8NAQatOFWu72Xwzpnig7TPwhKDVFFkfXr1qD+PvuQHAHXqvF0GuZO3jLO8/usMw9ZmwGYiK5PTv75zqdmJiIgQMHoFev3ti6dStmznyflIciHHHkkTIjOXzYcJIJlD6XpQu4b+A6sJxkOM8m9yOZIK3Bg18dwfFxsNdUo3FPFhKffwpBjgXU5lbjDNmOSTKaF+/z1lJvYFmQkpKC9PR07N27Fw8/8gi6ZGTgkEMOkVkT/jzjnjc9XTvmrc2Tme+eJKfNOwMFpuwpYxBq4xMQUlOF+rhElHXvq+J2iZ4VCdbHlbVdZsiZZ/4QcNdqc2Ezfcavr4Jmez37/MsB1I8ZHqw8w7LHFmBfxt1G4L3od501mEwWMkr01K1Zi7Ch7N8KcXac/vA8lFXW47krx8iWOn8oLS1FZiYfXATpZLt21Xd1eAdveb1v5urmXatNaKqpkQNtbNR4PYNpZNikM7n5tWUoquBrtUdqO3t882Dv3j2y2KuROmoeffC6Bm/Kjx4VbyF+6fvNGNwtASP7kHBUrk5wS5XaS0ReDmrS1GJePdcM3Z85TFVtvezc4U9pgQz+/MhrF7iz1xcrMiW8jboT2fNCSL6qOSmOFDUS4Nz56zTx+iNWKFhBKKHBQIlj8aIC71hiRYG3SXMcHBcvfuazM/jT4C5SRnntBO/YKKtqkAOn+NNIDg0SeK0TL9wuLKuRT6t8WBsvsubZDv704auTCmzYZHaWz6gw4FbbNNjRVEV8++gzRF90HnnxTTPL9JziGtz59ko5g+PFq8aScsxKru9wu3btwoYNvJDYRsrEQJIH2q4OF+i55HQ+mrsLr/20Bdef1B/Hju/iJwUVtmHTZjTt3IPwIw7R7Fj1dg5p5gQPEKc/tUAOA3yBaFHwxis+t6EGn3z6sZxXk5SYhGnTposy4Q+8648HtvypPiPFdUeYMUBg6IOM4IoyBNfXoTaBlSvlZs4Zh1IzEMrEs/Mf/b5D3HzBmlT9myAEOWjnN/XOGpE8mh2Trc4P0N8ZKqDhJ0gqjoAasu5XxaP86nD4E2vNTVtL4Axv7KJUtTg8hRJbTlccndNWULMsZuhvzr49hW078KyHY8eTZ0IMUFaU0qC9+EFldSMJ1zoZ2fI0sN/4CTzzMHDgIHm6dPEsJMxgHmYWqhXJxdRB8IyTwEJaQTQacFYajEDKxDQqOksra+XTGNPC2wMVfPMgI6MLzj77HDm05oADDvCuNDAoKp4J4yvjuVrwoWVScT3AbMv55Ke6Q0cKpw6BYXfHowghszG7wDMOPGIKdPAi6D3UGe/MrRClgcualz9z3nkUxjN9TfYgWffAOyjKq40ZCe7A+QwHnm1wVRoYzOtMqvscjpUGjruqronirRSlgcFlwYfvcPycj10UF6fN5b+dwnEHyIoKm/lTqSzO3m+VBoYdlaRUMh0GvNFD41tqO9HTzqdq6p9m5guXIc/MMu+ruH57jdtAt27dcOSRR+GII47wqjQwVKepTHxIIIPLx5yC8mGmTYHbSGi/Pgg7XCkNDFelgWG24TZUVdsgdcEQ497p4ZmH88+7AE/+9yncccedlpQGjlaXNdW15vaqp6PNPGq/un1jTDzqEpXSwHnjePQQDOXfkWnLsiAgT45kGI1OZ4gyOQg3e3bAPDthmGVKUgtgmEwsJHfNRDDsPMNcLXVQeM2/bqdi1+Plv+xHN7uDwxsu7houw3PItgNvSa1tsMtWVGoLIkSrqJJ6fWoapRLzIjJv7ryAlfffvzt7u0yJM3iVelpShIwEWYB4DOvy+MwLpcOCYenWQlkgx4thecTJK+kTosOl4/CaR/2pYT8NHt2qya2aBAMLIVZMPqE01uwqkT37rKB05G22VDjc6DyFb9ZDtBRSnH+tz8dn2qcd/lTHI27ePcAdKAsqTw/TyVON+qPbsYB29muncm6SdHiND29pDHyo2s+7e9SvpxZiCEBdyTe1coLzmwErcXsD+/QWp/VYAhGVVN95m2maNtPDgzJfnLHGa463Hl/9tQdLNhfIJ2Peij6wa7xsv7cCXdZ6h00UntU7S/HhnO2i0PFZO7wFlw/4Uz44fx7Sk6iJSn9JELgjZjnz2k9bZeE6ywdeRNs9LdriTKe5v/IO/jQ6d1UOPp/PWzp54FIvM2iRYSEqn8Jq/qNDLJTRBPZr6kGdwLYVxKdlW4pIluqDIe8IuE8VzYOqyP8MAXqJtQVc42Kze+H+HQim2pUYF4bwkBDKBfPXKsgnLwZzGRnzoTC11PGVVdSiwTSLw3cDxEeHaEpd68Gr6fmEUBZ2DE6JFQf9TgFOpbWlxeF550tJeZ3QojoYO9ERJtuD24qWBhJ6PLpgxUQHK1n8nZ/XbLjCqRXID3lyEiQKuo3wgl54xiSQj5puDszly7+eBCRXTfeZSt9QYdikh7MSnuubduzvfg4eRPBBe3rV5rMupDXJf+5gqfaRncNMHoN4a2ZQk1ZX+SRceifZwG5qJq0GWTSYYAWWwZ+QOiZE0a+WCMVF1V3FKXGTmf6o+Dh9AruTpe4mZkpftXTI2R3ZxTUoIbnDHtg+KT5MOnb2wr74PiKVZ0mM/FB+2C89fPIv/3KaEpoDaH4kT1Qx6qmd5lEaWUU11J6YFv50FiyfvdRR9xSSfiUOikDnD/8TWaH+ix1XMpa9bMM/7C7/yJ7X82QWVMrgRwcfZMgDCYaKW0LSP8oFkSMHWEkcGsRd1We5+Zf/a3b8l/NfVl1H8lPNuPlDQCsOxDOXfsgmIy8+2TGKCkjX6ngUxaM1HmnyCEuHnN7Ikag37XGfnhI+euAC+7bKHPanZ7U54ZxDeoe3PO4r8EQwNflm0MHwTIurrdRLpke97gNwzNRI6S8rFNIwxaa5aXL94vqi/zJULEyDFu0+g6LCHVoO5K8veKozepze4g5cqBwbVDvT706PYePuZgaXLbtS3ORR8Yv/6HEb7v9KNLOi++a1K3Q+c1tVNdoz9Fj1fPhOgTs+zrLKuh7GMzhdPrOhuQolQ88R9zFcb6yk11wwV1Su3ONV6eu58A5vlEmeW5jdwJ5xMFVa1kpH9U6Wc+H51kyectJPjeRRJk+78jQy76NevqVIpnfc4Y2F7XAH80kXms2FK5/12qnb7ety0OPnR0+7NTArDgptFbNv7Gs+7Y/Quc53wQShR1oMeqZHy7kqvFCRBxD82YrXM/B6CB7V7vty+t+FqoH7qrb7UxjaCub8tw0t3mJR/GK0TTrmGA20VdyuUGqKlZgDVnEQTUibDg4NDcG1J/TGoG7JMu2jw1UZ5ncmhg97evHbjfJdXMHcAXIHsC+Y/r8D5k5AVgov8JzftqXCWTtXcRsj1LaGnndfNOjurYOiwVc6gQneknbhYT2Q0SFaWrdwQkZ+qiPir2K8SPHtX7fJLZfmkaBebvsf1fsbmLsG3wMJXP5NVHGa036ttfd9Uat0HnqLV6VpLX++YTWOAJ5xUMzgbXsXHtYLGSlqxbvSiJSb8uNMrG67J79SrsHmhXg6gXqodvzdUKXiPL7YF6Wh0jHg+t6SND2HUbaubi2Jvx3NAX9vP3ZsZxw8rAOCPe1McQgCLgv9NMhc/Lg0UxayqkEEQy+n9jLzBeaM4mQ7nGHijKfets0ZZyVCdnfJh1+0JAyFCuRPFYnRYbjl9EFIT+bDb/xBYwAXoCY0eDX/i99vkj3VypVJ9R/Tvxm8KKdXp1iZAg5SK2y0x7WamHlp9qdP6fP6CLa3o6SsAWt2F8uOAT2eiPBgjORjgE2XiRnpeIrbDN2fDkqJkuXTN3fmVardtxr6ZcSja4cohNgoP9K4vcWtm81xO5tZ6SmqqMHq7aXabJZyT46NkJNHecGSEcZT3GaY49ah/PFOEz4sjM8UUN9r+ZCiEAzuEYsOcXwfiIKq6i1Lp6nJJucQrLZw936ggNc2XXtiP/TuFCeHq6qZEhdoAlyfeWD6G5sa5RjoZ77eKLtSnPnkiT/tMINP7FQTNvuYT+ZiaTEoAmoz0pfTmz7QNHULhDZJyA3CHa29thVkoSLF5xqjoo3qOAm71qenYmPo8sYfAlZx4ANWbjhxAAlLzzcUKkL9EWjDwg35ePkHPmEyIMkMOJw7tScuOrxnKyqjUS56JeTfJZuLcfc7K2QhK3e0z145Wg70aUvw1sVnv9qEn5Zlyqrmq48fgOMndCKXltLiCU1YtKkIj3y0VnZxjOidhIfOHy6KUFuB+cXf5me8uwqLN+cjOiIMt542CJMG6SfyKVhpAe5wDsUj8We+2CP5eTEAAHRlSURBVIg606LiQATvWrn6+H4Y1C2esq/l31eT1hQIdfmSMq/YVowXvt3kONm1Hb7BPOe7gaYMS5d7PliEOsSC9MJsQY/eIzvM9Aj/+Z3ahU0p2Ryedwqt3VmE13/aKseDs3wYRW3ozIO7oUtqtJI70uvr4V3j1sychsMfQTPzhU6NZM4qrMRbv24ThZHbE69/4RNGu6REU9/CATguLR7HL0M36/YMk5nrk9DDO6ya5DTi9XtL0CRraYLQvWOkXD3Ap0i6h9fjNsNLOhpYzy0oqcFKqrulVer2T757ZWTvZKTGhctR6I5oJW9ct3ULb3HrZs0f8au6rh7r95RiR3aFLCj3h4A7cloRBYzpmyyXO/G7ItNd69KnHY1QBnQ7Ps1r094yOcDFgHtM7QASokNx/wXDZdFZy2HwVlc++LdzSiTWUyPmBax8EdlkL0dbtwac705JEfhm4V706BiDi4/qjYjQYEc+mg+9FplrmE2OgF6+rRCFpXUi8Pj+lLYE55cVH96etXBjIbqmRIkyx/vdzXCmylMrMGC4OvtJS4jEyu3Fsh89MGCmQ7V6fuNL6A4amibb23RJIH2FG93au5S5yZ46lfTEKJTygU25FU4h2uEZh4/qjEuP6iNbmqPDQ+RuHr4dVJ6IYFmcrsza4zAHOfvTzByeFRCeMeIjk5dsKZTbju85ZygGZMQb8ZvCuMetmd38aWZyjyYzn60yaWAqFqwrQGllHYb3SsLAromyyJ7Pi+BTQtWjm/nX2cztTfk1PzZ6VFg+R4GPgufTFrl/SYkLw1RSsnhmLMzhzxzWX9zuTzjFkxATLp/otmaVyS3Oh41Kl1NNQ0m2OafDZv51Tdf10d21X5KbzLeOiZFyUJp526c3tKaH2AdQzZkZegAVugJPNvEuXBYIZrBftmNXdYocQ1eW1Btv3wzCmQd2F7OhoLrG1Q4Ga8mhrMHuA7DW3zlV3frGe8P3FVLi1QEvLOj0q5R9Q31Q8Qw9rHMc3NgSokjbp9YTTYJvXyGGhCyXR2ioDRFEj2+oPCpanCniN29c4Pbhdu79PwpzTjW1gHgwdXi6yAVzeSqT+S9Dmbi+ObOB42rCpMGpcu6GM4fa4Qo+e6FraqTiOXGrefwySsMbuqVGycg5gjryrnxxmP8gzYCKjJWSnp2j5TUtSf26KZQENUY32zm7+wJHl5Gmjn9OJcWU25Oqo9bj8A3mvN1xZHpkOLXXSNVeVQru6XAfZy4xNjuXn/ObHkMYKRKJmvz0hwBTHBT4Qho5jU+DXaZf3BnEU9Ov/bgVV7+4FFVyxCz5cvLG1YE7rCgabUQQQ5Xy0A7PYNa0dHTuXBXdwfHatCm+FiZhHVzOfnJkuDrGr/LXMihQS3llDaYc+kzGOd/Kq3MA9eaLvmbS/jejP41QM1IiKZeUT1NWeVqapWRNXQPen7MD1728FC99v0kOGFIweWav9K8LyQK+20JhX5bf/g4ekOndg95G2g76wU78Z1+1I64vwUIDp2WqCy5QPpS7+a/VXAVr/mVJmEWouK2kQLkjecYHQQksBJEBsskjm83vrtD7RC6GIIs3ugak4sAaVTyNtjh7wgTTNxeTUW66XLK5ECVVtaQ1ei41kS0UR2pC235P/59EMxswj+B0rlsJaS47q+CRY5PTefn+QFWaGpn3hqIywa7m7DRs2Y6mWucOpwXZdYKMejUwDTk5Odi9e7fclOkfVsuC/Jky2lRZiYZtRAv9Mow8eI/Pakr/FCYPVbOPrmWqCzw+7pflwKkHdJXbK/k2ROXXnTKe6u3fRV2b3PoS/h9HMyuGub774m1L5EDL4D6A8E8ShaEM6qEcv2Twl21fyolnKP/811dIJZabWRgMLVKmxpUP/OoxTVkT5B8BpzhwoYWHBSE0jKdmm2SWQGVTkan3bXx+/6d/7Nam0tjSC2OpE+GdAhwnx9EC9rfDC2p/mYPGXXvE7LESekFz9JPq6ip89NGHFjtbhpYTr2koB/ale2lqbEDZw0+gbsESzYZdWldXuB7rIym+5fOcc8/ByJHDMXbcGBxyyFSsXbtW/FiDj5xQFHysNzEIlW+8g/zxU1BwxInIG3cQKl56HTb9oi+Gl+Ss5uKfAOetf2e9o3cFEU7yIauoSmYpR/ZJknsC+Np8z1SxnV2OBG6HHzSz8tvr61G/foP2xlz2HgE3C3aXEqKOymr9Y+V7vdyOaQ2SA+k/VAquOZLaQH/4NzqL+pKSYpUryiAP8EOqKxGdvRuReTnkw/vghcMzmpoh2Dj+pqZG1NfXwU50WQ3pyx/ng+OM27YB8ds3In7HJsTRb8L2TUjYpsxxO7eIrOCIPMdlLScBpzgoYcuqgF5QzA69aBT4qttvFu4BLwYZ3D1Rs/UG1iANdrhpXu1oEezVNSh/4hnU/fmXvPuvbi3j+1dff4UXX3yBRuvZmo0/WEvHnN+6OX+i9g96fp0Ne5212y6lUvmArjQ0Usd9+eWXYtWqlbjkkktxw/U3kLCox2mnnYKtW7eKn1aBkuFGXPPTryh79CmEjhqB2JuvQ9jkA1Dx3Muo+uhz5Y/hv5ACDpzl+Gi+ctk7eCFsblENvpi/G1syK9A5OVqrBc5lpL+F02CjHW2Lmq++Q/mMh2GvUbN2/quaVhp8h4Uy+YDyy+3l+uuuRXa2VVlAoMi9xS/29IdjT1s2D3F7trGNILw4H+mL5iBlwyo0hfBlUjxA9QbdxfrMKOsz+aSULP/jBxTmZbrU1JYjiPrGRFIYRHHYvoGUBv7diMRNK5GybhlCy4tJI1L3ELUmzYBqQTr76+obTRf8uBcX33S2bEuhnNOwcluh2P2yPMsnK4wtWN6Lvx3WUfnBJ2jYtgOVr78LO43Y/cM63/WReHl5Oe6//z5s3bYVs2bNEjt/sDyIJ7BXe1U1qt79SF5qZv0Oe3GpcvQDq8lkZmZi48aNOOH4E+QK3ZtuupkUictRUlKCv/76U/PVStCIpXbeAoT06I7YW65H9GXTEH/HTQjp1ZNo+0Dz5A2Bp0q75qeBlC8ZOOrg4Rq/ax57pMXisJHpmLMqV1aI9+4cQ87swaXOaYMS85pxp3jb0QLY0VRaiqovv0X9hk2oW7pcs2876G167tw5WLNmDV57/VVlYQEc1LU+mcHFb+4EuWqFlxQhbcVfCKqrRf7g0ahNStFcfcOXauEJ9XU1KCsrREO9ecdfyyGpB4dg7+QjkWl6siYciqagYNTHxKGsR3/Nr2ohLUVAKQ56AfM1qPwwYa7fjbgS8Wr5rh2i0Z1GGnwbGSMyLNTBCteKwvtSA2e72f4I586lqbAIlc+9BFt0FBqzsmW0wbA+9e4bPFrnqD7//HOUlpQiISERL7z4PCoqKjQfbQOuLfWr15DA24CIqQfxNZ6o/vBT5egHVhtd165dsWLFKjzyyKMID1cjZ52boaFttJshKAhxj96H1F++RujAfpoltQZioi1i/5uWd+VtZmG1CHQHuLfnd7Jkv6wsjOqThHCSBb3TY7yeD6LisKNCW0jNcIq3HS2ADfUrqQ3xZ4qGBlT/+CuP/DS3tgHre3XUiX/yycdy8NeXX3wpa4XaBkZt46oQXFGKlLVL5BNf/pAxqOqQrhwtwLXeNgetCesEiqgxPMJ4wsIQnb0LoaSclHXpifroWPHGtLam6gfknF1hWR3ySmqdiNMZy5UoMTYMlxzVBzedOogERrLYTxxgaIUOv9pvTlEVPe2KQ1uAlYNqUhTs5ZWInn4+grt3RcWb79Goo0w6fF+wWlFZaSgsLMDX33yF1NRUXH3V1cjPy8fHH3+k+Wg7iKAjgRd79y0IP3AiKt5+H405eZqrd7jWSyvYtm0b7rnnbrz80svo3r07pk49RHPxDX98Zeh+7LX1qHzlTZTNeAgNmZmIufY/bCtu+yt4saMD5p6eFAhe38H3UizdXIjqmkZMGd6RBha+xJpNDu1pVxjaBiIPvvwGwXHxiDj2CNTPnYfGAjUL3Haw4csvv5L2c+YZZ6OgIF9mINtmoGLEEV5eLJ8sQmqrkTdiAirTu+739SS0qgJxu7ejJj4R5d16s6DQXFqHf1xxUGToxKjfqroGEgT5YtbhVH5EPC+K5G+V5x3SE+/cNMnj2QAchuvWt4v3oqFZK/PboUPx3ZjWsheXoGbWb7AlJMiUeMQhB6Np1y7U/rVQ8+EdVqeFuW6vW7cWy5cvwzXXXIOTTjoZHdLSMHPmTFloaAWSYy/pscCRp7Qc1Z9+hciTj0dIt64IJ1rsNXWo/OgTVXHaGDt27MB7772LHTu347TTT0OHDv4PwWpuLuw0Mqv68DPU/rkAwV27IGzCWCFFCdm2p+nvwB9rClT7tfEuHudC5cXTQWR1woQuePvGCeiXEae5uMNOFYtvztyeU9H+iaKN0LhjF2q++xlRZ59GSuqVaCwpRfUX37ZpVauqqsJdd92BocOG4ZZbbkF6ejq+//5b1GjrKXzCcju2I6IwD+GVpSjuPRTVqekqLNUTWXwcALCiKBk+KNPkP277JoTUVCF35GQ0haoZT1aGmKTWkPWPKw6KUJ1c9csE/bU+H5v2lMm7K3wR7Oq2cnsRFm8s0N7a4Que+OpqV79yNepXr0XsbdcjKCISUeecAVtwKGp+nUOjXWMK2BMcW4QtaL1vvPmGCIhzzz0fnTp1wkknnoRdu3Zi/vz5mo9WQEu+9OEnZD95cK8eqF+xGkExMbBFRaJu9u9ozPU969CSlQETJ07EDz/+iLPPOhuPP/4EvvtOfeLxhuanYUdQVDSS3n8NcY/ei6a8fJRccxPxneIRnvvn+z8Pd5rLq2qweFMRyUH+/KLsjI5fsxAH97Bm8KebDbtLUVDafoqsJfhjTUMDyh97CkHpaQg76AAEkXIffvBkVL7zPhoLrc46+Oc/f7IsKyvDkUccRcp2Gq677kYsW7YMK1et0Hz4h3+RY0NDZDSagkIRs2czgqsqHVlrzvkM+x6+CdFdWXZE5mUhds82lHTvi/podfgeoy2U5oD8VMHZqqlvwqs/bdG2VjG8l56ZEWZf+SQgvv6LtwuSh4Aq/ACFn9bFLKx8413eC4uaL75B0QWXofR26qDsTaidPReN+c6zRO6wVgiLlyzCb7Nno6qyChdccD7OOON0zP19LioqK2Sk0bxzHVzBY1YSEpu2oOb7n9BUXYOKJ55B0aXXoOS2u2EvL0XDlm2oW75S8+8P1lthVFQUBg0cjNNPPwPBwcFYtGiB5tJ6MGd5QGIPDkJwRmdEHnkYQgf0Q+2CRWjitSEWRiuBAZ2fxiwXr1GaszIHZZX1qinTY/jiPzptuq1nNJAC9cPiLNnKbWB/4cvfD5/cJLbVrVqLur8WIaRrBgmGKjRs3IyQ7t1gLy1D9UefaR59w3eJQRYRf/f9Nwii9tK3bx+sWrUKKSmJSExMwP3336/5agvYUZ3aCXnDxiOytAhpqxbA5nR/y/5TTzinQbXVSNq4Ek3hkajo2kuzV/8Mc8sRoIqDKjC+3OO92TuQLyfBcRUTlrCTAyJEXDjAMrK4og7v/7YdO3K1BXX+amg7FDN9oHbefNQtWiIjDHtBERpzcuQJTk0F6utR9fIb5MsoDNeKqb/7SqWurg5PPPEEgkNCEBsbi6ysTHlYieiS0QU//PADMum95d83KXUSCNXf/siHRCDyjFMQfdF5iDr/LESffzZirv4PghITUfPZ16oieYPFg1I++ugjDBs2BJ988onkmZ/i4mLZux1JIxwr8Fd1G/dmoujMaSi+6ApS6pSiba+tkS2zNr7Rh+fyfaGlrNynMAk2Umg3Z5bhu0Xc6TdqkwvKVf5yvaXHsFEmAZNOT1VtA177fgt25pZTUMfUl/bbjubC3tAgincjtaG6pStQeO40FJ1xgZwlYm9qJLefZcbLH0wl5REbNqzHkiVLEUL1+MILL8Bxxx2D6dOnIy+/QD5l/k4DCmvwV9ZUf4KCUJXeBSU9ByCisADJvEiSzzzQ3NsCeu3kp6Ge4hYGWI/bn0+OjmfWYvfsQFhFOYqJFt5NwWug9H8Mw9QyBKjioIGIXb2zCC9/vxnLtxTRSJOFidpMJfwmmJUGNrIf3qL57Fcb6Ne0qKod/uGqgWmQEyKrqmTRXVBqChIefxCJM99A8vv8vI6kt19G+MEHoOrzb1C/bYeE4Me1Yup6iedUFBYvXowVy5fjyCOOoM72M3z22ef0fCG/zzzzHKKio/DQQw9KQ2C4KhBW9GieGambPReh/Xoj4a5bEHPNZYi9+nJSGughc9TZp6J2/kLUr1ijhWg5Ro0aJbtBnnvuGbz00ot4443X8fTT/0eKUTAOP/xwzVfrEJSSguDOHVG3cAnKHnwclR9/jrLHn0bdmnWIOv1kBJECxmLCP2cCF1zMv67Iwkdzd6Gs2rRq31RnPQlCrh/lVfX48PedWLipQAlQevZnXvzT4LJopI67htpQ+NgxiP/vw0j47yP0PETPw4g+53Q07N6D2kVLtRDe4ThK2QteeeVlJCQk4Nlnn6c2ZDx333U3wsPC8eGHH1pb6+DzjAVTzaG6UUqdbVVqR8Rm7kTcbj5rxVPNahk4Jn5YTtXVkXJPzAyTnU/WaqQVX0G1VUjYuZloSEe5NtvQ1ghYxUEVFRU2cYqPlH32mw144dvNKCpT39H1jJuLNLe4Gs9/sxFPf7VJFkC1o23A18XWL1+NhnUbETp6JMImjkNQhxTtSUVQRmdEHH4IlRWN5N//WEL4m73wBD4Y6dtvv5bzG6ZPv1jWNqSldaQnTZ7hw0dgzOix+PKLL7Bp0yYJoysQOqw0rLrf56N+8xbE3HEzEBUpgtCM8IMPQlBiPMoeeUKzaT702YU+ffrg/fc/QD4pK/fddy/uvPMOOZfi9dffwNixYzXfXqDx0NfYQBSn8DDE3XMzQgf1R9XMT1F62wzUfPIVIo84BLGkGAmaXxwBBSlmEgdzVuXgyc82oKRCUx4cVwlz2bMn9ejkZhdU4cEP1+KP1c5rVpS7ldrSDldwWdR+/QOa9mYi7r7bEXnsUYg49kh61G/snVTngoNR8833WggPsMD6FSuW4ccff8Tpp52Ok046CSeeaDyXX34FhgwZgkWLFmLr1i1aCHf4T4ZrgvLFTYn1GN7GmDt6svwmbVyOsOIC1Z7FV+tQVVGGbRuWI3P7BuTs2YaQkBAkJLXdTcFMTeqqxQhqbEDRgBFoonJgutoaAas4mGnlwmTil24pxA2vLce9763Cs19vwis/bJbZiOe/3ih2d769AstMW7d04dEOa/DKL2409XWIOPJQxFx5sWZpgDvv8IMmI+qs02VGoqmiynNkWqF6q3SsOPBOg+uuu5461XFuSkF0dBTOP/98nHPuucjOztJsm4/QcaOQ8vlMhE8cL+8yAtVaF/+G9OuNpDdfRiwrFg3+r5j1BI5Tz/+ECRMwb958fPrp5/jgw4+w4K9FOPywI8StteAkOJ2g+AQkf/IuUr7+EMmvP4/k7z5F3KMPaL4UvJbvfgJdF92ZW4EbX1+O13/ahkUb87Ejp0qua88prsReUhS25ZTL7MKrP27FjJlrkVNUrQKaOGBzfGra37myL+GZN/aqGtT8NhcRJxwjO3dcvdnCQhFzyYVo2JOJJllkbJbm1sAnrn755ZcYMWIkDjvsMM3WGXfedRciIyPl+HZvMLLmnge20dWBkl4DUd2ho2MHhZ063JwxB6G0x0BEFeRQffFOgy47rKC8tBiZOzdjy7qlCAuPxNDxhyIoOJRy0Tb1kD/DVaV1QlGfIbIgUlToZkRtlRbblFt+sU71Pwg9k2YeMI2abCawYb8gJWDRLS0ab90wUXuzDq5seiepm812qlxsePqrjfhmwR7cePIAHDMuQzl5gHNYZxhuKk5Xv6UVdTjpgd8xtGciHjh/mFzdawW8gNAWFiYPCxPXUb5rOve+vxqLqXO67fTBOHBI240YzFi8qRAPfLAafTrF4anLRmm23mHOoy8emlFV04AHPlxDHXCg7zxiWtzbN18FHBUejJBg3pZpk4WUvAiykuiqa1DHGauawlBvWs3R3j3H+29HUJANVxzTD6ccQIqBC/heiqYs6kxjohGUlEgsVNw1g9tTU2ExglOS5aA4A4rvvLvlHhrshYXYMPPWycrJBK6/vLaJfmS2MTTUvR3zIundu3chJiYWycmUjks++LP1Qx+tlVmq48Z3QXKs89HleqkHkUaqFAbNRmVRaoYVZBVV4pdl2RjSLQGj+vo+ZbKhoR41VZVEVxNCw8IRHsFXiquU/KU3c842RIeH4thxXaS+e4KWdSaeC5FNzQLvZtyc6X/Le8DOOLiCmeHKKud6oleDdrQYXljIjdgVho3qoOTd1FmpX92XsvP19cKchq8Oz3BTv778eobnKceqmR+jbsky7U2jR4NTJ+wpsEXU1taKsGN44mlrYeZF8/kS6KAy0EwMnX91DY0oqaxDQVkt8kpr5ErtElIe+Yh53b8RToVR77pt25fD/wo8VyHiV0gIgrt1QVBykkdPzFHe2hxCfmzRkV5YrFl6qadcfzt3zkBGRoZHpYERRB1j9+49kJKSYqG+u3d1HIIfu6yzUHKBt14GU+ceRI/YUj3TP4S1BK6hQkJCEROXgNj4JIRbXBxtFY60eC0g8cY1baFHGVuNAFYcpEiVkaBMRuVwZoC/SuMPKnxLY/Edzkqs7MdMUUtz0jp4TdWpUXI+zULcGLvxATs6lGB3jtHXOihPDZ8XPc2bNw+/zvoVxcXWFrra+UxagvepRWMuQe986jdulpska7/7SS65Yndzbpzy5p5Ny3jnnbeJnj/E3KyO3e8d+YqOfaGM/HMwaNFNZuq88886X/+XuLVP4LE+aZ/gTE7mescm1xJwVtV1V/X799VZf21I5YgHNxGFuYjfuk5ZUhepSRT56xMe6yTT504j011eUki/nC9npbg1EBq0XVSe42wbfgeA4sDk6SR6+9VNBtGGC8PXG7/7Y5Zy91C88tc1PrY3j55di925g1SuvnPArnqHxmbfvvcZvFR8yX9NLSqeeh65k49A4dnT0Zidoxo9dbQVL76CkhtvQ823P5BvlXffHaMvNwU+8OXKK6/A2eechWkXXShXUe/YsV3cfAobzc3X7IbBXqoZlZUof+RJ2MvKUfXV96RE8KJLLQ756w/WfG3YsAGvvvoK7n/gfhQVWd3to+J2/WziivL/PofcSYei5ILLtF0tJCZLSqhcXkXJf25Ezc+z+KOx2O8/YJrV495+DX4ok7ermb3zjdtoAI+aAh/EPzk1ctZc2LUjprldssLeuHM3mnbv1fpqVjTE2SOsKtAc9+OPP47BgwdiytSDsXBh252BwuBcSE6amhCduRMJm9citLKc8ue5ZvkDh5JHIjVoZPHE9vX1tdi4aj4KcohPPuppc8BZZT6FlxQgsiDb+Up9QgjRE1RbS378K1H+EABtR2exYp8yqb++wH6NMjUzgrsu54LQ312Lx0hZA0Wo+zGHYD9GWPWmp+3Rhzjq4k51pexq2DhDuen2Rjx/O1wzJqD8UGWsfOs9GZU3ZWaibuFiFJx4JuqXrUTRRZejgjqu6i+/Q8m1t6DimZdhb+GCQjP4JrxffvkZdVTR+WwHvmXytttuE7M1YePDj+bEQqHy/Y9Rt1htG+OzD0qvv52UolxHmXmFR155Bp/b8OST/8XevXuxceMG2Y7Jny1aDSqX0rseRMULr6IpOxs1f85H2W33oGHXbhRffi0pFM+i+sefUUzlUk1KnVc0g5a/Cwbv9ZIwl4aRYWVyvZpZdzcT5uKDXvkkynb4gEf2EE+p3pU/+yIKjjkFxZdehYLjTkPNb7/L5XfFl12L/EOPRd4hx6L4quvlCHdPWryUjLl4fIA7wxn33k1t6Ank5edj/bp1MqjIzORO1w98pMFOLJ11L/wbk7kDMVm7hfTktUthq+fdO/zWvLqiQthl/YTeV/APi64m6tB3bV6FEurc1y3/HeXU0Ssvek4Y7uqyPwSRMpK2fD46//ET0v+ajc5zv0NoaSHCi/KRMec7dJ39Nbr/8jlS1iwznU/RMgSI0q0KRYrQD7f00Sb/VfWRQml2CmzpORJXW1W4JlCEuh9eZCVx818yG2G1vJryocD50IyaH6e4CQ61xCm/Kg5nm38IrhnWQRW9nk9SpMrGdwMwmvIKUHrnfahbtkredeFQN3ce7DTabS22bN0quyzM4IOfrN5V4RMas2t++BWVpAzZTZ14w46dKHvoCdj9pGPUCM9M0+tHYWEhLr/8Uvzww/diV19XL58sZsy4R5Qg57rbPNirq1Dz/Y9aFviPDXUrVqH8DiqXxfp6DbKtrUPVzE+0Nw/wTMI/CuEK8Yaz1r9rPK48ri89/XDZ0X1wyPCOshCS0SE+AoeN7ChPeGiI2DFBfIfNlcf2w8jeSUiJC8elR/ZScRzTD0eP6YSkuDDy1nLe/1vBJVK/cye1m9fQVFMjLGzMy6fBwzMyw1U7aw4Jhya5ar/m59n0/OKzflkZBPD27LfeelvMum8eSMyb5/9aeqOdeitrI/2ovCzqVGkQYVcDn8iCHFIkdpKJw7akrqi4NdFIBjuJ0gZs37AcO7eskRgbaLCyfsU8VJazzOSZMz3HHtITK2d7ftOf0LJiROXwSckKPGPSYdViJG5chVCJn2BvQsze7aRM5LnE1DwEiOJAzNKYy/UoOMiGpNhQpCVGOJ6kmDBER4SgY1Kk3I7JgoP9pcZHil14aDCFCUcyCQm+ZldHTGQICZdIxEXxtduewattOY2o8BCJk+NIS4yUFdschuNmuw4JEZJ2iBY/+08jO06XVyHzStdUeue4QrVV3nFRYRQuUuxjIikPZBcdQbSRnU4bx2uz8A3unwNxITxcysjRCOi3cfM2WROg3lU1FCVLOkP9cYcvWdFAygl/puiU3kmOZTYjJTlF7NiPN+gpektC8tdkRw0JuJLrbpVbPZ1hQy0JvMr3PpLT8VoDXpdx3fXXYu7cubK9jMHlz2s33nrrTdx22y1ygU/zYPCUd4CAO0u9UNipsQk1CxY5XuWXnJlmr0qKF+t/GixCWYHvmRqNUw7oilPpOeOg7rjzrCF4/9aJ6Eht5/BRnXH7GUPkOWxkmhYSpBx0xqmTu6J/lzgkkOw4fmIGhe+GUw/sihtPGYhXrxmPYT0SNd/t8ARPbYjt7MWlaNKuztarHq8Tqnr7fapjfBGZBjKzfWuUY0YY1XM+OdIMbkcRrbwynrMu2af8hZaXImn9ctjqWZ6pj4NB1Gb5HIfQCs93JhnQmOARBu0s4XdvW4tdW1cTa3iWTA1Uy4vysWbJb6ip5m3D3LeoML5i1aH7YfEbXN/o/HmC6AorKRQFSC8nTtPW1Cg3gFqJ3xsCRHFgwnUy7NIRP3LRCHx42wH0TJbfGecOw4kTusj73SQ4YqJC0Ck5Cm/eMEHsxvRLwuPTR+K1a8fTCMW4IY9HHu/ePBHXnthf7uv3hIcvHC5x8KilAwmjJy4egbdvnIjB3RNILgfhUhrlvH7deHx0+wF48aqxOHtKd6m4R9HIZSbl7f7zhyEhOkxu6HzjOpWfrmlRGNk3Gf+9ZBTev2US3rt5EmacMwRdUiJx5Oh0fEhxKdom492bJiE60v12z4ABNdqwCeNgCyXFh+u01hb01chmhA4bjOCkRLLl8lRlavhw9msGCxfuUF9//TVMv/gi6VhDZWukgaKiQlx88TS5mtr7ffze02BwuTVlZ6H88adJMSDh52hQXAfpDz2sMFS+8CqN5mm01EJwOs8884zcueENX3zxhcw++AXFZcBkDglF1HlnaRknmL3RixJ/bLQh8qRjJE+BDkWJyifnlx8WDSxiq2sa8MFvO7Anv4qUhiicdXAPDOmh2jqHG+1zK5yK89fl2XI4HMuYQ6m980ChHc1DSJ9eCE52V7pEhpvqmC0oGBFTDjJbNQs848hHzPOJqwMHDtRsFaKjo+UG3ddee1VunbXS7r0htLoKKasWIayMRuXij1VW/kcdJA2M0hf+hvBiX8dn+yJQubF82715FbaRcsKzDjqYZZxOGcW/fP73qCjj9U8+4vNAh9jQn4aoSDm0ysELcVBmJSI0ukhu1Ed7v0XWCgJGcXAQqzOaHh5t8FHTn/yxC7+tynHYM1zZx+/cyfOjT2My+G7+sNAg6vscYtQnFIN1nzacTCMVVlhio8JQWFonMwXnTu2Jcf1SNT9aniQI/6GHLPj8gDNohNO7Uywqa+pRWFYrikVplX6DpB07csqJtp34fP5u2T6m0xZwIJIiDz8Ewd26Kc1V76hcYAsNQ8z080XREHZo0M1UnF7BDfvHH7/Hgw89iD9+/wOrVq0UDdwcD58Wybdjvv7G63jssUdRLRq6C/wwkRtwUEoywkkREp2f/PPDio4oO2JB9aZvL4QffKAWqvng/eWvvf6qz9mRKhJYTz31pN/1DmYeuCLmsmkI7dfHINvhmajRGM7uEYdMEXOgQ2XfQY0JNlTWNeCNX7bhjzW5Mnob0ScJPTrGSpnW02hrdO8k5dUHvl20F+/OUotseaavXXFoPvgI8+jLtYPgTEUlskEM6id0zEiEjB5OJs+l6qmUzXjwwQdx5ZWXS1tfsdL5JszKqgo8//wzmHHvDJx11hkt/oRpo048bfEcRBaZTxbl/OrE2BBMaSWtW47gGg/yxiJKCnOxbcMyTWnQ+EE/en8TRE9FaSH2bF0rn4Y9Q8+TZ9TFxKEmifslI+/mnW7K3oba+GTUJiQrqxYigBQHd/DipdU7i6mxZ+LrBerbjW/WMfxVR+/gWYO0pEjHpwg+nOTwUZ0oTRve/XU7znhkHmavyJZPEjx1qheEdDmSLP+hh6z5c0lkuJrhWLm9BNe/sgz3vLcSpZV6R2LDLho5fbNwD2bO2aEu79Fc/in4Uq2CUpMQ/+BdCEpIoDflT9GsYCNhkvjsk+okOTdYKxMegdfrnz408KcJ3q9tHjGwaf369SgoaP6hRRyPLSICMTdfi8ipB0rDUgKPy43zaSOloQ/iH30AQfHGVbTNxfr169QlNj7A/Obvt5s3b9ZsWgBS1mJvuxHBicYIUC8XoSYqCtFXXorgjsY0/v6KYCqrrqlRSEsMJxrtiAwNRmRYMKpqG7ErtxJRESEY0iNe8+0Z/GmxX0a88Ka2ntQPjVftaB6iTjkB4ZPGk2AwtUvmpfSG1NkmpyDm6iuo7RqzvOzTjd1e+L9t2zZ8883XMjhgxbDRZcE1bwzgI1EaSTHnGQe+v6IlsAeHyNHMDXwQkxewn4ouPbXRvHUIO5QRRQXZlF8l47m/YOiKPX/E0IeNpUU5qG1wloE6dN9eQfks6TMEDZEGLU4ymh6eacgfPoHKrXVdf0ArDrxu4PjxXfDgBay1+oZWFPK3pThufAZuOHmACBeurDwiiSdlooZGM3w7n8yAbCtGA1XYDgnhsm5CT9mhbWsoq6rHJu0ErokDUnD/+UMxsncKKSM6y+00QmL74Rjb18oBJv80bAgbOxqxt14PW7j6rCI00x+eaYi+5AKEHeJ6Apzfqu6E1FT3ExgHDhokp8KZv2fydFt4eLic887l1BIExUQj4YkH5ahsVW+0eCiduHtuQ2j/vurdG/wk26/fALnISuVWgfPMjxn8zsdstxRcbcImjEHUOWc48mSUSzDi7rhZjgoXj/s54qgtPkCy4KChHaXEduRUiOKQW1KDvYVqNDisp+9ZB/7syEp/AzXi1TtKUN/Usvrz74D3OsMDiNhbriflOt7hS8lAHkQ1IeqS8xE2ZoS8m2HEqOy9TfjwOqd6WW9ggAcR3F54zYNrqe3du0szucI7DQo2VKd1RsGQMaQYRGp2GigRPnq6YOgYlHfp5bcNNVuGa96ZFh5EsKTgPkYpFK4UWkNtQhLyR0yEnWSyipGhEmoMi0DhkNFojHSh0wnW0g1oxYHJjaZROy+MVFunvBQM0cqM14ugpeDFjjzrwNOXNhsfY6tGulyYjdqJf/JJgcw868AzEqrjIv9mfpO5gfy89uNW/LQkS8L37RyH/xzXFxMG6p84bAgPtSExhhpCaOAWg5ksRuTxRyP8KNM9C5T18MOmIOay6bBRR+4cQisLJVEc8NbArrrqanTsmC4zDPx0TE/HlVdcIZdbdeveXQQHR8m34h1xxBHkt6MW0h1WaoGNhd+t18kpeNLRUvwJj96P8Inj6FUfF3iDfNjwKkt69OiBi6dfKgoPKziRNPLn2zA53+GaHbtd+Z//yJG6LQWPVGzEj9hrr0T4uNFkwxkiO6q70VdcgqizT9PKZf8Hf4LktQkFpXW474PVyC6skcFFYkwohnTnmTDI8dzeyoTB4cOpvfFMJs/2tVTx/HeDeEY8Dh0yCPEPz4Bdq1/MSq53fFV9zKXTSHFle8+Fobjunfe9e/eWUyPNhdmvXz8kJCbi6GOOkcWSXHYcQ0hoKE488RTlqdlQeahMz0Bpz35O6bFWw3dYVLDS0IIRuhGTDckdOpP8CqXUOD1yof/RsYmUd+7glU+Wi4nJ6QgN5UES26k+R4cRn2/UJKdRvgeQDOMPIJwexUNxl3bvi+rUdOXJG7wXiRMCWnHgM+df+n4zTrhvLtHdhIoatZI3lEZywVSQPHrnNQxMK59Nb9BslcXO4EuzLntmIXbnVdKbXdYlVNc2IIJGNanx4RSrDelJkVQBbCiuqMPeAh7l2OSzhCgSNMILocrGlaOiWoWbOXcH7n1/DbKLqiW/Y/okOXI3a0UOTnngd/yyzHxhk1axAgTmnEjOSFuNu+FqhA4fKspS+PixiKfOlhdOKv5zCKMkBBbJ4c72/fdn4tZbb8Odd96Njz78BDt37ZR1Aq+8/CruuWcGrr7qGpmW/M9/rpKG1mwt3wQOy9//oy+bJkIi/IhDEUFKkICloJ9OxbcrcPvtt+Pdd2fi0UcexfvvvY9evXpj5KjReOftd/DwI4/grbfewXXXXq/5bhlYNDDsVAfjn34MYaN5lEdtY/JERJ9/jrj5AtPgj45AQVFFLS75vwW48L/z8fuqPAzsphZ4sfLNWy4Z6UkRZPY+pbxwQz4aGpvQJSUKHRMjA6il7U8wuBZ+5GGIJQWVP//ZqA2FHTwZsbffrLk6c1cf/1pBbGwsnn/+RZx15lkYN348jjr6aNxyy23okNoBo0ePxg033IhR1JYmjJ+AGSQXjjzySC2kAUnNZdDiHeo67bKuvcmsWkV1ShrKeviZebSI+KQOGDruUKR37YPU9G7o1mcIkjt2xeAxU5FB6XYk5aRn/1HoMWAkKV96nlvQPVPWedBT1q0PKUP6Z+MgeS/pM5CFHr23vsUHnOKga5GusFNWt2SWi7lXpxicf0hPXHV8Pxk98O13+aW1Uk15ceQBg1Jx0oQMTBzIU8CqEDolReHYcRn0dJbtm56gqgtBgthRTp3/8q0lMgNxLqV34eG9cPKkrjLymbc2H1uy1OeLrh2iZfcGf+bgnRu5xTXIK6mTRZX/vXgkJgxMphGmmr0I0o5EZnTtEIUTJ2bI5xjOtwL/tr5g9wX06hyc0QkJLzyFoK4ZiL7+PzLtz9DdzSYnSEes6dceSGT+8FW5fDvmVVddhU6d0vHmG29iJS+MIi2Fr9K966675Vpdnq70BClDLXn3XHhMVL7X8nR+FI2UbJGq0/GnlChKfINv7jvooINw/vkXyKrwWbN+xffffSs3f55/3gWYOnWqly1lKp8ecuvRjsF5CU7rgJjLpyEoOgoxN1C5JPPuFm8hAh+uOWfZkF1cLZdXxceEoVtarNhf9/JSPPTRGlLyG5EcHyE7o9yhYuPLvApIViSTcnHAoA4+y7gdzmXgqSYx96Kmn4+wcaMRFEX17j+XIihelYsr9JG1Dn81k2cdHnvscVK038Pzz70g1+wXFBZg4YIFuPba62SQ8TYp4XwFvyuMuP2lYozr+bNE8YDhqE1MpXoRhMLBo9EUHmka97vWFS1ulwGG+U3tFuTZSRtSOnbBoJEHYQgpCz37jUBlWTGa6uvQb/gkDBp1EHqR0hARyeuqXLpljtA/GQKuzpwif5bIGzYe9bHxRE8SCgeNlDUQCq506OBEvLk5I0AUB4MrIrD5l19YidDo4HH8ul0lsiqaV1AfP74zBneLRw4Jksc+Xa/Kjv7wqJ6/YV594gDplPW4eXfD5cf2lRvfenX0tOhNTT2bGcch3/xlCzbsKUUqCZrzDumBiNBgLNlUKIs1N+8tw7cLs1BH+eGtmcN6JpDCUI2nvtiAmIggUShYQB1PCksqjYiKyuvwJ414WAliDKL8X3PCAFxB+WIFSMHgxd8P4rdLI/CGkPSOiL3rFh9rAdzjUTbclRGPDTZ7RVZWFu68807MmDEDxUXFmq0fUCJqW5inHHhOlGdLYm+8VtZweAhkgsmR0tBkgl8wT+fMmYvomBiEh0fgjz/UfRXeYeRTlYfx7jNJajthB0xCDI0Aw4YMVlZeaDbDAgn/CPSc8+zemh0lcqMig4Vjj/QYei/B0s2FWLWjWNroavrdlVMpFxXxO4fJL6mVhcfrKCy/r9tVit9W5WI9/fIZKt5uGfzXQ6sURn3T5aM7guJiEX3ZdIQfeyTCRgzTbP2AGo+qm75rH69pSExMQAy1nSVLlqBjWkdZULxl6xZZ+5SYmKg+YTqg4nPPq7d0eEeDBmprTTQg4dF5Ud+hqItlxds8lOO/5nhUKoozhr1T2o5v2MoX5zU4JBQlJQWkOBRhx+ZVqK2mOkv2qu9jf+Y0CByQ3FxsNXi25TC8zqFw4GiUdu8POy9SdZUlpqAyYGeZ5i0+FwTMtdpMjp4RnuIf0SuJOt9QbNhbir35/OmAiCLi+FAmXjnNBzI1Ndqxi9y2ZatFUiN6J8maCC4A9ssdNX/C4A6cwfE3NjZhzc5i6uCNLXATBqQiNorSIuHCt+yN6JUo8a3cVozC8lpZJMkn0HVNjZZFkmxfUlFP6dhlHQSf98BTpTz7sIfyszWrQsypNPoZ0iMBA7vGSz6Wby0mwVWMzslR6N9Frf7mPPH1r3NX58oUKsPMi78TvF30kzsPtLRFTTq0hkbtOybn1ncY9nHr68uxdEshph/RB+dM7W4hlFUYMW3LLsclTy8iRTEGj00fIdPYzYKFTHE53fz6Cup8SnDDKQNwxKhOmot38BkVDF7boK/h8IffVubg8c/Wi6LL12rzQWS+wZmnv7V12gJWX4QoQnkR7x1vES1apxwo4Jwratyh3NRfo7h0k3rzHtoAV2E14+Df778NPKvKC0lPP7CbZuMHDQ1ozC9AMA0orGAtyeAZ762Sgdh7txwga1X8gQ9LUx2cWhzt7dZMHY0kV+97fzX+XJeHY8Z1kcGbK1xLnnMRVFdLek0QmqitWpmR2k0y/7eV2RjUNQFj+mlniejV0QWSHuWfz2to4N0T9iCER0YhMjrWk3cC2yqa3/ttO/WJIThuQleEWpLRFNquDoViJUJktmPdg4JrNuetzRUZ6g8BozgYYIHqvCjEF1wJ3/dQBekpZRtVArvfmwwNKP8ck+tZ+/8cLjq8t3TqVkaqZuhc8YwmrNpGnexry8iTXU7ye/36CY5OnSu0ap+t4wJfsfx/X2zAL8uzJb5bTxuMQ0emtylv+WS8FaQAPvDhGul0R/dNxn3nDUO49imqLcDdYV19E+7/YDUWbihAbGQYbj9jEMb1573XLUuDTybVZ7o4Bk6Dy+vPNXlEy1rH4t/Ag/cW7tnFm3/v8bTDMw4ZkY6bThkoi8CbU7etcPrnJVn47xfr5TTgJ6aPRJ+M1h1I5IApcd5ue+GTfyG3uFpOCR3Ri9qPl4xxMIb3fDtTJQoMdd68A2LB+iIaUBbL2T0nTOwi6+9808+ueor+wT5ziqrwy9Is6R6PG9dVTjBmWSqDZHJ3pOecTQd0a27lnocsQSQ/G/DtoiyUV6lBji8EkOLQPGZ6hx6PFw66pOP9zWzmX2a3Ps4xw3BjeHZnW88w/LuH/CfAU7cjqYHx7IqXGuYCH/nmxkUabllFLZZsKURxOV9QxQ58rHcYxlCny8dwtxYcJXd827MrsGZXCRobVafIo5gJ/VNkEZyVEY0reCpPv7CMaeSpvNKqWizdVIiSSv3yG7t8BhvQJV7NCDQ/GTew0rBxTyk2ZZY5oouPCsPYfsmyPVhZKqEln0u0fHiDJ1ee5corrsGCjXl8SvV+DIM6vaT4L9cAZfYF33z7t4N3ex05qhOG90yi0T0JA4PBXuGpNJxA1vml1Zg5ZycKeV0aeeGTfo8ZkyHrVloP1S6q6xpl18yanSWSJuefZ3l54axx46WeP3qnQZw0eDFr9o62r0O9s3UTDRBZHuSX1MgndB2dU6LQIy2OeGeK25yOU5oUF5u8pKOD1+6s21mMsmolc3g2fHD3RMRGkLwxFQvXeBXKJR0yGzbkS6PPkS6984BoV14lduaq2XJ/CBjFgWlR+1d1gr2BezN1XIbuU4VVZv7V+OIR7KS8qngMGC4KXAiqA/IFI5RzeNfY/KP5IfYFZPTPeeHsNAOtyT0XexsN1gXudUDPma9E9PI2KDHXK19oqxkTM8w8UfGrxs2Ltsww0yq/HE69NgNawP0W/vPPrkHNnBFsh1KW+dOx+nzpfbzqCiU59Y7MGTwT4DrDxZ98jTNuWo960oZl67zWdhj8w7vwHJnSq4w5k3ojYpj9Ofmhh965jTIdTIlZTsh2fpmNoBdTdD7NDE9uBP7k4ujM+YfcmSZ9B5/7bBB5YkWIf/W4xAsb+FE7ER1OmnU90WLmly8E4KcKDU6UsYUqEB6hRobx9kc1HUSDSxmh8bHOvAgqMInZP2C1o2w+9ILctzBVlTaDc87/Hjq8Qyk2bU3j/gWjDNjEp0Xyd1+WB9wn8GwTC8DqGpIJtQ0iCJ2xL2pJO5oH7tT2PwVO1Txv9Yc6cRKe+0Z+GlCp//P8C1zFgWAUkQ090qIxYWAKeneKQ0pcGCLDQ+QGSp6S4vMdMguqsWZnKRasz5cjaHXhoqDEbcASGiAw89uZf20LI522gZFbPVY9BVca2o4uVZ/aJi53WM1n29Gzf8GGlPhwHDAwFf26xiM9MVyOd+d1JnX1dlSQwsDftTfsKcOf6/JRVOZ8FwhzTK8p7fAMo2btf3Xsn82xnnpb1zJtdoFM7jHzm8x7yJtVqHj0GJuHwFYcaLTA5x8cPz4Dx47NQHAwM461LQNqZkkpBjydw4c2vfDdZuzIrhB3B1t4ilKmbxjurG8Hg7hIPGwi1uxP3HGUscD5jeFu0xxYDd26VLwjiMqkSdXzdshq/3H9U3DR4T3kwDWZVvXC9iayryEl4s1ftmPxpgLyy8JV3wVkCOF2+AJzaF9Uvn0VryucS1nNqrJd8ztaBe5DeGBqhDUvim/7WVuOVy2i9x/v38VTSiWQFYeYyBCcN7UHxvZPdjo4yQ0yRWTMKJRV1uH9OTtJWBTKdyi94hg6Wzu8gQUx73rgo7cNjjLPyCw/ZjM9bOAabTYzTDWdF/fwAV36dlMGf8/kba68vdaIT4tU+xE4zFp8utklDJdzQXktyqv4YinxJM6plEZ0BN/WyfVH2TuHFwuTmQxmGhiOdPmEUqalxmkBEa+mTopVR5U7InLER3CYyeCDBt2Kv8/mFtfKLhHdkg8I4ztUHMeTUxipz1oYgcNMBi/pcJgmcmsi7bCkog6l1Fb2FzDtx47tjKPHZNCAgkliolzgWnaE2vpGfL84Sztimm00ngjM5nbocP7W3dY80uNz/W0rcFxGe+eq4Lx+Tg2QTFWk2eDozEsBdH61NSU6XNNzRWvS1cM1hx0Bqzjw6v5rju8v5yC0ZEV8VV093v11FxZsyJNC5ZFKQBIaSCAGTRqcigsO6YVoUtp8VVTvYC5rATUjr0GZuyYPb/28hV5tEvftpw9G17RoKefWg8qWyji3pBovfbtFTvTk8j57Sg9MHZ4me8X1LLUE0kFLBDZZR/Pz0izHVeh8R8Jlx/SV+xJaUk89oaHRjr35VXjqi/Vyrgiv65l+ZG+M6pUoM3BtARZEfCz6qz9uxbItzb9l9O8G8/aMA7visJHpCA7WlSf14xWiPLHfJlmQ9x0pD3xwW9uU0r8DnZIjceCQNLkvyMqiOV/g4uJ7fvio/lkrc1HNVwhQlKwQdk+NQTy1odamoYMHK1uzy+XKAE6Xb1blA786J0UhqBUyh0Pq1Y4VfL4vJae4it6UMsK7N/iq94So0FYpJmZUUjvlsxX4skUd6YlRSE/mA8xaKw+YGptc75BJMofPN+LjAfwhIBUHFvpHj+2E0yZ3I5JYaDPIRAXBp8IpIa40Rn2AoYQEW2isoD/ZVKDPfLlJ7okQL/To3tvhDu5gP7lrMqLDrR180hw0USM7+4m/kFdcjQsP7YXzD+tJtlJS4t5W4E79sU/XoV9GLB65aKTMnrQ1+Ijz295cIbcy3nTqQBwy3NqhN80Bz2i89fNWvD93J8b1ScVDFw6TO1LMaB33VGg+sOzy5xaJoA1k8JZAPpAoKoIXRetUe+KA1sKp/oq65yK9n/h0PdbuKnGIi3Z4R5fUKDw+fZTcBKzEQcsZ5jyDQe10WTae/nKDLGQd3y8FfTobt2y2FFrJa/HY5TPVd0uyUF5dT7TE4OAhHUTpbG06ZvC25tmrcpBZoA4pPGRER2QkR7W5/OQZ2x+X7pUdFj06xOCgoWluaTjT33zwUe6zVmSR8uD/HIe2Gb60GRTJrBkeMFhdNayP9BgOJYFsldLgsCArjV1kpftLS4jERMdtlAZj2+EZfPrlvlAaGEHUYAd2UYe86Cd56uXaluiepo4T51sQm3frqPXawYev8GI8/tySzAex7AOw8pyWEIUQ+uWLm1yVBkbruKdCR4eHEg3eL4X6++FcDpxL3tp2yIg0RGtKgz6U0GF+Z5O80R+h0BAa4u+wUemIjAhpVxosYGC3BCTF8bkhrWeWq0zhmbqOJOfDSS50otFz2xSHUdZc+uFhIchIiZY60ys91rETzw3mYM0Ez4QN65koZv60zqcC++IXJ+Vcf61RnhofJvxi30N7JfmV0UYK3F6cSXR9V+DbnoPQP0PdMusPAaA4MAPMTAiSA3WYSZ7ABOeQRvTZH7vw3m87MHtlttueYB0sfCcPMhSHdvgG18V9oTTo0KeYuSPYV9CXwhijUquw7l/xSXtpdjrW4SiLfZcExc2f8TRzQMA5M9zeO5BCy8e6s5ldjbJVJseBPtoCNd1dxhXipN7Zvm/nWIlPQY+nHZ7Au1TkTAJ503ml8ZpgmJqP8FCb+kxJ/z0pxc7QU/Ltj3Pq7IOUB4mb1wgpG0/gxeCeYNI5Cd67yqgwdRR8GCsm1GY5Ot+T/SpPCla5aEOkrAcD/XrOC8fqOsOmx69sfaWl3KLDrKkE1nztU3CGdYL4twnDeyWaBLMzWFvLKqjEr8uzsXp7iZx25YsdiTTy7K+NdBntI41/DjxdqQzqZ99AayLNKOeGhga5S8KRP7/gyPd9ReK6rsTQvmMYk+w8AgogaNmaOqyjDAL4n8qrcuDL5u6buRqv/LBV3tfvLMfd76zCZc8uIrstKKvihZ/EP9OhT1HhIeiboe6J2Zd83f/BfHOte2w26r0ytYyHMpMs8atP0L5j0dN0rqlWUtblgNQdCqDCOIeUTpCs+I6K8OIiRBTkILwwD8FV5fwtQvz4+u6vZsXVr55T/dcVbM8P+9Vzwb/OOXKH+NEi9SnbSNtxjcvhnQKyG/81cqqBHJg/Vi8/CADFwR3d06K9cocJrq1rlFmGnumx6NMpToSKNzAbzeegO2uR7XCCDz4yuGPlm+k2bFyPujrn1fi5ubnYsGEDMjMzNRsf8JAMx719+3aJY9OmTZqtstexcuVK/PLLL8jLy9NsPECrN/zXrXF4wM8//4xLL70Y5513Lmbcew+KSXBYhkrEKzjvzI8NG9Y7nvUO8wZ61qGoqFDz7QlEu58Ka+aPXgbyUBkxP/1B9Q3++fSPgLLF1A3uoXf0bKXo5XZd09Ao65f4+295VT3enb0NjY3A5MEdsGBjAf5cV6j5NsOObh2iNDMjQGkPCDD3DP448ZLkb+PeLNRv2qJZaKAyadi2U+ybyvxflqRgpaXyRXGVKMzdixLq1Bu5oC1Bi5kqOtd19ab+Mj06TZG5e5C2dB7SlsxBx8VzHU/S+uWwye4mH7Apd0MV0FPwDr4Zk2kpK8mnTJjVCM8w59sfgpoakbpqEVJX8rNQexYhZdVCdCBz0oZVlGU+vtoEipr54zsXBgJGcTBkV5DfBW31TXwrZTDW7CjGh7/vclpt6gqukrH8TdMi09vhG3/9NR8HHXQQ9uzZo9kAmzdvwgknHIcTTjzOd6fuA5s3b8bkyZNw8JSDcMwxR2m2XJlt1JkXY9q0C3HUUUdg+vSLMHz4UHz++ackuzyNAqxWfWDOnDm4iOL9888/sXXrFrz11ps49dRTLMw+sJv/dDjvjzzyCKYeMtXxHMK/U6fg4IMPxEknnUSd+w4/afmG/jmD47j00kswhfg39ZAplMZUXHjhheLmG4HdLjh3HRNUR88n8yk5wa3aJhcXdUiIFLfMoiq5frtP51icNDEDdpIRO3PKUc9C30kxsiEqXE35KrSc9//bYL4w3xTv1JvBR3tVFcruvh8FR56k2RCoPVa9/zEKjjkFpXfeS70j7zbwBp3vJJl91H92oaJEbvZO/PXzp1jx189Y8vu3WLnwVzTU14m799AGeFG9K4Q6so/Zs4MUhnkIrShDeZdeyBs+EQWDR6ExPALxOzej8+/fIbi22kc65vql4G1+gvO8evFvmP/L51j51y9YOPtLoulHVFfz4so2AjEsJmcPonN2y68y70Xc3u2IpachIhJN1H9a4Zs3BIziwAWoCNEnSzSy6MXR7rXR1/CeibjplAG47YxB5GjH7lzvFVQqBwlXfxpdO/xD76T04mAsXrwYF1xwgVwX/eEHH2HEiBGaS/PAI/2bbr4F/fv11xJQ5cUji+eeexazZ8/Gf/5zFZ7475OYMGEC7n/gASxfvlz8OMNaOdfV1eK2225Bv7598c033xEdy3DNNddi46ZN+PGnHxy0eobUKqmOWpX0ihNOOAF33XmX47nzjjtF8eL4TzjhRAwaNMhPWpSGH3dGVlYWli5bQgrJFEnjrjvvxOWXX6a5+kagTjg4IIyW/5RZElkOpvOvMlfUNEgHw2d28I2LDD5Blre26lB0UkdlOhPGcG2HOwz+ulURYqad66VeN1lp+PIblD//MsLHj0HCU48hKD1NuXmECifKiJ/6XVaci9ULZyEmPhkDhk9C937DUFqUj82rF2k+XOE7PjMiCnKRsmYhapNTkTXxUBQPGI7KTl1RQQpE9ripKBw4HCFVFUimUXpQI58RY8C17qhUlS3XMIN7BrL3bENu5k506tYHA0dORq+BY4iWAmxdt8LhX4XxToPP9kqB7aQU7DngCOydfBT2aE/O6MloDA1DZYd0lFLazHfrXHJHwCgODJ2Q0ir95kEFfcGHLi/4QJc9+TTCKK+jEYUd4WHeWcCjlOo65wJvR9tg/fr1uOGG62W6/cGHHsbIkaM0F9/wtLZ5/PgJuOzSy9CzJ2/TZCg/fAf/Rx99hOOPP546+ttx5hln4q233kITKRQzZ74nfpzhvS6YUUmjoZycHPTo0RO9evVCaGgIxoweg/DwUOzatUvz1XocdthhovDoz1lnnU1KSz0iIiNFUYmkX1/QqrxfzJr1C0KCQ3DmmWfiqquuprSulrT+F1BQqn0Wc5WYJq2N76vgvfqsLFRqW0t5ZsG88E431dQb8sBabWmHDoPjbKKHBm58NkPVBx+j9J6HEDp4IBIefxDBXTOUN1+wULm5fEoK8+Wwxh59h6Jzj/7o2W84kjt0xt5dm3Wd0gXuEXuccaZ8x2TtkE8RhYNGoT5GfdJmn/xwB1zWvR+qO3ZBZO5eUSA8wTFhIgqQ59zoT0H2bmr70RgwYhLSu/ZGzwHD6Lcvcvfqn3z08O40MNjWZ5dPTk2Uj4boWNRHx9AvPVHRSNi8RvJXTDy08aUurUTAKA5mNu3OM03biINytVN2WXas3VmKT+ftxtNfbZA7LHjLjS9syzKOn25H22Dnzp24/vrrUFFRjpdefhkHH3Sw5tK2+P33OSgtLcF556lZDUZcXIJMxc+aNcvL5wr/SExMxLjx47FmzWr89ttsbNq0Ed9//z1VMhvGjBmr+fIDrlDNrFTffvsNli1fhqee/D907txZs/UMz6LDHfX19fjjj3myyPPtt9/CjBn3YNWqFfL+v4D1u4sNZnBPoSsQcrgTz/wEoVNSFGIjQ7A5swLfLtwrO3e6dYjRTibVIHHY5HAtzx1OO/zBmWf0Rp1R9dffo/ypFxA6qD/iH7gbtg4pxGurtdc/gnlanZKqra2ReBto5N/YUEcDRt4qqnnyC/f88AxCSHkpGmLiURufrNkakKipky3pNQDBlHZIZbnEoj/+kmZ3sx82d+8/HEPHHkKyTD/sSu+ClTrAM+PmMK5QfjxDz1cw/XH4I35FZ+5EVFEOyjt1Q11cosNfaxAwioNZi1qzo4QIM5Omu/H3MMhlV1ed0BdXHNMX04/qrbb1eAEfqbthj7ovvbXMaoeBm266EXl5uXjyyacwdcohmq01NKcceFYjKSkJHTo4b6vt2bOXrKcoKmrGYkYXPPLwo6isrMS1116Dc889Bx98OBOnnnoaxo+boPloW2zZsgVPPPE4Dj30MJlBsQQLzMrOzsK27dswYcIk4dWHH30g6xvmzp2r+di/8fvqQshF+jZ1nb4byD4uKhTnTO1JAq0Jc1blYkzvJEwalELC2QjBU+t8Kd7mTOoASGQ0px62wwM05aDiwccRNmQQEp99CsFdOomdlc9rVpFCI/6omDhs37gC61f8hXXLfpcFkn2GjJcyNMrRe5oes2NvQnBDPeojeOu/5w6brxVviFTnTITUqoMEW1NxEpLTEJ+U4sh3FSkuOXu3yQyKZfhJn2fZlYGUCFJ4EnZuQkNYBEp79hdFqC0QMIoDU6nzY9PeMhSWGas+XdcnRISGYHDXBIztl4KOCXwohrcKY8eSjcVyY57B7QAieT9GLikNpaWlNOI3ysaqsLDmS4FH08EhfCiVc7mFhIbKr+vuDqvg0fitt90iu0QOP+JIXHLJJejcKQPvv/8e1q1bq/nyjOYOpnjhIufznhl3i3n6tIsdsye+oPPJF1s5PqbhphtvwmeffYY333wbv/w8C1XVVXjp5Rc1X37QTHr+buzOL8M26ux5hsGxT51+WFm477yhuOOsQWLF27gfvGg4XrlmHK48vi8SYvm8BoN5vAhvV16F3JxpoF0eeIO/KXG9vTeVlqEhNx+2BD58zUeYFiKMOr2Y+ETUVFUgZ9dmFOZkISg4GPGJxswG/3UebLrCgxvJlCaSIyE1agZKFinTE5GXhbhdWxBcXiLUhFYoRbMhQikQTLdBpX96JYwyOv02kmxbufBn+ezatc9gzdY/vPlie35YBRI1iP7H7N2O8JJC5I+YiMYodTieDl/c8oeAUhx0hmQX1WDRpnztTVUH3U2HTrQv4gtKazFvXZ6Ln5ZNbf8b0JxRwv/93/+he48euPnmG7FokbdFSs6QhtlMxMbGoqa62m3avbqqWk6jjIoyb63TawvXF++0cD5Wr16NRQsX4qSTTsYTjz+BSy+9HE888QQiaPTx7rvvaD7bDj/99COWLF6ME088CWPGjNZsfcPBLR9s4zIbNGgwjj32OM0G6N69O84951wvi0dd0fwy2bfQ88Plp8w0MFR3G/BaJbamx5xr/lShQy91Ln9ZrW/yyMd4z1mVhzK5CE1HuzxoLWJuvg5NWdkoueJ6NBX42l5swKosYH87t6xB7t6d6NlvGCYdcTpGTT4CYeERWPbnjyQX1ABTqxbNQlNwCOrikxFSUYbIvExN/lGnGxKK2B2b0WnRHERn7ULSxlWkNESjLjpWBXSqfdbo0CG+SQtpbGzAlnVLUEVKf/e+Q5GY3NHEk+bF6QqNCoSVFCBxy1r5RFGdwvErd0ZL+GVGACkOBhl8iyJ/p9zCU4qanRMrTdOPvvDNokwarVRqMbeGTf8S6KM5Cxg9agxm3HOP7HrgtQ4bN27UXBR8Cgaf5efsNm7ceJSUlGDbtm2OOPl37drV6NqlK+LjjT3+AgtVgwUEb/HkeNLT0xEerk4S7NgxHaFhYcjPb9mWUm9gpeflV15Gamoqbr31NoRqsyVtAaZBf8yIjo5u8fqPfxZ6HWR6lJmr5fIthViyyfgsZU0EONfnnxZnURwFxCudL9br+78R/sWB8hBzwdmIPPk41M1bgIoXX4O9tlbs2wJchyvKlDKS0WsgwiOjkJiSjtT0bqitqURleXHLSzEoCBWdu4uikLxuGcKLabBKkdUmpiJ37BQ0hoUjdfVCsa9M70Ij9lhpZ1x7PLcs75VS2ij9yswG/cnauRWZOzeiS69B6NZnMGWFumJKm5sx+2S/3mKzIqaD6uuRtG457MGhssCThJ5eXC3nlwkBO0/Hl+48/eVGbNpbLiMFhoNhphGGO+xyIxovnvx9Va7TVHo7/MCiQqbjwAMPlp0Ce/bsxiOPPCwdvA5fsxe+K66z67Bhw9G7Tx+8+OLzMiXP5bl27Vr88ccfMnr3lY4v9OvXD7Fxcfh11q9YsmQxdu3aiU8//RgVlMbo0WM0X60HC4yXX34Z69etw333PYA4SrPZ8EEinzlx0003ycFYrMSxoOVDp776+muMGN6yrbGBCL6A5+1ft2HRhkLZSaVEK8FjneXZS8U0FtI8EJm7Ogcfz9sllwQZdaZdNviCf3FAvGQ/EeGIve0GhI4bjaoPPkXNl99xj6+8tBJcVsHU+bHEr+aTHAk8Wq+p5gXvNoSE6MeHNx+c9ZrEFOSPnIighnqk/zUbyasWIG7HRsTs2QobKfz8MGpSO1FdUkdKc14890DeGcbhuNax2pGftQubVs5HEsXZa8BIdqR6yeeNaH4pdvbro9l7BAfnms8yJzprJyJKClGe0V0UIUZz4/OFgFUcGBU19Xj9x61yvHRdQ6OpInsrINLkCqvx9qzt+GlpZttyqh1u4MYwffrFuPLK/2D27FnUMd7b4jUH3hAWFoaLp1+ClatW4YorLsdtt90shzZ1694dZ5xxpubLA/yUfUZGBh5//HFZXDlt2kU466wz8dprr+HII4/COeecq/nyBtVEGd6S0WcAli1bhqee+i8OP/wIOX/C6LTaBqw4rFixHLfffpssWL3rrjtx/vnnIT8vD5deeqkjH/8LaGy0i/Lw5V+7jds8eTThEAzMW/1RdqXldfjkj934hAYS7mjbsvifg7DHC4+0UZw+mLNFRCD+yUcQOmQQSh96HNXf/ciNQDm2AjwST+vcgww2bFzxFzavWYx1K+ZR57sTaZ26y6LJ1qKqY1fkjD0Y5d16I6IoH4mb18gaB97KWDh4FGoTkpGweRXCS9T180xWSyjjtlhSVIBNqxaiieosnyWzfsV8rF36Oz1/oL6uhuSDOeaW1E8KT0pI3K6tslukpPcgRxm1JQJaceDs5ZfW4MM5uzHjvdVYv1sf0fIXHGaw/gCVNQ34/M89uPOd1Vi4ocDp4Jd2WIO/+uWpE+JFftdeex2OOOIozPxgJnWST8mot1UwJcOC47zzzsO9M+7DggV/4Z133kEkCalXXn7VdOaDB1go/uOOPR6zfp2NG2+8GSeffAref/8DvPLKq7IzwTK8ME1XEBYuXCgLPK+44kpZr9HW4G2lzJP+/fvhA+L/G2++jqqqSrz66qs45phj21xR+UdBpFTVNuD7xZm47rVlmLc2H/WNVNccvRcNLuiHXxuprs5dk4c7SB78vCwLldXOa2TUuoh2GeEL3Id5rT3kaOYem0M6dkDszdcgiGRC+SNPoX6170XGOpz6Sg9ISe+KEZOPRgN1tLu2rEHeHt6F0AWDx0xRU/wtBNOm01dHykHh4NHIPPg47DjyVOw+7GTkjJuC0h79kTX5SGQdcBT5SRG/zWtSRJyuZFGd3LjiTzVzQuayojzk7t2KXD4Uas9WNMrshjlyZ8boe4q88UtCUry2oBAU9xqI3BET0BQW7r0MWwHblFt+8VNs/zSIbO6whHqbXLnNV5dGhAYhOJinMO2oqG7EjpwyESqax3a0AN3SovHWDRO1t7bH/TNXYe7qPNx/3jDHtenewI3MtdOrrq6W7ZPJycleO8RNe8pwxfOLMGlQB9xxxmC5/toKPKXnDXwA2fWvLJXZrfvPH4ahPdS1ut7A6z/69++vvVnHt4v24tmvNuL4CV1w9fH9NFvv4F0u/LkiISHBQYs/mgrLa3H9y0uxt8DX8cD/PJgKd0FlQ2JMmNw9weXM1ybXNzSJHNiZV4nSynoXaWCORTd7jrkdwIlc707oT3VIs/AHjZ1W2hIPCO94a6XcNXL8uC6I8NFORfxTdA3UsfK6huCgYIRHxjjyZS5RMzjc8m2FcjXBEaM6IT3JeSG1JzhqgtCgK5ccs8PFDWXVdfjiz91yxf5x47tqtmbocejwFJ+rH3fMXZODnTkVOPPAHj75xeBtpKxh8BDbX7xmsEz7Zbn/+4YCfMaBQYQL3YrZvJVq+dZC/LUhX0YcizYWYN2uEjkxrjkMakfbwXUmgt9d7fzDt3+Oj09ZTEnhvfn7qpybm2dr4PUUrYFVanmhKM+W8CiMebTv+PT3g0vGTI2qX3YUV9Ri5fZiLNhQQPIgDws35mP1jhKUuSkNDHP56uZ9U+b7O5rTfh0+heHc4cqbdzgCWEtDj49nN6Nj4hHO2wo1Oz2f+poWN1gnwwAvntVoUXCNxNbMvTgcmR6Hq1mH2WzMpzcfKhR/8pCU6LVl8fhGgCgOZqYZcMxAyl9vrPRk7zk+xr5g4v8K/E0ZMvSGyqN/PoDJvCBSh99Oy6Obsx2H57R4FM0HTVVXN3dETPn0kQUdnEZFRYXspCgvr3DQ5wvswwKrHGBaeCaAd3Iwz6przOcI+EBzEiFw3svKyuSWTKbJCi0WWBQgUGMnHeb6xfXWcGsuRd5EoBFj87nIIZSd99ywS+CO2xR/mY7mUs9v3qmW+FydPcoDd+g5Ed/aC+fTWmhvUBHpY3PudKLyshFWoRZisp27XOQzjN1hrpMcxDmYcmOVQNyobTY21NOvknOuftm3c433D5Wmcx4Ub1U8VuSBVQRAzTUIc4V+2IvualQRgznOZh1GCIY5dk++22Ed3DjWrVuH6667DmeccbosLPz000+kY2xLNDQ04Pvvv8P06dNwOqVz9dVXYfWa1Zqrf1gtZ168yHGfdvppcinUn3/O11zaDtxgP/nkY1xw4fk488zTcccdt5Oiop9T4h2OemtFoyPM/m0WLrn0YpxOtPAWWT6rwh+sxfxPwDVnxrtr6+cTIc0tvXlt3NPYkWMwYnGOz/lNG9epFwc4P8rO7OIa0kjbNfz+AXtNLRqzc7ix8puydIWbtc4F/nXmiD9UlhVj97Z12Ltjg9pVIR2hHgebW8pHjkOVpK2pATF7dyBxwwoVPbs0L5sCiUsZPYKvCN+yfgma+Hprh0dlMCjxHINZQXGFiIqmJgTT4MTmtO2YHCicxCuKikrBFVaVi4CdcTBYqMCFZ3pzKkxvBcvMYSfdWfnjWLwE+LfDR4XUwSPZJ598El999QXWr1+H+fP/xL33zsCSJUs0H22DHTu24+GHH8Iff/wux05/9913uOnGG2TU7gtGg7BWxrfffit++PEHbKA0Zs36lRShC1BQoFZP+4SjMvpPh2+u5F0PfOAUK10ffvABrr3uGs21bbB7925Mu+gizJ0zBxs3bpA7MR588H7NdX+Ezlej1SsEOdkos3OZm92961yeRR/H4H0imsM4R6grCK7peErWa1YctAYYPMgDnYb69RtQcPxpKDzsBBSePQ2Ne7PI0Y7q3+ai4NjTkH/Eiaj+/keKg3npnXKrqK4qw9J532HTqr+wYeWfWLngJ9TX8w4uFbcqsZbwkcPo43Qbwovy5NCnaL6OOnvXPiuZ7RuXY8/WtcjctVlIUPXI4JNzf2cdnP8us75El9++Qec/fkJwrZqp5VtAM37/Hl3mfIfo3dusjkW8IgAUB2eGKTAbnaegXAk1vxt3rVM4k71RJdSjwnDcLpG1Q8GLtmnWQrnj3rJlk/amUFpaLpdEtSWyaSSzY8cO0a71epCblycdpDX4p4XPhZBROdnpJ1qXlpVh5UorJy5ax6+//iKfdnRwHmbPmiULPa1q+P7Ap0TWmg7e4XgXLFjgMO+/UKVvUOCpU3emLzjIhpS4cCREh5FwoPAeyTfHo3f/yqvejShoLvKjXDxFZwxKzNDjMeL3BHNqgQ7OaxPV5eLLr0XD1u1orKpE3dLlKH/kSdQtWYay624XpaJhy1aU3nQX6tdu1LjmDl88MYOr74bl81BHo2iuyzyQLi8pwt4dhszx15F5GqVz+npfwH/5pMW0ZfOon6AEyCJh02q52Ep3bz6cQ/FbU2MDdm9Zjb3bN1ANbBJFKDdrh5xPo/vmnHKf1tx6wUdn80FWITzbwJeAlRYhbel8xO7eio5/zUJYaTFCy0vIz1JEZ+/RQrUMAaA4uCMyLBjj+yfjkBHpOHRER/rtiM4pkZg4MBVDuqsV7NxQx5GfqcM6IoiEQ3RkCCYNTMFkbbV+eHgwuafgQHpPjAmlQrHL6vcJA1KQEhuO1PgIHDCoA7p10G/WbG4x/Q/Cy4yD3ui40fIpi3xwkoKyDw0LQWJiM7YwWkBUdBSl47x9MTyM0ra8pdE3LQw+XtqRb5H8SsSlpXUUq7YCX92tQxcO+omVvqYdrYLLpUMH910qHTsqOnymQRkKdL1idJ9kPDZ9BK49Ue1MOX58Bh6bNhKnHNANR47uhHvPHY4zDuqO0BAbkqhtX3VcPzx80Qg8dNFwnDOlu6oKROOMc4dJOG7ziaRU3HHmYHnvkR7jVltYztx11hA8cP4wkkHpCJFbNu1yGN1Vx/XFfRTX2Qf3cPBuSPcEyeOj/EwbgWtO6I8MklmMEyZwfkdIWg9eMBzTj+iNpLgIKTdGgLPfBcSD3XvRuCdLeydQ26mZNQdld94Pe7k6mElQU4fqT7904W0LqKUIKivKKKQeVv1WlKnTX1sSpQNa8JDqSul0g+UcGpXj0PJSJGxRW0pd64cZ3tuPeyhWGLZtWEYu1PVy2qSkbFz5F/Kyd2o+Wg6+0CqYlAeVrlJW+Z6K5A0rtZyojAY3NCC8uMBXxv3iH1ccPBVIQkwYLjmyjzTs206n57RBGN03lQTEMEw7shf5oFCkoU07og9uPXUQwkKDkEoN8Ypj++Oa4/vJ9bpPTh+FR0h4zDhvKN65aSJ6dozBJUf1ImEwFP0z4jC8Z4JspTtkuH5GeMuZ+G8Aj85nznwf99xzN+rraGQrBad4FhYaip9/+Uk+LfApkt7OcfDHYS6HXbt24ZFHH8arr7yCmBhnJSEiIhwvvvgC3nrrLVk0qQve5qKwsBAvvfQSrr76P+jSpYtmy7DJPQ98LgK7cxoeYTFZvg2T+cWfdTqkpYmdXt/79x+IW2+9Ve6wMM8UeIanVqL4xWsl/u//nsKnn37qSENHKikTV155hZzvwIsm9zeoUTzRER+OsX1TMIg6Z2Z+V+r4x/RLliv1e3WMlcHBwK5xCLIFYfqRvXE8ddR8pXafTnEkI3rhgsN6yTXbI3snSbiYqFCEhdlIBiTKezzJCzO6doiizn84Dh6WhokDOuDGUwZgVG81YImJDMUxYzIweUgHnDQpQwYtDFZYxpCMYiWHBygnTOyC564Yi+S4cNkuyhfyjaD0x1J650ztgZsozvBwPd3AlD2KMte6R11earKc1SDgrNtImaivR/3WHU4zL3xqpz3O+WIlz3XZO/18SiQfjMTHTDvNQZOR7fhzRRN1vhyD/lgFx8ZKNV+vnbxuOSIKjaPmRUkhDzxaT9yygfobLzezWgS31azdm7FpzQI0EK84BZ2eWurs1yz+DQXZu8VfS2hh8N0b/JhD24i2IL6OnM1aekxJo/hzh1WZ+o8rDt6yyRWwrr4JM+fswMs/bEFBaY2DKNaltPaKJu1XZxZ3WUOo4fZMj0VhWS2+mr8bc1fnIquwisI7f6ZgMw/G2mLU97+MBtJQ77//Ptxy68348svPsXr1GqeC4w72M+q4nnnmaZx77rnSYXpCk9YTeOM2ry24+OJpePrpp/H1118hc+9ezUVh06ZNeO+9d3HbbbfImgFWZpqLqqoqOYHyvvtmEC1fEi2rNBeFnTt3SBr33nsPTjvtVGRl+d7T7I0W/gTCi0dfeeVl6rg/QF5urtjrbJszZzbef/9dXHjhBcJbPiSqudi6dStOOOE4PPbYo5j5wftaGkbBLF+2DJ9//hluvPEG3HzzTW2+gHVfw/w5UiDt3+C4CEJ+FSsbOqdE0UAgTby98fNWfP7nLrlCmw/w5c8XOjheFtveptDPO6QXIqlTX7mtCD8vz0J4aDBOnqT25/ftHIeQEApLcSSSstAjLcYpnvySGjzy8Vps2FWC+JhQHDiElTnlvnQLKazfbUZFTQMpGckYRoqLgud8BCqCkpIQceJxTjKAKVBjXM2SfoLi4hBz1unqXWBIX7Mc9oaKshKsWTIXi+Z8heLCbM2WwlJifMbCjk0rsHju19i8eoHcNKnqhzP8pRNEg6CUlQtlXYMZXLfU4nwbEjYsR9zOLbC14mC7wpy9WL/sd86QGzgVO8W9dukclBTmyHtLwNd/1ybx8dIq3wznuLTEQ8NRm9yBHN1TstoXBuSnCgeIBq4ga3eUoKTCOMqYyXdv9MY7y0dWMsJpVJFbUo3nv9mMWlJCmCl8SMyEQSmk+RODfdepfx08VRnmI3dq3AE1NnDH47vK8FoHXjDpG54r5+zZs7F6DSslzgXjqZjmzPnN83oH3bPnJLBgwXz8/vtc8uZlVsSU2Lr1a+ROjJbg9ddfRWbmXre8u2aLR0tfkZLEMy1WtX0dvJiT14EwOF4V3p1wngH65puvZZHp/gqmjWciTz2gG/p0UjNRfGyvGUN7JCAsJBhF5bX4dN5OvPXLdtz06jK8/9t2ua9CL1yeSThmTCdEhgW58ZzfBnSJl99fV+Tgua834ZXvN+OZb9T39H4ZpDiQTCos41GcnfzGEcfZt4qH5cyf6/JJSVAXcnVJNQ4dkoHMgr1yhD4rMkO68gzK/onoqy9FSEYnp+om/Sz9kfWQQUGIPO8sBHdKFzcFfczrH1xnN676E3mZ21FVUYrqCv4EooFY3dTUiOrKMlSVl2D39nXYtn6pyHer8euwBwXL2gBv0Ms2qIFnWa3HrkIp/zxrkrVnMykHRj1xBcujutoa5O7l9Q7UV5GdSrsZCA5Baa+BXjt/yQ/V96qOGahhxaEVCFzFgXgWGhKE0yZ3lRkEhmeGmJmrzGt3FWPxxgKEESMvO6avfKfsmKi+N4ZRnIeN6EQjgQ7NqQf/ErgzROe5XMIiMPjNBw653vTIrg1tOLLldQDJfKgRHxNqAjcub59EfKG+XsubNvvB4Ku509LS5EZJpzpGfnylwT7dOabQIEqWctdHPWkd05CQEI+Q0BCHHYs6Hm3w9cBu9dulU3OFdHoURvfF4ZkGXtvAaZjBflsyqxEoYNakxEXgyuP6GvLAhfsxEaouVtY2IogCsN9v7puCL2cchAkDUh385dkDnlXgzw6uPE8nORFBCgUvVqupo86Jno/+2I2sgirp7HmtFSe7blcp6hsg67AcBUCICAvGVFJMDpaZBmDZVu2aaS4qLmsqB6V0ACP6tO26oL8LTG5IRmdEX3EJgkLDlKUO/jxB/AkbNxrR55hnGxgmRnmAWQ/kEyKrKtTnNVVC3GKo66PyCqbBnyp7nnSnf8TTvCxSvOVf82APCUH2+KmoSaFydKkLnGYTKRZlPfqhuM9gD+7ewT65ZXJ+WIbI512BHoeeU/7lLl11xfzZguWBgnN6rkquJ9THJSBn1CShi+EaoiYlDQVDxlLPb+1EXW8I6BmHWmq0z35NI9j16tuTGxPIXZ+BDA1Wswl8+x3fW/HE5+vx9FcbkFtUi9F9kzF1eEepmDXUcXw4dye+mM+j1WbrdP9K8EVTxx5znHwnZjDPRo0egwMPPEgubzKjc6dOGDd2nPbWPEyePBl9evfW3qh0qKFeceWVGDp0KAYNGkQ2RmkNHzHCZX2Cgr/ynDhxIoYMGaa9URo0Mjr77HM4MYwbP95JQeFTKidNmqS9ucNXWhdffAmiqBNnsJDjDv3EE04SZYtvrdRlEMcxYcIkpwWUrvAmr6ZMnYIEio+dOR4+We+ggw6SGziPPupoJ0HDdAwaNFB7c4E/pgUEbMguqcZ976/G4k2et8vyrbiM6IgQWcS4K69CZIQr3vx5K575aiPKq9wVqZLKOjm2muser5ngE/h6dYwWpYEVjYyUaGKXXeRMPSmHnZMjZR2Djg4JEbjzrCHI6BAlp1mu2mockKZ3axGhqo7x8cH7I6Q68ozCSccinB4hSx76Q/+Du3ZB3H13IpgUZWeYKrKwQv44YNLlaUASQcqv4qvuK4g6u8joOETFJZEd2xq3SMbE8+yNKYLmgAaY+UNHoy7WZQaI6kB5l14oGjSKXlrWVXKOgil+/TIuB8UUt6JP9UH8sHyN4MFLKzv1yo4ZKOvam/hJksckA5i+giFjSKng+A17M6woJ4zAVRyI49w4V+0okvPMhSB6eDX0ceM6k6afhlXbixBKTLjuxIE4huy4AeeQXxYc/714pFy/u35PqQje+KhQqZg8XbQlsxTbcly/j1tj2L8NPIUWTJ3pQw89jMsvuxwDBw7EZZdehq++/ErOJ7iUzE/93/+hd+8+GDNmDF555TUMG2Z0zB7hpX137twZr776uigjI0aOxNNPP4tpF02XbZivkf35558vt2Iee+yxeO7Z5+SCJ3d4iVwDd6offfSRrMXg+yNuvulmXHTRNFRXVWH6tItx1X+uljSmHnIIfvjhJ3Tr1k0L6Rneas1Iyv8Xn3+Jgw+eguHDh+O5516g9AYgPCISDz74MA495DCJm3nKF1LxzEpzMaD/QMya9RuOPvpYDCeeP/TQQzjzrLOkXGbMuA/Tpk1HWseOOPPMM/H6629SGhFayP0P3FFUUEf/+5pcx70arrzPLFSnZfJCRV57sGxTIcqqTFtUtV8+onrhhny5c8QVrGgUltfJgGRoj3gcOLgjXr9+PJ68dBTiokNk4SQrFTwQYUWC7wzomBShZAulzUdg810ZrCz+sGSv3PArsovcWfngvPG9CYwtWfvfglUzbJGRiH/4XoQNH6S6cOILL5xMeu05hPbhRew6vLQSb42HEBIaiv5Dx1OfzrNCFDspKh069UA0dX7JqelISOqgBjLkFhYZjX7DJgnPycYyOHk9C3yTZMFQHonrXWKTdLQlfYfATnbch7QE6qtNELr1HkZKQazIUqYlmpSfbn0GI5LSZcWC7aMova49hyi6WgCdHntQCEr6DEI9xcfKg4DS5Js+6+NYZvLMl0F7SxBgioPOMCbJnXnMA15Rff3JA3H50f3w87JsrNlZTI24A44Zm4Ht2RV44btNst0qVTT/wTJtWEYCZwUJCwOsifGvmXUtK6z/JYju61KbeAqNBR9fnHTvvfdjzpzf8cADD2LTpg1Ys2Y1fvr5R5xz9rmYP/8vfPvt96I8uMIlSp+cZsXk3Xffx08//uxYXLhj+3bs2r0TTzzxJBYvWiKdYIcOrqMZA+7xO+eAZxKefPL/8Pvv83D99TfI2orKqkqsW78Wt99+u6Tx4QcfiiLTGowYMQIff/wJfv75V1IgDpaTMAsL8lFZWYWZMz/E4sVLcf/9D5DQMJqhdDIu8CUOOY+8y+SXX2aRMnQ+li5dKgtA//zzTzz66GNYvWoNnnnGm5K1/0A6BRfp7fxmx4ptpSQPSqTTf4IGDrfTyD85Xn2iNIMnhtXo1jNfP5u3S2YdDh+RjutO6i8X6c1ano30xCgagIShtLJO/OQUVcnW8V7psSJPOH/lVQ1459ftEs+0w3sjigYxer5H9UnCi1eNJdkUjl15lbJoO1Bh1EL3+mgGd3JxD92HoJ5dYaPOPubKSxDSq4fmqsOVz1qcJmsP1R5JHTpj/NSTMWjUgRg2/lD0I0WitqYaVRUVGDr2MAwYcSAGjTwQYw88HlHUKXvKq5eUCWa/yldNYiryho6jXjEE9uAwFA4ZjcZI/xdjGXBNzehgI2NiMfHQ0zB68rEYNfkYjJhwhKzdGHPQ8Rg56SiMmHQ0Jkw5iZQLfReKe1zKzpO9CcRIPoeiMTwSuSMnoYH4YqcyKhg8GjWkcClwW/Ibk08EmOKgCjO/tA73vLsC/3l+MfKK1Yhha1Y5Lv6/hbjoqb/kUbcTVsl129PJfvr/LcDtby0X5WFzZhmueWkxXvtxK974eZvEs2RTAR7+cA2ueG4Rlm8rwl8bCiieBfhifusOwvhfgnBfq01OzcpFYDc0NMiNjzfeeCOiaNSRmal2Hjj5M0Wg2+qdYpDo4d6hR1NUVIy0tA645tprsInSa2xskjhc88PQk2MBbs67enP3r4MPYeLPBzzzEEGNjTtdBU9hVMzqr3Rljrw6p+kO3jFywAEH4OJLLkF+fq7L2gkjLaFN4xP/dY/Xe0o1NTXo3CkDt956u5zw6XU7qQv85T0QoE/zm+GwIYNufu6bTSIreCFldHgIamsVn82hWUFWh8YpW/7r6Ljo9891eXjlhy2oo/rGisFXf+3Fb6ty5KwG3n65fGsxXvxus+zYCAm2oUfHWPlMquOnpZnYQ4pBj44xOP0AY8aKz47h2zzX7CjFY5+slQFNoEJqpFRuo246MdEBG0L790XkBWcjqFsXRJ16Es/Na26eYeY1K3CuyZgRHRuPTt36okN6D5SXFqCaOtvSolzZotm5ez959M8AnqCnpZqVmQBuvXqyRoYqO/dAZVonlPTqj+qkDhTGS8YIJjLkjy4LPIGd+FNiQnIaEpM7oqggC7mZO4iWHCSldpJZFJld0fwasevgd24FnJCrm4KEpUzIQ+Z64l3BoBGoJgWsnD9dEP0qpOfw3u3dETDXajOhnBG9Y9DfdbBZMdQKdN96CGcSXeNuhwJfO/veLRMd/HflurdO2wq4zd742jKsIqXt9jMGy6FeVuJqXpp2LNtSjJtfXya7Zu45e7CM+KzCalr8bfzG15bSiLMOM84dIiPJtgbn5bM/d+Nl6qCOGttZzhLQS6W1MJdqXkk1rnpxCQpK/Z0l8feC82duo+Y8O9dKZ6gyDEKv9BhkF1Vpt+b6g2tqBK+JePAr8BaAFQpWXoxwrvXMW4z/NE6a2AVXHW/tWu2m8grUzvsTkUcfSW9emecA33J8x9sr6bdGro3nLa++QhDHRGlQx0wD4RFR8tnPV3vldS7LtxRi7a4SHDm6M9ISIihb/FHFM7f1coksyEUtKSON4RGO+PUQnlLjz1NfL9gji3ePHZtBnnzTX11VKbtA+PCnsLAIdO8/HOE0aPGHOauyZabqzIN7ONbJ6FApGulKfome4LpaORSqLl7JKHOuZJBFFkYoG/bkV2D2SmPrqzcEzIyDEEpwLSgdZoIZ7kLU/K6bORb3sYrBqHaYkUeNedaKHDLpozRnLvlqpL5hx3pqvBt28+lvwA9LMmUBqxVYS1OVcDV1Er9RpWeBwbNO27LNi89ca4E7fKelwvPf1TuKqcOtRXVdPZZsLkBTo/+4m4vKmnpZXMcxr9tZgsyCagsUWIODSopw1opsFJUbW50DBQatymSUjG/1SR9ybMsudygNnv2bbY3U2FYEsDjrLcC7X+PdEKWGDwa/mcPTm0s9c/YfKLCjpLIeddruIH+5DIqNQeQRh2lvzvTp4I5ZR0VNI6rqGmX3Ci9q9RzCDLvMLMQlpiCenohItdbEE4xkbFIH+JWvWVcw06GbVTwqPlJQkjugSVNKlA/NXf4a0NMp1uLm9SwNMpPoOV86IqOiMXj0QRgyZgr6DZvgV2ngZFimlVWRzKSXYlN71fPgnkNyoPw3kWKi1jWYXZXJfTJFlbkVBMyMgw5dC/IFcRZ/nHV3zzL95UKV4VP37+Lh/9s7t942iiiOH9/dOInjOE4T2jSRWppWaQuolKA8EHhA4gEkxAsPfBm+Ap+kUlUJQaXyUCohGlWtKHcoURORWxPHxMZ2fGPOOTv2OnXirdOWVfr/Jd5dr2fOXHZ29uzsnjNATuxIKEzvvpah108Pi0nbYeDTrm5k/Lm8I450rLLA6byS7qOP3j4pL60efMH2BndwXy2s0M9LOW0/5vCGzfqTuVM0OdYvQ8yHhU9SNvW9cXdV/QI4d5Oz0xlxkR6LHu5taMv6domu3n5EOXMSS1FM/YynzN2Mqa/UgGP+ZgvZI2xd9M39VfrhryenRfc77SXfvx7cv3itLe5TAg0+jqo867pdKWBZipXavtfChyhootv+zIZm2mN0jv9/cywWos8/u0RvTrMVg7lTt5nvgLtsXQnU6Yurv9G17/gxcZ3OTaToylnT33S1JrAp7F9XWpO6XDZ3zzfvrZlvDRroi9L7b4ybdbv5uMVed2TN8jsUVqRKIEc5MEpPvlil63eWxH8H92szUym6fCb9TPobxipb9x9mxRiAv/EjuA9nJ+T4NHHly+acH8fZttcVEzCbL9LXd1c6WiLtxXeKg4Uz1b3MHKJ79jkEn/oHh/Qm6+XC21E4GBNfxDh12xTp1PezSOIJHNnPGU7hqU7Op8BdAltF3Ie4dSy7vze4g9k7puQnNHet/EkNmL/OZe69LlTu/vBv2nvYkJ3TOliOu7a7pegLnEKGQgFx0T9oLrwt3DXgZdtiaqFeo7+zJXq0XnD2aEh+J6U/zjcRzg6J2kW2rHhhkAunbJjzJCCKMXsb1p0ahr2BDpt0+IVOJ2gzjsozH3PxbbU73d8MxlsN0xbkAt0wNw8ko3VqnaMhWF9IJiKUsGWROGbDvc1YTcVuM+5wjjzeLpRq4gCRRx0s8WiY0uYmQm7uzL/GYJk2fzbfjixn5QqpSydNtmDc/IfL4nEk2K+KAwC9w2cImjXwAtoKOAq82HbcGoMD4MiACwHwCtoKOAq82HYMxQEAAAAAnoHiAAAAAADPQHEAAAAAgGegOAAAAADAM1AcAAC+gd8NV1pdUzIRpZHBGI0k47o2H9633/tgLqs1YuM6ptdXx6wdvVrO9SoFgKMFzDEBAL6BOyO2olevB7pkJ14fm49+V9jFr06N3w7PPsmT3OWLFYrHwjSajNHadkmmw36wmBVFgN2Qr2wW6dRoP40Px8V+nWe43NopEzv+GxmK00+L2zQzmaJytUo377E3VQCABSMOAADfoCMOqjSoCqEuytmbpioNDdrIlenLO8vybS+RUJDmZjI0f3GM3rt0nObOZ+j8RFLmRljP7tLsuQx9cPmEeBD8dH6S3jqbpqmxhDjyWVwr0LyJUyjuiotinkL7+183HMkAAAsUBwCADwk2Rxd2KzW69YBnFG1QvRGgb812qdJ6rGE9MjL/livUFwnR9Ml+mVp/+XGBouEgXZhK0m6tSoOJCE1k+kTB4Cn6eT4QTujC1JC48F3ZKsroRLXBngHrlC/WXNIBAAwUBwCAj7DqglsxIFr4/TFt5cvienfhj03imQVtSB2dUPKlKuWKrFUExef+w9UCVWoN+mVpR34/Mz4gMzGePjEg0/K/c3HUxObfc7SxXabbP67T8aFjdOXVtAmtOVDpUB8AUIj+A3AiQNcfsMQPAAAAAElFTkSuQmCC;" parent="1" vertex="1">
                    <mxGeometry x="40" y="40" width="246.29" height="140" as="geometry"/>
                </mxCell>
                <mxCell id="6" value="&lt;h1&gt;&lt;span style=&quot;background-color: initial;&quot;&gt;Approach&lt;/span&gt;&lt;/h1&gt;&lt;div&gt;Identification&lt;/div&gt;&lt;div&gt;1. 5 of one Color, Straight, A high card&lt;/div&gt;&lt;div&gt;2. 5 of one Color, Straight&lt;/div&gt;&lt;div&gt;3. 4 of one Kind&lt;/div&gt;&lt;div&gt;4. 3 of one Kind, 2 of one Kind&lt;/div&gt;&lt;div&gt;5. 5 of one Color&lt;/div&gt;&lt;div&gt;6. Straight&lt;/div&gt;&lt;div&gt;7. 3 of one Kind&lt;/div&gt;&lt;div&gt;8. 2 of one Kind, 2 of one Kind&lt;/div&gt;&lt;div&gt;9. 2 of one Kind&lt;/div&gt;&lt;div&gt;10. high card&lt;/div&gt;" style="text;html=1;strokeColor=none;fillColor=none;spacing=5;spacingTop=-20;whiteSpace=wrap;overflow=hidden;rounded=0;" parent="1" vertex="1">
                    <mxGeometry x="43.15" y="200" width="240" height="190" as="geometry"/>
                </mxCell>
                <mxCell id="20" style="edgeStyle=none;html=1;entryX=0.5;entryY=0;entryDx=0;entryDy=0;" parent="1" source="9" target="17" edge="1">
                    <mxGeometry relative="1" as="geometry"/>
                </mxCell>
                <mxCell id="21" style="edgeStyle=none;html=1;entryX=0.5;entryY=0;entryDx=0;entryDy=0;" parent="1" source="9" target="13" edge="1">
                    <mxGeometry relative="1" as="geometry"/>
                </mxCell>
                <mxCell id="9" value="Check Color" style="rounded=0;whiteSpace=wrap;html=1;" parent="1" vertex="1">
                    <mxGeometry x="570" y="40" width="120" height="60" as="geometry"/>
                </mxCell>
                <mxCell id="24" style="edgeStyle=none;html=1;entryX=0.5;entryY=0;entryDx=0;entryDy=0;" parent="1" source="13" target="14" edge="1">
                    <mxGeometry relative="1" as="geometry"/>
                </mxCell>
                <mxCell id="29" style="edgeStyle=none;html=1;entryX=0.5;entryY=0;entryDx=0;entryDy=0;" parent="1" source="13" target="28" edge="1">
                    <mxGeometry relative="1" as="geometry"/>
                </mxCell>
                <mxCell id="13" value="Check Straight" style="rounded=0;whiteSpace=wrap;html=1;" parent="1" vertex="1">
                    <mxGeometry x="710" y="120" width="120" height="60" as="geometry"/>
                </mxCell>
                <mxCell id="25" style="edgeStyle=none;html=1;entryX=0.5;entryY=0;entryDx=0;entryDy=0;" parent="1" source="14" target="15" edge="1">
                    <mxGeometry relative="1" as="geometry"/>
                </mxCell>
                <mxCell id="26" style="edgeStyle=none;html=1;entryX=0.5;entryY=0;entryDx=0;entryDy=0;" parent="1" source="14" target="16" edge="1">
                    <mxGeometry relative="1" as="geometry"/>
                </mxCell>
                <mxCell id="14" value="Check High Card" style="rounded=0;whiteSpace=wrap;html=1;" parent="1" vertex="1">
                    <mxGeometry x="840" y="210" width="120" height="60" as="geometry"/>
                </mxCell>
                <mxCell id="15" value="Royal Flush" style="rounded=0;whiteSpace=wrap;html=1;" parent="1" vertex="1">
                    <mxGeometry x="960" y="310" width="120" height="60" as="geometry"/>
                </mxCell>
                <mxCell id="16" value="Straight Flush" style="rounded=0;whiteSpace=wrap;html=1;" parent="1" vertex="1">
                    <mxGeometry x="760" y="310" width="120" height="60" as="geometry"/>
                </mxCell>
                <mxCell id="22" style="edgeStyle=none;html=1;entryX=0.5;entryY=0;entryDx=0;entryDy=0;" parent="1" source="17" target="18" edge="1">
                    <mxGeometry relative="1" as="geometry"/>
                </mxCell>
                <mxCell id="23" style="edgeStyle=none;html=1;" parent="1" source="17" target="19" edge="1">
                    <mxGeometry relative="1" as="geometry"/>
                </mxCell>
                <mxCell id="27" value="" style="edgeStyle=none;html=1;" parent="1" source="17" target="13" edge="1">
                    <mxGeometry relative="1" as="geometry">
                        <Array as="points">
                            <mxPoint x="700" y="150"/>
                        </Array>
                    </mxGeometry>
                </mxCell>
                <mxCell id="17" value="Check Kind" style="rounded=0;whiteSpace=wrap;html=1;" parent="1" vertex="1">
                    <mxGeometry x="480" y="120" width="120" height="60" as="geometry"/>
                </mxCell>
                <mxCell id="18" value="Four of A Kind" style="rounded=0;whiteSpace=wrap;html=1;" parent="1" vertex="1">
                    <mxGeometry x="350" y="200" width="120" height="60" as="geometry"/>
                </mxCell>
                <mxCell id="19" value="Full House" style="rounded=0;whiteSpace=wrap;html=1;" parent="1" vertex="1">
                    <mxGeometry x="480" y="200" width="120" height="60" as="geometry"/>
                </mxCell>
                <mxCell id="31" style="edgeStyle=none;html=1;entryX=0.5;entryY=0;entryDx=0;entryDy=0;" parent="1" source="28" target="30" edge="1">
                    <mxGeometry relative="1" as="geometry"/>
                </mxCell>
                <mxCell id="34" style="edgeStyle=none;html=1;" parent="1" source="28" target="33" edge="1">
                    <mxGeometry relative="1" as="geometry"/>
                </mxCell>
                <mxCell id="35" style="edgeStyle=none;html=1;entryX=0.5;entryY=0;entryDx=0;entryDy=0;" parent="1" source="28" target="32" edge="1">
                    <mxGeometry relative="1" as="geometry"/>
                </mxCell>
                <mxCell id="37" style="edgeStyle=none;html=1;entryX=0.5;entryY=0;entryDx=0;entryDy=0;" parent="1" source="28" target="36" edge="1">
                    <mxGeometry relative="1" as="geometry"/>
                </mxCell>
                <mxCell id="28" value="Check Kind" style="rounded=0;whiteSpace=wrap;html=1;" parent="1" vertex="1">
                    <mxGeometry x="540" y="330" width="120" height="60" as="geometry"/>
                </mxCell>
                <mxCell id="30" value="Three of A Kind" style="rounded=0;whiteSpace=wrap;html=1;" parent="1" vertex="1">
                    <mxGeometry x="320" y="420" width="120" height="60" as="geometry"/>
                </mxCell>
                <mxCell id="32" value="Pair" style="rounded=0;whiteSpace=wrap;html=1;" parent="1" vertex="1">
                    <mxGeometry x="620" y="420" width="120" height="60" as="geometry"/>
                </mxCell>
                <mxCell id="33" value="Two Pair" style="rounded=0;whiteSpace=wrap;html=1;" parent="1" vertex="1">
                    <mxGeometry x="460" y="420" width="120" height="60" as="geometry"/>
                </mxCell>
                <mxCell id="36" value="High Card" style="rounded=0;whiteSpace=wrap;html=1;" parent="1" vertex="1">
                    <mxGeometry x="760" y="420" width="120" height="60" as="geometry"/>
                </mxCell>
                <mxCell id="39" value="&lt;h1&gt;Calcualte Winner&lt;/h1&gt;&lt;p&gt;1. Calculate players best hand&lt;/p&gt;&lt;p&gt;&lt;span style=&quot;white-space: pre;&quot;&gt;&#9;&lt;/span&gt;1.&amp;nbsp;&lt;br&gt;&lt;/p&gt;&lt;p&gt;2. Compare players hands and decide who won&lt;/p&gt;" style="text;html=1;strokeColor=none;fillColor=none;spacing=5;spacingTop=-20;whiteSpace=wrap;overflow=hidden;rounded=0;" vertex="1" parent="1">
                    <mxGeometry x="40" y="510" width="270" height="200" as="geometry"/>
                </mxCell>
            </root>
        </mxGraphModel>
    </diagram>
</mxfile>